<?xml version="1.0" encoding="UTF-8" standalone="no"?>
<!-- Created with Inkscape (http://www.inkscape.org/) -->

<svg
   xmlns:dc="http://purl.org/dc/elements/1.1/"
   xmlns:cc="http://creativecommons.org/ns#"
   xmlns:rdf="http://www.w3.org/1999/02/22-rdf-syntax-ns#"
   xmlns:svg="http://www.w3.org/2000/svg"
   xmlns="http://www.w3.org/2000/svg"
   version="1.2"
   width="5314.9604"
   height="2834.6455"
   id="svg2">
  <defs
     id="defs4">
    <clipPath
       id="clipPath16262">
      <rect
         width="905.98199"
         height="246.98444"
         x="-3.6803043"
         y="3.6157827"
         id="rect16264"
         style="opacity:0.8;fill:#0088aa;fill-opacity:1;stroke:#0088aa;stroke-width:4.85319757;stroke-linecap:round;stroke-miterlimit:4;stroke-opacity:1;stroke-dasharray:none" />
    </clipPath>
  </defs>
  <metadata
     id="metadata7">
    <rdf:RDF>
      <cc:Work
         rdf:about="">
        <dc:format>image/svg+xml</dc:format>
        <dc:type
           rdf:resource="http://purl.org/dc/dcmitype/StillImage" />
        <dc:title></dc:title>
      </cc:Work>
    </rdf:RDF>
  </metadata>
  <g
     transform="translate(0,1782.2834)"
     id="layer1">
    <g
       transform="matrix(-12.68265,0,0,12.68265,2606.6493,-1275.1542)"
       id="g3034">
      <circle
         cx="36"
         cy="54"
         r="22"
         transform="matrix(1.477616,0,0,1.5065066,-3.122124,-2.4350016)"
         id="circle3036"
         style="fill:none;stroke:#de2c68;stroke-width:1.14544892;stroke-miterlimit:4;stroke-opacity:1;stroke-dasharray:none" />
      <circle
         cx="74"
         cy="44"
         r="22"
         transform="matrix(1.5950476,0,0,1.6223254,-10.072136,-9.1778182)"
         id="circle3038"
         style="fill:none;stroke:#de2c68;stroke-width:1.06239557;stroke-miterlimit:4;stroke-opacity:1;stroke-dasharray:none" />
      <circle
         cx="74"
         cy="44"
         r="29"
         transform="matrix(1.5831269,0,0,1.5986441,-9.3397104,-8.1360194)"
         id="circle3040"
         style="fill:none;stroke:#de2c68;stroke-width:5.81192684;stroke-miterlimit:4;stroke-opacity:1;stroke-dasharray:none" />
      <polygon
         points="31,44 26,44 30,48 22,48 22,52 30,52 26,56 31,56 37,50 "
         transform="matrix(1.4493674,0,0,1.3737988,-2.70016,2.5042672)"
         id="polygon3042"
         style="fill:#ffcc33;fill-opacity:1" />
      <polygon
         points="81,59 75,53 88,53 88,47 75,47 81,41 73,41 64,50 73,59 "
         transform="matrix(1.5159598,0,0,1.568926,-5.2784314,-7.233634)"
         id="polygon3044"
         style="fill:#ffcc33;fill-opacity:1" />
    </g>
    <path
       d="m 3554.8678,-1474.6258 c 543.5499,0 984.306,440.7561 984.306,984.30598 0,543.5498 -440.7561,984.04921 -984.306,984.04921 -543.5498,0 -984.0492,-440.49941 -984.0492,-984.04921 0,-543.54988 440.4994,-984.30598 984.0492,-984.30598 z m 0,-52.2711 c -572.5181,0 -1036.5796,464.0615 -1036.5796,1036.57959 0,572.5181 464.0615,1036.57958 1036.5796,1036.57958 572.5181,0 1036.5796,-464.06148 1036.5796,-1036.57958 0,-572.51809 -464.0615,-1036.57959 -1036.5796,-1036.57959 z"
       id="path3111"
       style="fill:#de2c68;fill-opacity:1;fill-rule:nonzero;stroke:none" />
    <path
       d="m 3556.4519,-1271.4928 c 434.4991,0 786.8866,352.38737 786.8866,786.88659 0,434.49922 -352.3875,786.63108 -786.8866,786.63108 -434.4993,0 -786.6311,-352.13186 -786.6311,-786.63108 0,-434.49922 352.1318,-786.88659 786.6311,-786.88659 z m 0,-107.255 c -493.759,0 -893.8829,400.38581 -893.8829,894.14477 0,493.75896 400.1239,893.88297 893.8829,893.88297 493.759,0 894.1448,-400.12401 894.1448,-893.88297 0,-493.75896 -400.3858,-894.14477 -894.1448,-894.14477 z"
       id="path3109"
       style="fill:#de2c68;fill-opacity:1;fill-rule:nonzero;stroke:none" />
    <text
       x="3442.8572"
       y="2194.6455"
       transform="translate(0,-1782.2834)"
       id="text7187"
       xml:space="preserve"
       style="font-size:144px;font-style:normal;font-weight:normal;line-height:125%;letter-spacing:0px;word-spacing:0px;fill:#000000;fill-opacity:1;stroke:none;font-family:Sans"><tspan
         x="3442.8572"
         y="2194.6455"
         id="tspan7189" /></text>
    <text
       x="2561.7468"
       y="2697.2649"
       transform="translate(0,-1782.2834)"
       id="text7209"
       xml:space="preserve"
       style="font-size:144px;font-style:normal;font-weight:normal;line-height:125%;letter-spacing:0px;word-spacing:0px;fill:#000000;fill-opacity:1;stroke:none;font-family:Sans"><tspan
         x="2561.7468"
         y="2697.2649"
         id="tspan7211" /></text>
    <g
       transform="matrix(6.351199,0,0,6.351199,650.53192,-1111.7452)"
       id="g4935">
      <path
         d="m 285.18398,183.68577 7.2757,-12.60188 5.93859,0 1.60714,-12.21955 2.14286,11.78572 1.25,-4.46429 3.57143,0 0.0446,-6.47321 1.96297,2.00892 -0.0325,-3.57142 -0.51404,-0.0631 -0.0523,-13.68687 1.67028,1.54401 1.16203,0.0631 0.0446,-5.53572 -1.07143,0 -0.0446,-3.03571 1.29464,0 0,-3.03571 1.42858,-0.35715 0.71428,-11.96428 0.69197,11.98661 1.31696,0.17857 -0.0266,3.89549 1.18729,-0.0339 -0.0446,3.08035 -1.33928,0 0,4.46429 1.25,0 1.38392,-1.07143 0.0446,13.92857 -0.89286,-0.17857 0,3.03571 1.07143,0 1.38393,-1.47321 0.0446,5.9375 2.5,0.17857 0.17857,1.78571 2.14286,0 3.75,2.32143 0,21.25 -43.21429,0 z"
         id="path3923"
         style="fill:#000000;stroke:#000000;stroke-width:1px;stroke-linecap:butt;stroke-linejoin:miter;stroke-opacity:0" />
      <path
         d="m 290.63743,188.68136 0,-4.09002 c 0,-2.251 1.98062,-2.16608 1.98062,0 l 0,4.09002 z"
         id="path4498-7-2-2-3-4"
         style="fill:#ffffff;stroke:#000000;stroke-width:0.07620382px;stroke-linecap:butt;stroke-linejoin:miter;stroke-opacity:0" />
      <path
         d="m 294.28058,188.67087 0,-4.09002 c 0,-2.25101 1.98062,-2.16608 1.98062,0 l 0,4.09002 z"
         id="path4498-7-7-8-4-8-4"
         style="fill:#ffffff;stroke:#000000;stroke-width:0.07620382px;stroke-linecap:butt;stroke-linejoin:miter;stroke-opacity:0" />
      <path
         d="m 312.78832,145.89616 0,-4.09002 c 0,-2.25101 1.10806,-2.16608 1.10806,0 l 0,4.09002 z"
         id="path4498-7-7-8-4-8-4-6"
         style="fill:#ffffff;stroke:#000000;stroke-width:0.05699781px;stroke-linecap:butt;stroke-linejoin:miter;stroke-opacity:0" />
      <path
         d="m 312.75594,192.06726 0,-8.84464 c 0,-4.86782 7.19143,-4.68416 7.19143,0 l 0,8.84464 z"
         id="path4498-7-7-8-4-8-4-0"
         style="fill:#ffffff;stroke:#000000;stroke-width:0.21353163px;stroke-linecap:butt;stroke-linejoin:miter;stroke-opacity:0" />
    </g>
    <path
       d="m 3159.1687,90.7564 0,-242.90482 -29.1983,0 -2.9205,-10.89917 30.8763,0 0,-143.16833 -86.9736,0 0,-42.24431 -70.2001,0 0,-18.01597 -71.4426,0 0,33.54697 -32.9257,0 0,182.64454 20.5009,0 0,14.90975 -21.6431,5.79924 0,233.37814 265.1691,0 z"
       id="path22789"
       style="fill:#000000;stroke:#000000;stroke-width:1.73947179px;stroke-linecap:butt;stroke-linejoin:miter;stroke-opacity:1" />
    <path
       d="m 2894.5204,-19.24282 c -25.1007,-3.44888 -122.8338,0.62744 -126.7329,15.28597 0.8909,52.12015 24.1658,76.76147 52.1841,87.5469 l 28.5771,0 0,22.69735 172.0834,0 0,-128.77269 z"
       id="path22791"
       style="fill:#000000;stroke:#000000;stroke-width:1.50202513px;stroke-linecap:butt;stroke-linejoin:miter;stroke-opacity:1" />
    <path
       d="m 4408.3099,183.97525 c -62.3472,-49.3956 -28.1785,-98.7912 0,-148.1868 37.451,-43.99063 784.0404,-38.88015 808.3593,0 22.3492,49.99072 45.8931,99.9815 0,149.97222 z"
       id="path4311"
       style="fill:#000000;stroke:#000000;stroke-width:3.2280705px;stroke-linecap:butt;stroke-linejoin:miter;stroke-opacity:1" />
    <rect
       width="791.94189"
       height="4.2954369"
       rx="6.3328691"
       ry="2.4217145"
       x="4253.7334"
       y="-875.62579"
       transform="matrix(0.97810726,0.20810141,-0.2719142,0.9623215,0,0)"
       id="rect4313"
       style="fill:#ffffff;fill-opacity:1;fill-rule:evenodd;stroke:#000000;stroke-width:3.02703261;stroke-linecap:round;stroke-linejoin:round;stroke-miterlimit:4;stroke-opacity:0;stroke-dasharray:none;stroke-dashoffset:0" />
    <rect
       width="791.94189"
       height="4.2954369"
       rx="6.3328691"
       ry="2.4217145"
       x="4249.8022"
       y="-846.34528"
       transform="matrix(0.97810726,0.20810141,-0.2719142,0.9623215,0,0)"
       id="rect4313-5"
       style="fill:#ffffff;fill-opacity:1;fill-rule:evenodd;stroke:#000000;stroke-width:3.02703261;stroke-linecap:round;stroke-linejoin:round;stroke-miterlimit:4;stroke-opacity:0;stroke-dasharray:none;stroke-dashoffset:0" />
    <rect
       width="791.94189"
       height="4.2954369"
       rx="6.3328691"
       ry="2.4217145"
       x="4169.8979"
       y="-825.57391"
       transform="matrix(0.97810726,0.20810141,-0.2719142,0.9623215,0,0)"
       id="rect4313-7"
       style="fill:#ffffff;fill-opacity:1;fill-rule:evenodd;stroke:#000000;stroke-width:3.02703261;stroke-linecap:round;stroke-linejoin:round;stroke-miterlimit:4;stroke-opacity:0;stroke-dasharray:none;stroke-dashoffset:0" />
    <rect
       width="791.94189"
       height="4.2954369"
       rx="6.3328691"
       ry="2.4217145"
       x="4128.668"
       y="-798.073"
       transform="matrix(0.97810726,0.20810141,-0.2719142,0.9623215,0,0)"
       id="rect4313-6"
       style="fill:#ffffff;fill-opacity:1;fill-rule:evenodd;stroke:#000000;stroke-width:3.02703261;stroke-linecap:round;stroke-linejoin:round;stroke-miterlimit:4;stroke-opacity:0;stroke-dasharray:none;stroke-dashoffset:0" />
    <rect
       width="791.94189"
       height="4.2954369"
       rx="6.3328691"
       ry="2.4217145"
       x="4056.4871"
       y="-769.34467"
       transform="matrix(0.97810726,0.20810141,-0.2719142,0.9623215,0,0)"
       id="rect4313-1"
       style="fill:#ffffff;fill-opacity:1;fill-rule:evenodd;stroke:#000000;stroke-width:3.02703261;stroke-linecap:round;stroke-linejoin:round;stroke-miterlimit:4;stroke-opacity:0;stroke-dasharray:none;stroke-dashoffset:0" />
    <rect
       width="808.8194"
       height="4.3869796"
       rx="6.4678326"
       ry="2.4733253"
       x="4264.1274"
       y="-900.38129"
       transform="matrix(0.97810726,0.20810141,-0.2719142,0.9623215,0,0)"
       id="rect4313-8"
       style="fill:#ffffff;fill-opacity:1;fill-rule:evenodd;stroke:#000000;stroke-width:3.09154344;stroke-linecap:round;stroke-linejoin:round;stroke-miterlimit:4;stroke-opacity:0;stroke-dasharray:none;stroke-dashoffset:0" />
    <rect
       width="791.94189"
       height="4.2954369"
       rx="6.3328691"
       ry="2.4217145"
       x="4337.5693"
       y="-925.67786"
       transform="matrix(0.97810726,0.20810141,-0.2719142,0.9623215,0,0)"
       id="rect4313-9"
       style="fill:#ffffff;fill-opacity:1;fill-rule:evenodd;stroke:#000000;stroke-width:3.02703261;stroke-linecap:round;stroke-linejoin:round;stroke-miterlimit:4;stroke-opacity:0;stroke-dasharray:none;stroke-dashoffset:0" />
    <rect
       width="791.94189"
       height="4.2954369"
       rx="6.3328691"
       ry="2.4217145"
       x="4378.4546"
       y="-954.41626"
       transform="matrix(0.97810726,0.20810141,-0.2719142,0.9623215,0,0)"
       id="rect4313-2"
       style="fill:#ffffff;fill-opacity:1;fill-rule:evenodd;stroke:#000000;stroke-width:3.02703261;stroke-linecap:round;stroke-linejoin:round;stroke-miterlimit:4;stroke-opacity:0;stroke-dasharray:none;stroke-dashoffset:0" />
    <rect
       width="791.94189"
       height="4.2954369"
       rx="6.3328691"
       ry="2.4217145"
       x="4452.6274"
       y="-983.57495"
       transform="matrix(0.97810726,0.20810141,-0.2719142,0.9623215,0,0)"
       id="rect4313-79"
       style="fill:#ffffff;fill-opacity:1;fill-rule:evenodd;stroke:#000000;stroke-width:3.02703261;stroke-linecap:round;stroke-linejoin:round;stroke-miterlimit:4;stroke-opacity:0;stroke-dasharray:none;stroke-dashoffset:0" />
    <rect
       width="791.94189"
       height="4.2954369"
       rx="6.3328691"
       ry="2.4217145"
       x="4506.5552"
       y="-1009.6674"
       transform="matrix(0.97810726,0.20810141,-0.2719142,0.9623215,0,0)"
       id="rect4313-54"
       style="fill:#ffffff;fill-opacity:1;fill-rule:evenodd;stroke:#000000;stroke-width:3.02703261;stroke-linecap:round;stroke-linejoin:round;stroke-miterlimit:4;stroke-opacity:0;stroke-dasharray:none;stroke-dashoffset:0" />
    <rect
       width="791.94189"
       height="4.2954369"
       rx="6.3328691"
       ry="2.4217145"
       x="4585.7402"
       y="-1035.9744"
       transform="matrix(0.97810726,0.20810141,-0.2719142,0.9623215,0,0)"
       id="rect4313-3"
       style="fill:#ffffff;fill-opacity:1;fill-rule:evenodd;stroke:#000000;stroke-width:3.02703261;stroke-linecap:round;stroke-linejoin:round;stroke-miterlimit:4;stroke-opacity:0;stroke-dasharray:none;stroke-dashoffset:0" />
    <rect
       width="791.94189"
       height="4.2954369"
       rx="6.3328691"
       ry="2.4217145"
       x="-4996.5884"
       y="987.32404"
       transform="matrix(-0.97810726,0.20810141,0.2719142,0.9623215,0,0)"
       id="rect4313-12"
       style="fill:#ffffff;fill-opacity:1;fill-rule:evenodd;stroke:#000000;stroke-width:3.02703261;stroke-linecap:round;stroke-linejoin:round;stroke-miterlimit:4;stroke-opacity:0;stroke-dasharray:none;stroke-dashoffset:0" />
    <rect
       width="791.94189"
       height="4.2954369"
       rx="6.3328691"
       ry="2.4217145"
       x="-4765.7905"
       y="1017.1185"
       transform="matrix(-0.97810726,0.20810141,0.2719142,0.9623215,0,0)"
       id="rect4313-12-1"
       style="fill:#ffffff;fill-opacity:1;fill-rule:evenodd;stroke:#000000;stroke-width:3.02703261;stroke-linecap:round;stroke-linejoin:round;stroke-miterlimit:4;stroke-opacity:0;stroke-dasharray:none;stroke-dashoffset:0" />
    <rect
       width="791.94189"
       height="4.2954369"
       rx="6.3328691"
       ry="2.4217145"
       x="-4892.8198"
       y="1053.8649"
       transform="matrix(-0.97810726,0.20810141,0.2719142,0.9623215,0,0)"
       id="rect4313-12-13"
       style="fill:#ffffff;fill-opacity:1;fill-rule:evenodd;stroke:#000000;stroke-width:3.02703261;stroke-linecap:round;stroke-linejoin:round;stroke-miterlimit:4;stroke-opacity:0;stroke-dasharray:none;stroke-dashoffset:0" />
    <rect
       width="823.03204"
       height="4.4640679"
       rx="6.5814857"
       ry="2.5167866"
       x="-5009.373"
       y="1095.7908"
       transform="matrix(-0.97810726,0.20810141,0.2719142,0.9623215,0,0)"
       id="rect4313-12-8"
       style="fill:#ffffff;fill-opacity:1;fill-rule:evenodd;stroke:#000000;stroke-width:3.1458683;stroke-linecap:round;stroke-linejoin:round;stroke-miterlimit:4;stroke-opacity:0;stroke-dasharray:none;stroke-dashoffset:0" />
    <rect
       width="791.94189"
       height="4.2954369"
       rx="6.3328691"
       ry="2.4217145"
       x="-5080.9648"
       y="1139.0781"
       transform="matrix(-0.97810726,0.20810141,0.2719142,0.9623215,0,0)"
       id="rect4313-12-7"
       style="fill:#ffffff;fill-opacity:1;fill-rule:evenodd;stroke:#000000;stroke-width:3.02703261;stroke-linecap:round;stroke-linejoin:round;stroke-miterlimit:4;stroke-opacity:0;stroke-dasharray:none;stroke-dashoffset:0" />
    <rect
       width="791.94189"
       height="4.2954369"
       rx="6.3328691"
       ry="2.4217145"
       x="-5150.6284"
       y="1178.2615"
       transform="matrix(-0.97810726,0.20810141,0.2719142,0.9623215,0,0)"
       id="rect4313-12-4"
       style="fill:#ffffff;fill-opacity:1;fill-rule:evenodd;stroke:#000000;stroke-width:3.02703261;stroke-linecap:round;stroke-linejoin:round;stroke-miterlimit:4;stroke-opacity:0;stroke-dasharray:none;stroke-dashoffset:0" />
    <rect
       width="791.94189"
       height="4.2954369"
       rx="6.3328691"
       ry="2.4217145"
       x="-5231.5498"
       y="1219.8795"
       transform="matrix(-0.97810726,0.20810141,0.2719142,0.9623215,0,0)"
       id="rect4313-12-2"
       style="fill:#ffffff;fill-opacity:1;fill-rule:evenodd;stroke:#000000;stroke-width:3.02703261;stroke-linecap:round;stroke-linejoin:round;stroke-miterlimit:4;stroke-opacity:0;stroke-dasharray:none;stroke-dashoffset:0" />
    <g
       transform="matrix(1.1717125,0,0,1.1717125,4104.9101,-813.33654)"
       id="g22768">
      <path
         d="m 18.182746,825.07786 c 0,-12.12183 0,-79.80205 0,-79.80205 l 66.670068,0 0,-380.82751 23.372396,-40.48218 31.60839,18.24911 c 0,0 3.9192,-21.12498 5.79511,-21.62763 1.8759,-0.50264 39.11135,22.58096 39.11135,22.58096 l 0,373.82298 21.33106,0 0,45.45686 25.25381,0 0,-386.88842 95.96449,41.41625 0,410.12194 z"
         id="path22692"
         style="fill:#000000;stroke:#000000;stroke-width:1px;stroke-linecap:butt;stroke-linejoin:miter;stroke-opacity:1" />
      <rect
         width="81.822357"
         height="32.324883"
         x="169.70563"
         y="659.41284"
         id="rect22694"
         style="opacity:0.95;fill:#000000;fill-opacity:1;stroke:none" />
      <rect
         width="94.954338"
         height="24.243662"
         x="166.67517"
         y="515.97119"
         id="rect22696"
         style="opacity:0.95;fill:#000000;fill-opacity:1;stroke:none" />
    </g>
    <path
       d="M 3.4513509,204.40897 C 2007.9942,26.22454 3702.523,82.91281 5311.5091,204.40897 l 0,0 0,189.14625 0,0 -5308.0577491,0 0,0 0,-189.14625 z"
       id="rect5223"
       style="fill:#000000;fill-opacity:1;fill-rule:evenodd;stroke:#000000;stroke-width:6.90270185;stroke-linecap:round;stroke-linejoin:round;stroke-miterlimit:4;stroke-opacity:0;stroke-dashoffset:0" />
    <g
       transform="matrix(7.4543386,0,0,7.4543386,-2506.1406,-1205.7591)"
       id="g3905">
      <g
         transform="translate(203.57143,-128.57143)"
         id="g3896">
        <path
           d="m 166.07143,316.46932 0,-2.85714 -1.69643,0 0,-1.60714 5.08929,-0.89286 0,-3.92857 -1.875,0 0,-0.98214 4.19642,-1.875 0,-2.32143 -2.14285,0 3.57143,-3.03572 0.0893,-1.78571 -1.51786,-0.0893 1.78572,-2.23214 1.875,0 0.0893,-1.875 -2.23214,0 2.05357,-1.69643 1.51786,-0.0893 0.71429,-7.94643 0,33.21428 -11.60715,0"
           id="path3876-7"
           style="fill:#000000;stroke:#000000;stroke-width:1px;stroke-linecap:butt;stroke-linejoin:miter;stroke-opacity:0" />
        <path
           d="m 189.10717,316.46933 0,-2.85714 1.69643,0 0,-1.60714 -5.08929,-0.89286 0,-3.92857 1.875,0 0,-0.98214 -4.19642,-1.875 0,-2.32143 2.14285,0 -3.57143,-3.03572 -0.0893,-1.78571 1.51786,-0.0893 -1.78572,-2.23214 -1.875,0 -0.0893,-1.875 2.23214,0 -2.05357,-1.69643 -1.51786,-0.0893 -0.71429,-7.94643 0,33.21428 11.60715,0"
           id="path3876-8"
           style="fill:#000000;stroke:#000000;stroke-width:1px;stroke-linecap:butt;stroke-linejoin:miter;stroke-opacity:0" />
      </g>
      <g
         id="g3902">
        <path
           d="m 384.375,187.71932 -6.78571,0 3.48214,-27.32143 z"
           id="path3900"
           style="fill:#000000;stroke:#000000;stroke-width:1px;stroke-linecap:butt;stroke-linejoin:miter;stroke-opacity:0" />
      </g>
    </g>
    <path
       d="m 3214.6661,-30.99166 19.166,0 0,-72.19221 5.7499,-0.63945 -0.6389,-26.83229 4.4722,0 3.8333,-40.88846 5.1106,58.77665 8.3055,12.13842 -0.6389,53.66515 12.7777,17.24991 0,-97.74735 -8.6134,0 20.4281,-18.83152 0.9422,-3.51463 -17.868,0 c -0.2071,-12.37895 10.2194,-33.31362 33.2187,-33.21858 l -0.06,-12.25633 -11.7918,-0.39306 0.1062,-10.54389 10.4706,0 0,-46.4423 10.2217,0 0,46.63765 11.4999,0 0,10.86069 -11.4999,0 0,12.13841 c 22.8057,0.11147 32.5963,20.9511 32.5826,32.58265 l -17.8883,0 1.523,5.68466 17.4794,17.4787 -9.4197,0 0,99.50086 34.5988,19.97549 0,27.93989 -151.5125,0 z"
       id="path4002"
       style="fill:#000000;stroke:#000000;stroke-width:5.11098957px;stroke-linecap:butt;stroke-linejoin:miter;stroke-opacity:0" />
    <g
       transform="matrix(5.8665189,0,0,5.8665189,-564.55713,-8016.4893)"
       id="g25041">
      <g
         transform="matrix(1.8548022,0,0,1.8548022,-415.04719,256.14287)"
         id="g4193">
        <path
           d="m 620.65625,601.08093 c 1.72917,-9.29167 21.59689,-0.44094 15.53439,4.89239 2.78392,-0.94321 4.57124,-1.24302 6.24686,-5.98614 -5.96706,-4.87952 -9.46522,-9.9136 -12.4375,-15.625 -2.38645,7.79421 -5.83546,11.73117 -11.71875,13.03125 0.36475,2.47458 1.0649,3.52957 2.375,3.6875 z"
           id="path4122"
           style="fill:#000000;stroke:#000000;stroke-width:1px;stroke-linecap:butt;stroke-linejoin:miter;stroke-opacity:0" />
        <rect
           width="45.995872"
           height="1.282115"
           x="-114.14388"
           y="847.69995"
           transform="matrix(0.61429919,-0.78907319,0.78907319,0.61429919,0,0)"
           id="rect4124"
           style="fill:#000000;fill-opacity:1;fill-rule:evenodd;stroke:#000000;stroke-width:1.28211498;stroke-linecap:round;stroke-linejoin:round;stroke-miterlimit:4;stroke-opacity:0;stroke-dasharray:none;stroke-dashoffset:0" />
        <rect
           width="35.875"
           height="1"
           x="-325.8801"
           y="800.06146"
           transform="matrix(0.38370336,-0.9234564,0.9234564,0.38370336,0,0)"
           id="rect4124-2"
           style="fill:#000000;fill-opacity:1;fill-rule:evenodd;stroke:#000000;stroke-width:1;stroke-linecap:round;stroke-linejoin:round;stroke-miterlimit:4;stroke-opacity:0;stroke-dasharray:none;stroke-dashoffset:0" />
        <rect
           width="11.917356"
           height="0.99990815"
           x="-665.83618"
           y="520.6402"
           transform="matrix(-0.17103734,-0.98526455,0.9911179,-0.13298614,0,0)"
           id="rect4124-2-7"
           style="fill:#000000;fill-opacity:1;fill-rule:evenodd;stroke:#000000;stroke-width:0.57633376;stroke-linecap:round;stroke-linejoin:round;stroke-miterlimit:4;stroke-opacity:0;stroke-dasharray:none;stroke-dashoffset:0" />
        <path
           d="m 487.125,489.04968 a 1.9375,1.9375 0 1 1 -3.875,0 1.9375,1.9375 0 1 1 3.875,0 z"
           transform="matrix(0.69230769,0,0,0.69230769,291.91346,236.66433)"
           id="path4162"
           style="fill:#000000;fill-opacity:1;fill-rule:evenodd;stroke:#000000;stroke-width:1;stroke-linecap:round;stroke-linejoin:round;stroke-miterlimit:4;stroke-opacity:0;stroke-dasharray:none;stroke-dashoffset:0" />
        <path
           d="m 590.71231,610.63371 3.69846,12.03154 66.94239,0.10355 4.70024,-13.38996 -33.39263,-5.1505 c -7.36784,-4.68204 -13.98916,-6.90881 -18.47769,-2.12078 -13.1839,10.74686 -17.12969,8.72781 -23.47077,8.52615 z"
           id="path4164-5"
           style="fill:#000000;stroke:#000000;stroke-width:1px;stroke-linecap:butt;stroke-linejoin:miter;stroke-opacity:1" />
        <path
           d="m 637.89918,605.22642 c 1.72917,-9.29167 21.59689,-0.44094 15.53439,4.89239 2.78392,-0.94321 4.57124,-1.24302 6.24686,-5.98614 -5.96706,-4.87952 -9.46522,-9.9136 -12.4375,-15.625 -2.38645,7.79421 -5.01712,11.15352 -10.90041,12.4536 2.00143,0.21211 1.49814,2.66309 1.55666,4.26515 z"
           id="path4122-6"
           style="fill:#000000;stroke:#000000;stroke-width:1px;stroke-linecap:butt;stroke-linejoin:miter;stroke-opacity:0" />
        <rect
           width="35.875"
           height="1"
           x="139.89853"
           y="848.76422"
           transform="matrix(0.80522578,-0.59296833,0.59296833,0.80522578,0,0)"
           id="rect4124-1"
           style="fill:#000000;fill-opacity:1;fill-rule:evenodd;stroke:#000000;stroke-width:1;stroke-linecap:round;stroke-linejoin:round;stroke-miterlimit:4;stroke-opacity:0;stroke-dasharray:none;stroke-dashoffset:0" />
        <rect
           width="11.917356"
           height="0.99990815"
           x="-672.24268"
           y="536.93207"
           transform="matrix(-0.17103734,-0.98526455,0.9911179,-0.13298614,0,0)"
           id="rect4124-2-7-4"
           style="fill:#000000;fill-opacity:1;fill-rule:evenodd;stroke:#000000;stroke-width:0.57633376;stroke-linecap:round;stroke-linejoin:round;stroke-miterlimit:4;stroke-opacity:0;stroke-dasharray:none;stroke-dashoffset:0" />
        <path
           d="m 487.125,489.04968 a 1.9375,1.9375 0 1 1 -3.875,0 1.9375,1.9375 0 1 1 3.875,0 z"
           transform="matrix(0.69230769,0,0,0.69230769,309.15639,240.80982)"
           id="path4162-2"
           style="fill:#000000;fill-opacity:1;fill-rule:evenodd;stroke:#000000;stroke-width:1;stroke-linecap:round;stroke-linejoin:round;stroke-miterlimit:4;stroke-opacity:0;stroke-dasharray:none;stroke-dashoffset:0" />
      </g>
    </g>
    <g
       transform="matrix(7.9224135,0,0,7.9224135,1983.5975,-1389.0896)"
       id="g4903">
      <g
         transform="translate(-413.13412,-376.01934)"
         id="g4118">
        <path
           d="m 608.75,564.36218 1.25,-73 -0.875,-0.5625 -0.0312,-0.8125 -3.0625,0.0312 -0.0625,-1.15625 2.0625,-0.0625 0,-2.03125 -2,0.0625 -0.0312,-1.875 1.34375,0 0,-2.1875 -1.34375,-0.0312 0,-0.8125 1.1875,0.0312 0.0312,-1.0625 c 0,0 3.84375,0.1875 3.8125,0.0625 -0.0312,-0.125 -0.0625,-0.96875 -0.0625,-0.96875 l -2.625,-2.1875 -2.40625,-0.0312 0.0937,-6.875 c 0,0 1.03125,0.0937 1,-0.0312 -0.0312,-0.125 -0.0625,-0.96875 -0.0625,-0.96875 l 3.96875,0.0312 0.0937,-3.03125 -2.0625,0.0312 -1,-1.625 0.0625,-0.46875 3,0.0625 1.28125,-36.09375 0.6875,136.3125 z"
           id="path4098"
           style="fill:#000000;stroke:#000000;stroke-width:1px;stroke-linecap:butt;stroke-linejoin:miter;stroke-opacity:0" />
        <path
           d="m 615.52053,564.73945 -0.875,-73.25 0.875,-0.5625 0.0312,-0.8125 3.0625,0.0312 0.0625,-1.15625 -2.0625,-0.0625 0,-2.03125 2,0.0625 0.0312,-1.875 -1.34375,0 0,-2.1875 1.34375,-0.0312 0,-0.8125 -1.1875,0.0312 -0.0312,-1.0625 c 0,0 -3.84375,0.1875 -3.8125,0.0625 0.0312,-0.125 0.0625,-0.96875 0.0625,-0.96875 l 2.625,-2.1875 2.40625,-0.0312 -0.0937,-6.875 c 0,0 -1.03125,0.0937 -1,-0.0312 0.0312,-0.125 0.0625,-0.96875 0.0625,-0.96875 l -3.96875,0.0312 -0.0937,-3.03125 2.0625,0.0312 1,-1.625 -0.0625,-0.46875 -3,0.0625 -1.28125,-36.09375 -0.6875,136.3125 z"
           id="path4098-5"
           style="fill:#000000;stroke:#000000;stroke-width:1px;stroke-linecap:butt;stroke-linejoin:miter;stroke-opacity:0" />
      </g>
      <path
         d="m 194.80792,110.76112 8.83883,0 c -3.4499,-2.43058 -6.47151,-1.7056 -8.83883,0 z"
         id="path4863"
         style="fill:#ffffff;stroke:#000000;stroke-width:1px;stroke-linecap:butt;stroke-linejoin:miter;stroke-opacity:0" />
      <path
         d="m 194.71953,108.00698 8.83883,0 c -3.4499,-2.43058 -6.47151,-1.7056 -8.83883,0 z"
         id="path4863-6"
         style="fill:#ffffff;stroke:#000000;stroke-width:1px;stroke-linecap:butt;stroke-linejoin:miter;stroke-opacity:0" />
      <rect
         width="15.307793"
         height="1.1490486"
         rx="2.2193921"
         ry="0.93667924"
         x="191.8027"
         y="98.563522"
         id="rect4883"
         style="fill:#ffffff;fill-opacity:1;fill-rule:evenodd;stroke:#000000;stroke-width:1.18181074;stroke-linecap:round;stroke-linejoin:round;stroke-miterlimit:4;stroke-opacity:0;stroke-dasharray:none;stroke-dashoffset:0" />
      <rect
         width="15.614407"
         height="1.1490486"
         rx="2.2638464"
         ry="0.93667924"
         x="191.8911"
         y="96.044456"
         id="rect4883-6"
         style="fill:#ffffff;fill-opacity:1;fill-rule:evenodd;stroke:#000000;stroke-width:1.1935879;stroke-linecap:round;stroke-linejoin:round;stroke-miterlimit:4;stroke-opacity:0;stroke-dasharray:none;stroke-dashoffset:0" />
    </g>
    <path
       d="m 1502.9623,162.23475 -0.049,-137.96106 18.6952,-162.70008 12.3149,-15.02858 2.9195,-253.50935 -2.9195,-3.7452 c 1.3205,-74.97202 81.9388,-77.73372 86.2042,0 l -3.0425,6.19364 3.0425,232.49613 18.1482,38.36035 9.3792,0 4.0566,-265.78564 -4.0566,-7.72828 c -1.4742,-77.27386 87.4868,-81.42683 89.8262,0 l -4.0567,10.77086 4.0567,171.34047 9.0741,19.18025 0,79.83184 114.6713,-1.75037 189.1976,1.75037 52.6103,82.72205 33.0548,51.00758 14.3029,41.30954 0,113.15664 z"
       id="path2996-3"
       style="fill:#000000;stroke:#000000;stroke-width:8.96280193px;stroke-linecap:butt;stroke-linejoin:miter;stroke-opacity:0" />
    <rect
       width="5.3369355"
       height="29.625753"
       x="1573.9235"
       y="-486.97586"
       id="rect3000"
       style="fill:#000000;fill-opacity:1;fill-rule:evenodd;stroke:#7c916f;stroke-width:18.30365372;stroke-linecap:round;stroke-linejoin:round;stroke-miterlimit:4;stroke-opacity:0;stroke-dasharray:none;stroke-dashoffset:0" />
    <rect
       width="5.3369355"
       height="27.920202"
       x="1689.8668"
       y="-484.37799"
       id="rect3000-7"
       style="fill:#000000;fill-opacity:1;fill-rule:evenodd;stroke:#7c916f;stroke-width:17.76897621;stroke-linecap:round;stroke-linejoin:round;stroke-miterlimit:4;stroke-opacity:0;stroke-dasharray:none;stroke-dashoffset:0" />
    <path
       d="m 1357.1982,124.6647 0,-83.32013 -8.332,0 1.4506,-5.41403 7.8072,0 0,-17.26756 -6.9434,0 0,-3.70309 -5.414,-1.45069 0,-5.49268 52.6287,0 0,-16.20113 9.0264,9.02634 3.9345,0 0,-18.28411 4.629,4.62886 3.7031,-12.96091 0,150.90199 z"
       id="path3811-5"
       style="fill:#000000;stroke:#000000;stroke-width:5.18436337px;stroke-linecap:butt;stroke-linejoin:miter;stroke-opacity:0" />
    <path
       d="m 1372.4735,113.06215 0,-24.11771 c 0,-11.02657 16.9261,-13.37924 18.5156,0 l 0,26.46249 -18.5156,0 z"
       id="path3813"
       style="fill:#de2c68;fill-opacity:1;stroke:#000000;stroke-width:4.41020489px;stroke-linecap:butt;stroke-linejoin:miter;stroke-opacity:0" />
    <path
       d="m 1481.7707,124.4875 0,-83.32013 8.3321,0 -1.4507,-5.41404 -7.8071,0 0,-17.26755 6.9433,0 0,-3.70309 5.4141,-1.45069 0,-5.49268 -52.6288,0 0,-16.20113 -9.0264,9.02634 -3.9345,0 0,-18.28411 -4.6289,4.62886 -3.7032,-12.96091 0,150.90199 z"
       id="path3811-0"
       style="fill:#000000;stroke:#000000;stroke-width:5.18436337px;stroke-linecap:butt;stroke-linejoin:miter;stroke-opacity:0" />
    <path
       d="m 1452.5534,113.29026 0,-24.11771 c 0,-11.02657 16.9261,-13.37924 18.5156,0 l 0,26.46249 -18.5156,0 z"
       id="path3813-9"
       style="fill:#de2c68;fill-opacity:1;stroke:#000000;stroke-width:4.41020489px;stroke-linecap:butt;stroke-linejoin:miter;stroke-opacity:0" />
    <path
       d="m 1401.5724,112.93295 0,-35.82628 c 0,-21.93437 39.98,-21.2632 40.1899,0 l 0,39.3094 -40.1899,0 z"
       id="path3813-9-4"
       style="fill:#de2c68;fill-opacity:1;stroke:#000000;stroke-width:7.91919184px;stroke-linecap:butt;stroke-linejoin:miter;stroke-opacity:0" />
    <path
       d="m 1428.9656,56.48876 -21.2754,-0.65463 7.8556,-70.04485 2.9458,-8.83742 4.9097,11.45589 z"
       id="path3912-3"
       style="fill:#000000;stroke:#000000;stroke-width:5.18436337px;stroke-linecap:butt;stroke-linejoin:miter;stroke-opacity:0" />
    <rect
       width="115.83092"
       height="2.4200034"
       x="1361.0315"
       y="-27.341583"
       transform="scale(1,-1)"
       id="rect4951-1"
       style="fill:#ffffff;fill-opacity:1;fill-rule:evenodd;stroke:#000000;stroke-width:4.33136272;stroke-linecap:round;stroke-linejoin:round;stroke-miterlimit:4;stroke-opacity:0;stroke-dasharray:none;stroke-dashoffset:0" />
    <path
       d="m 2629.6064,-26.16593 0,-14.02361 -1.1787,-2.0416 -0.3631,-0.62883 4.3465,0 c 5.0709,-7.53142 9.6282,-5.30437 14.0235,0 l 4.717,0 -1.4602,2.52915 0,15.82214 c 3.0875,-0.51571 3.7324,1.41094 4.8913,2.82396 l 0,5.20767 -31.8606,0 0,-5.35442 c 0.461,-3.50922 3.2864,-4.35675 6.8843,-4.33446 z"
       id="path11790"
       style="fill:#000000;stroke:#000000;stroke-width:1.33257508px;stroke-linecap:butt;stroke-linejoin:miter;stroke-opacity:1" />
    <path
       d="m 2671.8101,-26.16593 0,-14.02361 -1.1787,-2.0416 -0.3631,-0.62883 4.3465,0 c 5.0709,-7.53142 9.6282,-5.30437 14.0236,0 l 4.7169,0 -1.4601,2.52915 0,15.82214 c 3.0874,-0.51571 3.7324,1.41094 4.8912,2.82396 l 0,5.20767 -31.8606,0 0,-5.35442 c 0.461,-3.50922 3.2864,-4.35675 6.8843,-4.33446 z"
       id="path11790-3"
       style="fill:#000000;stroke:#000000;stroke-width:1.33257508px;stroke-linecap:butt;stroke-linejoin:miter;stroke-opacity:1" />
    <path
       d="m 2708.0163,-26.16593 0,-14.02361 -1.1787,-2.0416 -0.3631,-0.62883 4.3465,0 c 5.0709,-7.53142 9.6282,-5.30437 14.0235,0 l 4.717,0 -1.4602,2.52915 0,15.82214 c 3.0875,-0.51571 3.7324,1.41094 4.8913,2.82396 l 0,5.20767 -31.8606,0 0,-5.35442 c 0.461,-3.50922 3.2864,-4.35675 6.8843,-4.33446 z"
       id="path11790-7"
       style="fill:#000000;stroke:#000000;stroke-width:1.33257508px;stroke-linecap:butt;stroke-linejoin:miter;stroke-opacity:1" />
    <path
       d="m 2572.9753,-49.72958 0,-18.3741 -1.5442,-2.67461 -0.4757,-0.82406 5.6942,0 c 6.6434,-9.86795 12.6139,-6.9499 18.3722,0 l 6.1797,0 -1.9131,3.31386 0,20.73031 c 4.0448,-0.67549 4.8899,1.84884 6.408,3.70015 l 0,6.82322 -41.7401,0 0,-7.01558 c 0.6039,-4.59773 4.3054,-5.70813 9.019,-5.67919 z"
       id="path11790-6"
       style="fill:#000000;stroke:#000000;stroke-width:1.33257473px;stroke-linecap:butt;stroke-linejoin:miter;stroke-opacity:1" />
    <path
       d="m 2487.4587,-11.98255 c 9.7055,-3.54858 18.1907,-9.90405 21.1628,-28.93944 l -3.4422,-4.46205 30.8518,0 -2.6651,4.6161 c 3.4001,10.4934 5.7385,21.83602 15.6554,27.11602 z"
       id="path11824"
       style="fill:#000000;stroke:#000000;stroke-width:1.33257508px;stroke-linecap:butt;stroke-linejoin:miter;stroke-opacity:1" />
    <path
       d="m 2791.0376,-24.79605 0,-14.02361 -2.122,-2.04146 -0.6538,-0.62897 7.8248,0 c 9.1293,-7.53142 17.3334,-5.30424 25.2463,0 l 8.492,0 -2.6287,2.52929 0,15.822 c 5.5581,-0.5157 6.7194,1.41107 8.8056,2.82396 l 0,5.20767 -57.358,0 0,-5.35442 c 0.8298,-3.50909 5.9164,-4.35662 12.3938,-4.33446 z"
       id="path11790-3-9"
       style="fill:#000000;stroke:#000000;stroke-width:1.33257508px;stroke-linecap:butt;stroke-linejoin:miter;stroke-opacity:1" />
    <path
       d="m 2847.8636,109.51227 0,-118.81761 -5.3544,0 0,-5.09949 -4.3346,0 0.6716,-2.50635 -59.0604,0 0,-10.24225 -6.3744,0 0,-14.02361 -11.7287,0 0,-9.94393 -5.0995,0 0,8.92411 -20.1429,0 0,23.96741 -5.2508,-1.4069 -112.292,0 0,-22.30559 -1.7927,-0.48039 0,-7.42377 -4.8366,0 0,3.82449 2.2685,0.60785 0,6.27649 -9.6627,0 -46.4052,0 -4.3345,0 0,-8.41413 -6.8843,0 0,32.38167 -59.9188,0 0,-16.57335 -63.4883,0 0,21.16287 -5.6095,0 2.8627,4.95821 0,76.37823 -3.3437,3.34371 0,35.15728 z"
       id="path11844"
       style="fill:#000000;stroke:#000000;stroke-width:1.33257508px;stroke-linecap:butt;stroke-linejoin:miter;stroke-opacity:1" />
    <rect
       width="7.9306898"
       height="10.17529"
       x="2649.5923"
       y="-13.525337"
       id="rect11846-8-30-8-4-4"
       style="fill:#000000;fill-opacity:1;fill-rule:evenodd;stroke:none" />
    <rect
       width="7.9306898"
       height="10.17529"
       x="2636.7048"
       y="-13.525337"
       id="rect11846-8-30-8-8-5-79"
       style="fill:#000000;fill-opacity:1;fill-rule:evenodd;stroke:none" />
    <rect
       width="7.9306898"
       height="10.17529"
       x="2623.4871"
       y="-13.525337"
       id="rect11846-8-30-8-86-1-5"
       style="fill:#000000;fill-opacity:1;fill-rule:evenodd;stroke:none" />
    <rect
       width="7.6492023"
       height="11.384397"
       x="2665.8125"
       y="-14.129898"
       id="rect11846-8-30-8-4-2-7"
       style="fill:#000000;fill-opacity:1;fill-rule:evenodd;stroke:none" />
    <rect
       width="7.6492023"
       height="14.699051"
       x="2678.3064"
       y="-15.787323"
       id="rect11846-8-30-8-4-2-7-2"
       style="fill:#000000;fill-opacity:1;fill-rule:evenodd;stroke:none" />
    <rect
       width="7.6492023"
       height="11.384397"
       x="2691.0549"
       y="-14.129898"
       id="rect11846-8-30-8-4-2-7-4"
       style="fill:#000000;fill-opacity:1;fill-rule:evenodd;stroke:none" />
    <rect
       width="7.6492023"
       height="11.384397"
       x="-2736.4558"
       y="-14.129898"
       transform="scale(-1,1)"
       id="rect11846-8-30-8-4-2-7-95"
       style="fill:#000000;fill-opacity:1;fill-rule:evenodd;stroke:none" />
    <rect
       width="7.6492023"
       height="14.699051"
       x="-2723.9622"
       y="-15.787323"
       transform="scale(-1,1)"
       id="rect11846-8-30-8-4-2-7-2-2"
       style="fill:#000000;fill-opacity:1;fill-rule:evenodd;stroke:none" />
    <rect
       width="7.6492023"
       height="11.384397"
       x="-2711.2136"
       y="-14.129898"
       transform="scale(-1,1)"
       id="rect11846-8-30-8-4-2-7-4-2"
       style="fill:#000000;fill-opacity:1;fill-rule:evenodd;stroke:none" />
    <path
       d="m 963.11968,137.18186 0,-46.80842 32.02688,0 0,-96.08057 -7.39081,0 0,-7.39081 8.62263,0 0,-157.67054 -7.51163,-2.01274 0,-6.6099 9.97521,0 6.40654,-23.90957 4.6797,-0.43551 0,-56.9538 c -2.055,-26.76267 40.2078,-33.55743 43.113,0 l 0,61.59004 c 1.8477,7e-5 4.3113,-0.61598 4.3113,-0.61598 l 3.6954,20.63268 8.6226,0.30799 0,8.31464 -7.6987,-0.30799 -0.616,144.12075 9.8544,0 18.477,-18.47702 0,-55.43106 -4.9051,-1.31433 0,-12.23546 6.1369,0 0,-27.09965 8.661,-2.32066 9.5515,16.54385 10.1967,2.73213 30.3799,-17.53981 0,-14.19713 7.5184,2.01463 0,-20.49165 5.137,0 0,319.03656 -195.85641,0"
       id="path4004"
       style="fill:#000000;stroke:#000000;stroke-width:6.96812153px;stroke-linecap:butt;stroke-linejoin:miter;stroke-opacity:0" />
    <rect
       width="49.212357"
       height="5.6615987"
       x="1006.8234"
       y="-250.979"
       id="rect4006"
       style="fill:#000000;fill-opacity:1;fill-rule:evenodd;stroke:#000000;stroke-width:6.96812153;stroke-linecap:round;stroke-linejoin:round;stroke-miterlimit:4;stroke-opacity:0;stroke-dasharray:none;stroke-dashoffset:0" />
    <rect
       width="49.212357"
       height="5.6615987"
       x="1007.0411"
       y="-232.90543"
       id="rect4006-4"
       style="fill:#000000;fill-opacity:1;fill-rule:evenodd;stroke:#000000;stroke-width:6.96812153;stroke-linecap:round;stroke-linejoin:round;stroke-miterlimit:4;stroke-opacity:0;stroke-dasharray:none;stroke-dashoffset:0" />
    <rect
       width="5.0083375"
       height="25.694948"
       x="1029.6875"
       y="-306.94171"
       id="rect4026"
       style="fill:#000000;fill-opacity:1;fill-rule:evenodd;stroke:#000000;stroke-width:6.96812153;stroke-linecap:round;stroke-linejoin:round;stroke-miterlimit:4;stroke-opacity:0;stroke-dasharray:none;stroke-dashoffset:0" />
    <path
       d="m 1360.2413,137.21646 0,-46.80842 -32.0269,0 0,-96.08057 7.3908,0 0,-7.39081 -8.6226,0 0,-157.67054 7.5117,-2.01274 0,-6.6099 -9.9753,0 -6.4065,-23.90957 -4.6797,-0.43551 0,-56.9538 c 2.055,-26.76267 -40.2078,-33.55743 -43.113,0 l 0,61.59004 c -1.8477,7e-5 -4.3113,-0.61598 -4.3113,-0.61598 l -3.6954,20.63268 -8.6226,0.30799 0,8.31464 7.6987,-0.30799 0.616,144.12075 -9.8544,0 -18.477,-18.47702 0,-55.43106 4.9051,-1.31433 0,-12.23546 -6.1369,0 0,-27.09965 -8.661,-2.32066 -9.5515,16.54385 -10.1967,2.73213 -30.3799,-17.53981 0,-14.19713 -7.5184,2.01463 0,-20.49165 -5.137,0 0,319.03656 195.8564,0"
       id="path4004-5"
       style="fill:#000000;stroke:#000000;stroke-width:6.96812153px;stroke-linecap:butt;stroke-linejoin:miter;stroke-opacity:0" />
    <rect
       width="49.212357"
       height="5.6615987"
       x="-1316.5376"
       y="-250.9444"
       transform="scale(-1,1)"
       id="rect4006-1"
       style="fill:#000000;fill-opacity:1;fill-rule:evenodd;stroke:#000000;stroke-width:6.96812153;stroke-linecap:round;stroke-linejoin:round;stroke-miterlimit:4;stroke-opacity:0;stroke-dasharray:none;stroke-dashoffset:0" />
    <rect
       width="49.212357"
       height="5.6615987"
       x="-1316.3198"
       y="-232.87082"
       transform="scale(-1,1)"
       id="rect4006-4-7"
       style="fill:#000000;fill-opacity:1;fill-rule:evenodd;stroke:#000000;stroke-width:6.96812153;stroke-linecap:round;stroke-linejoin:round;stroke-miterlimit:4;stroke-opacity:0;stroke-dasharray:none;stroke-dashoffset:0" />
    <rect
       width="5.0083375"
       height="25.694948"
       x="-1293.6735"
       y="-306.90714"
       transform="scale(-1,1)"
       id="rect4026-1"
       style="fill:#000000;fill-opacity:1;fill-rule:evenodd;stroke:#000000;stroke-width:6.96812153;stroke-linecap:round;stroke-linejoin:round;stroke-miterlimit:4;stroke-opacity:0;stroke-dasharray:none;stroke-dashoffset:0" />
    <path
       d="m 1206.4205,142.42196 -89.9215,0 39.4176,-291.93698 11.0862,0 z"
       id="path4081-3"
       style="fill:#000000;stroke:#000000;stroke-width:6.96812153px;stroke-linecap:butt;stroke-linejoin:miter;stroke-opacity:0" />
    <path
       d="m 1101.5222,177.11025 c 0,-1.34374 0,-58.04 0,-99.39135 0.9308,-23.94485 -4.7705,-42.40697 -15.6376,-42.67202 l -245.69538,0 0,-12.85461 11.59567,-11.59566 -11.1981,0 0,-20.60714 2.83431,-4.90916 0,-7.41536 -10.13176,-2.7148 -10.61298,2.84374 -31.25515,0 -1.89231,-7.06216 4.63573,-4.63571 -4.08439,-1.09441 0,-10.13041 -1.93937,-0.51966 -4.28635,-7.42418 c -1.73882,-21.37564 -9.86138,-37.34967 -29.93699,-43.20957 l -7.02365,-8.87897 0,-9.54156 1.36896,-0.36682 -11.44062,-15.27075 -1.32522,-4.90332 0,-6.7586 1.12406,-0.64899 0,-3.06163 -2.1373,-0.57269 -1.08132,1e-5 -2.13731,0.57272 0,3.06155 1.12406,0.64903 0,6.75858 -1.32522,4.90336 -11.44062,15.27071 1.36896,0.36681 0,9.54159 -7.02365,8.87894 c -20.07561,5.85999 -28.19816,21.83398 -29.93699,43.20964 l -4.28635,7.42419 -1.93936,0.51962 0,10.13038 -4.0844,1.09444 4.63573,4.63572 -1.8923,7.06211 -31.25515,0 -10.61298,-2.84367 -10.13177,2.71479 0,7.41534 2.83431,4.90916 0,20.60714 -11.19809,0 11.59566,11.59566 0,12.85461 -245.69542,0 c -10.86707,0.26505 -16.56833,18.72722 -15.63757,42.672 0,41.35137 0,98.04765 0,99.39135 z"
       id="path22303"
       style="fill:#000000;stroke:#000000;stroke-width:1.04951906px;stroke-linecap:butt;stroke-linejoin:miter;stroke-opacity:1" />
    <g
       transform="matrix(1.0495191,0,0,1.0495191,1230.1162,-813.39521)"
       id="g22651">
      <path
         d="m -486.83644,751.44261 c 0.0303,-20.76581 27.36192,-22.73577 28.14817,0 l 0,0.046 -28.14817,0 z"
         id="rect22323-7-5"
         style="opacity:0.95;fill:#ffffff;fill-opacity:1;stroke:none" />
      <rect
         width="6.5220718"
         height="11.111678"
         x="-516.18793"
         y="740.37695"
         id="rect22406-7-3"
         style="opacity:0.95;fill:#ffffff;fill-opacity:1;stroke:none" />
      <rect
         width="6.5220718"
         height="11.111678"
         x="-435.85886"
         y="740.37695"
         id="rect22406-7-3-5"
         style="opacity:0.95;fill:#ffffff;fill-opacity:1;stroke:none" />
    </g>
    <g
       transform="matrix(1.1717125,0,0,1.1717125,4061.3435,-427.2363)"
       id="g22777">
      <path
         d="m -944.99771,475.56508 45.45686,-17.17259 2.96158,-5.1296 0,-13.05315 -7.50726,0 -1.57051,-5.86123 2.78289,0.74567 -3.63891,-13.58062 41.82248,-5.80002 26.5165,-21.71828 -58.33631,-25.75889 1.76777,-15.9099 350.27039,-25.75889 156.57365,0 c 49.07184,1.30557 66.06194,7.9581 58.58885,18.68782 -25.21,16.24419 -51.3878,32.54214 -53.03301,47.47717 5.01927,33.79057 32.01477,54.61998 48.99239,75.25636 l -160.10917,0.50508 c 24.78925,-27.50631 43.47349,-69.29636 15.15229,-84.85281 -45.40954,-20.87103 -93.87035,-20.38322 -150.00766,33.84011 l -51.51778,2.0203 1.51523,51.51778 z"
         id="path22773"
         style="fill:#000000;stroke:#000000;stroke-width:1px;stroke-linecap:butt;stroke-linejoin:miter;stroke-opacity:1" />
      <path
         d="m -680.33774,426.57268 c 4.02963,-8.63019 218.20394,-3.49155 220.21325,4.54569 0,0 -1.6851,-12.23792 -1.01015,-14.14214 4.00315,-11.29399 -224.58673,-13.39174 -229.30463,-4.54569 z"
         id="path22775"
         style="fill:#000000;stroke:#000000;stroke-width:1px;stroke-linecap:butt;stroke-linejoin:miter;stroke-opacity:1" />
    </g>
    <path
       d="m 3024.3779,-11.02138 c 53.2159,62.41275 221.3764,47.13606 264.4723,32.64057 90.8274,-32.18646 201.9143,-37.55136 345.6552,-49.37932 -218.5959,-7.9294 -428.1564,3.37124 -610.1275,16.73875 z"
       id="path22781"
       style="fill:#ffffff;stroke:#000000;stroke-width:1.17171252px;stroke-linecap:butt;stroke-linejoin:miter;stroke-opacity:1" />
    <path
       d="m 2151.6034,109.10397 0,-55.6128 54.1979,-31.2113 0,-122.57512 5.9062,-4.82356 0,-38.3047 c 7.0623,-3.78383 11.6064,-8.39029 24.6669,-10.21464 l -0.6949,-41.99332 8.3381,0 7.6433,-116.33288 0,423.90572 z"
       id="path3925-1"
       style="fill:#000000;stroke:none" />
    <path
       d="m 2351.6318,109.10397 0,-55.6128 -54.1979,-31.2113 0,-122.57512 -5.9062,-4.82356 0,-38.3047 c -6.6501,-7.25674 -15.451,-9.24425 -24.6669,-10.21464 l 0.6949,-41.99332 -8.3381,0 -7.6433,-116.33288 0,423.90572 z"
       id="path3925-8"
       style="fill:#000000;stroke:none" />
    <path
       d="m 2305.9979,107.06104 -88.5232,-7.94468 27.2379,-253.43547 13.619,0 25.2923,217.68438 z"
       id="path3965-1"
       style="fill:#000000;stroke:none" />
    <path
       d="m 2262.2227,-176.56423 -20.4285,-0.39723 9.7279,-92.55558 6.3231,81.03579 6.3231,13.90319"
       id="path3967"
       style="fill:#000000;stroke:none" />
    <path
       d="m 2139.7665,97.24138 0,-75.64338 5.562,0 0,-25.58526 6.6744,0 8.343,-80.093 7.7869,78.98059 11.6802,0.55621 0,47.83331 135.1569,0.5562 0,-57.84494 7.2306,0 0,-15.01743 -7.7868,0 0,-2.22481 8.0623,-2.16024 0,-8.40758 4.1741,0 7.2307,-18.35465 12.2364,0 0,13.90504 5.0058,5.00581 10.0116,-10.01163 5.0058,0 0,87.32361 7.7868,0 17.5204,-17.52034 1.9467,-38.65599 12.7926,-15.57364 7.2306,-0.5562 6.6745,11.12403 0,66.74416 8.343,-0.5562 -0.5562,72.30617 -288.1123,2.78101 z"
       id="path3990"
       style="fill:#000000;stroke:none" />
    <rect
       width="5314.9604"
       height="848.10364"
       x="1.1368684e-13"
       y="204.25848"
       id="rect4394"
       style="fill:#000000;fill-opacity:1;stroke:#ffffff;stroke-width:0;stroke-miterlimit:4;stroke-opacity:1;stroke-dasharray:none" />
    <text
       x="299.00516"
       y="2697.2649"
       transform="translate(0,-1782.2834)"
       id="text5164"
       xml:space="preserve"
       style="font-size:144px;font-style:normal;font-weight:normal;line-height:125%;letter-spacing:0px;word-spacing:0px;fill:#ffffff;fill-opacity:1;stroke:none;font-family:swiss;-inkscape-font-specification:swiss"><tspan
         x="299.00516"
         y="2697.2649"
         id="tspan5166" /></text>
    <flowRoot
       transform="translate(0,-1782.2834)"
       id="flowRoot5168"
       xml:space="preserve"
       style="font-size:144px;font-style:normal;font-weight:normal;line-height:125%;letter-spacing:0px;word-spacing:0px;fill:#000000;fill-opacity:1;stroke:none;font-family:Swiss 911;-inkscape-font-specification:Swiss 911"><flowRegion
         id="flowRegion5170"><rect
           width="1785.9497"
           height="525.2793"
           x="888.9342"
           y="2301.2849"
           id="rect5172"
           style="font-family:Swiss 911;-inkscape-font-specification:Swiss 911" /></flowRegion><flowPara
         id="flowPara5174" /></flowRoot>    <text
       x="222.80345"
       y="805.90662"
       id="text5176"
       xml:space="preserve"
       style="font-size:783.82647705px;font-style:normal;font-weight:normal;line-height:125%;letter-spacing:0px;word-spacing:0px;fill:#ffffff;fill-opacity:1;stroke:none;font-family:swiss;-inkscape-font-specification:swiss"><tspan
         x="222.80345"
         y="805.90662"
         id="tspan5178"
         style="font-family:Swiss 911;-inkscape-font-specification:Swiss 911">freifunk-muenchen.de</tspan></text>
    <polygon
       points="31,56 37,50 31,44 26,44 30,48 22,48 22,52 30,52 26,56 "
       transform="matrix(-24.844931,0,0,23.54954,4586.0677,-1930.226)"
       id="polygon3113"
       style="fill:#ffcc33;fill-opacity:1" />
    <polygon
       points="75,47 81,41 73,41 64,50 73,59 81,59 75,53 88,53 88,47 "
       transform="matrix(-18.81431,0,0,19.471665,4638.9102,-1726.8312)"
       id="polygon3115"
       style="fill:#ffcc33;fill-opacity:1" />
    <text
       x="181.1156"
       y="-1414.2786"
       id="text5297"
       xml:space="preserve"
       style="font-size:201.59423828px;font-style:normal;font-weight:normal;line-height:125%;letter-spacing:0px;word-spacing:0px;fill:#000000;fill-opacity:1;stroke:none;font-family:swiss;-inkscape-font-specification:swiss"><tspan
         x="181.1156"
         y="-1414.2786"
         id="tspan5301"
         style="font-size:250px;font-family:Swiss 911;-inkscape-font-specification:Swiss 911">Freies Netz...</tspan></text>
    <text
       x="1331.4286"
       y="-1164.7806"
       id="text5389"
       xml:space="preserve"
       style="font-size:144px;font-style:normal;font-weight:normal;line-height:125%;letter-spacing:0px;word-spacing:0px;fill:#000000;fill-opacity:1;stroke:none;font-family:swiss;-inkscape-font-specification:swiss"><tspan
         x="1331.4286"
         y="-1164.7806"
         id="tspan5391"
         style="font-size:250px;font-family:Swiss 911;-inkscape-font-specification:Swiss 911">...von Münchnern...</tspan></text>
    <text
       x="4013.1636"
       y="-1450.495"
       id="text5393"
       xml:space="preserve"
       style="font-size:144px;font-style:normal;font-weight:normal;line-height:125%;letter-spacing:0px;word-spacing:0px;fill:#000000;fill-opacity:1;stroke:none;font-family:swiss;-inkscape-font-specification:swiss"><tspan
         x="4013.1636"
         y="-1450.495"
         id="tspan5395"
         style="font-size:250px;font-family:Swiss 911;-inkscape-font-specification:Swiss 911">...für Münchner</tspan></text>
  </g>
</svg>
