<?xml version="1.0" encoding="UTF-8" standalone="no"?>
<!-- Created with Inkscape (http://www.inkscape.org/) -->

<svg
   xmlns:dc="http://purl.org/dc/elements/1.1/"
   xmlns:cc="http://creativecommons.org/ns#"
   xmlns:rdf="http://www.w3.org/1999/02/22-rdf-syntax-ns#"
   xmlns:svg="http://www.w3.org/2000/svg"
   xmlns="http://www.w3.org/2000/svg"
   xmlns:sodipodi="http://sodipodi.sourceforge.net/DTD/sodipodi-0.dtd"
   xmlns:inkscape="http://www.inkscape.org/namespaces/inkscape"
   width="308.2677"
   height="201.96851"
   id="svg3320"
   version="1.1"
   inkscape:version="0.91 r13725"
   sodipodi:docname="shirt-front.svg"
   inkscape:export-filename="/home/andz/Desktop/shirt-front_ole.png"
   inkscape:export-xdpi="299.89825"
   inkscape:export-ydpi="299.89825">
  <defs
     id="defs3322">
    <linearGradient
       id="linearGradient6506">
      <stop
         id="stop6508"
         offset="0"
         style="stop-color:yellow;stop-opacity:1;" />
      <stop
         style="stop-color:yellow;stop-opacity:1;"
         offset="1"
         id="stop6514" />
      <stop
         id="stop6510"
         offset="1"
         style="stop-color:yellow;stop-opacity:0;" />
    </linearGradient>
    <linearGradient
       id="linearGradient6518">
      <stop
         id="stop6520"
         offset="0"
         style="stop-color:yellow;stop-opacity:1;" />
      <stop
         style="stop-color:yellow;stop-opacity:1;"
         offset="0.99000001"
         id="stop6528" />
      <stop
         id="stop6522"
         offset="1"
         style="stop-color:yellow;stop-opacity:0;" />
    </linearGradient>
  </defs>
  <sodipodi:namedview
     id="base"
     pagecolor="#ffffff"
     bordercolor="#666666"
     borderopacity="1.0"
     inkscape:pageopacity="1"
     inkscape:pageshadow="2"
     inkscape:zoom="2.8"
     inkscape:cx="140.44704"
     inkscape:cy="69.879154"
     inkscape:document-units="mm"
     inkscape:current-layer="layer3"
     showgrid="true"
     units="cm"
     inkscape:window-width="1920"
     inkscape:window-height="1022"
     inkscape:window-x="1920"
     inkscape:window-y="0"
     inkscape:window-maximized="1"
     showguides="true"
     inkscape:guide-bbox="true">
    <inkscape:grid
       type="xygrid"
       id="grid3064"
       empspacing="5"
       visible="true"
       enabled="true"
       snapvisiblegridlinesonly="true"
       units="mm"
       dotted="false"
       spacingx="0.1mm"
       spacingy="0.1mm" />
  </sodipodi:namedview>
  <metadata
     id="metadata3325">
    <rdf:RDF>
      <cc:Work
         rdf:about="">
        <dc:format>image/svg+xml</dc:format>
        <dc:type
           rdf:resource="http://purl.org/dc/dcmitype/StillImage" />
        <dc:title></dc:title>
      </cc:Work>
    </rdf:RDF>
  </metadata>
  <g
     inkscape:label="Layer 1"
     inkscape:groupmode="layer"
     id="layer1"
     transform="translate(0,-850.39237)">
    <g
       transform="matrix(0.94397665,0,0,0.94397665,-202.00602,434.34341)"
       id="layer1-5"
       inkscape:label="Layer 1">
      <g
         id="g3050">
        <g
           id="g3034"
           transform="translate(356.83642,498.18487)">
          <circle
             style="fill:none;stroke:#de2c68;stroke-width:1.14544892;stroke-miterlimit:4;stroke-opacity:1;stroke-dasharray:none"
             sodipodi:ry="22"
             sodipodi:rx="22"
             sodipodi:cy="54"
             sodipodi:cx="36"
             cx="36"
             cy="54"
             r="22"
             transform="matrix(1.477616,0,0,1.5065066,-3.122124,-2.4350016)"
             stroke-miterlimit="4"
             id="circle3036" />
          <circle
             style="fill:none;stroke:#de2c68;stroke-width:1.06239557;stroke-miterlimit:4;stroke-opacity:1;stroke-dasharray:none"
             sodipodi:ry="22"
             sodipodi:rx="22"
             sodipodi:cy="44"
             sodipodi:cx="74"
             cx="74"
             cy="44"
             r="22"
             transform="matrix(1.5950476,0,0,1.6223254,-10.072136,-9.1778182)"
             stroke-miterlimit="4"
             id="circle3038" />
          <circle
             style="fill:none;stroke:#de2c68;stroke-width:5.81192684;stroke-miterlimit:4;stroke-opacity:1;stroke-dasharray:none"
             sodipodi:ry="29"
             sodipodi:rx="29"
             sodipodi:cy="44"
             sodipodi:cx="74"
             cx="74"
             cy="44"
             r="29"
             transform="matrix(1.5831269,0,0,1.5986441,-9.3397104,-8.1360194)"
             stroke-miterlimit="4"
             id="circle3040" />
          <polygon
             style="fill:#ffcc33;fill-opacity:1"
             points="31,44 26,44 30,48 22,48 22,52 30,52 26,56 31,56 37,50 "
             transform="matrix(1.4493674,0,0,1.3737988,-2.70016,2.5042672)"
             id="polygon3042" />
          <polygon
             style="fill:#ffcc33;fill-opacity:1"
             points="81,59 75,53 88,53 88,47 75,47 81,41 73,41 64,50 73,59 "
             transform="matrix(1.5159598,0,0,1.568926,-5.2784314,-7.233634)"
             id="polygon3044" />
        </g>
        <g
           inkscape:export-ydpi="90.93"
           inkscape:export-xdpi="90.93"
           inkscape:export-filename="/home/frank/Desktop/ffmuc-logo.png"
           transform="matrix(0.66062821,0,0,0.66062821,3.24719,415.9377)"
           id="g3105">
          <path
             style="fill:#de2c68;fill-opacity:1;fill-rule:nonzero;stroke:none"
             d="m 467.03564,80.581355 -0.2972,20.594845 c -0.59618,0.12616 -1.02371,0.31237 -1.02371,0.56139 0,0.24949 0.42562,0.46836 1.02371,0.5944 l -0.23116,19.58253 c -1.13803,0.17366 -1.94834,0.52087 -1.94834,0.95765 0,0.21019 0.17911,0.42798 0.49534,0.59442 l 0,20.42251 c -0.7517,0.24033 -1.22185,0.55422 -1.22185,0.92463 0,0.34047 0.40926,0.657 1.05673,0.89162 l 0,3.99576 c -1.46842,0.31886 -2.44369,0.83457 -2.44369,1.45299 0,0.44794 0.5161,0.84301 1.35395,1.15582 l 0,12.48981 c -4.59759,0.54882 -7.92548,1.97621 -7.92548,3.66553 0,1.56522 2.86402,2.93993 6.93479,3.56646 l 0,5.58086 c -7.4823,0.71806 -12.97796,2.97452 -12.97796,5.6469 0,0.0643 0.0268,0.13439 0.033,0.19813 l 0,15.48769 c -0.006,0.0638 -0.033,0.1339 -0.033,0.19815 0,0.0677 0.0261,0.13096 0.033,0.19813 l 0,0.0329 c 0.25084,2.08324 3.83407,3.8746 9.04824,4.85436 l 2.08043,1.61811 0,1.58509 c -6.54474,0.88366 -11.1617,2.96218 -11.1617,5.41574 0,1.40874 1.53034,2.71845 4.0618,3.73159 l 0,1.55207 c -2.53146,1.01312 -4.0618,2.28981 -4.0618,3.69855 0,1.40874 1.53034,2.71845 4.0618,3.73157 l 0,1.55207 c -2.53146,1.01313 -4.0618,2.28982 -4.0618,3.69856 0,2.17774 3.65641,4.10064 9.04825,5.11853 l 3.6325,2.80693 -1.75602,32.86436 14.27748,0 -1.75602,-32.86436 3.59948,-2.80693 c 5.42248,-1.01529 9.08127,-2.93333 9.08127,-5.11853 0,-1.40874 -1.53034,-2.68543 -4.0618,-3.69856 l 0,-1.55207 c 2.53146,-1.01312 4.0618,-2.32283 4.0618,-3.73157 0,-1.40874 -1.53034,-2.68543 -4.0618,-3.69855 l 0,-1.55207 c 2.53146,-1.01314 4.0618,-2.32285 4.0618,-3.73159 0,-2.44986 -4.59967,-4.52976 -11.12868,-5.41574 l 0,-1.58509 2.08043,-1.61811 c 5.20965,-0.9801 8.76451,-2.77222 9.01522,-4.85436 8.6e-4,-0.0109 -8.5e-4,-0.0221 0,-0.0329 0.008,-0.0672 0.0329,-0.13043 0.0329,-0.19813 0,-0.0643 -0.0267,-0.13441 -0.0329,-0.19815 l 0,-15.48769 c 0.006,-0.0637 0.0329,-0.1339 0.0329,-0.19813 0,-2.6756 -5.48178,-4.93169 -12.97797,-5.6469 l 0,-5.58086 c 4.08507,-0.62474 6.93479,-1.99784 6.93479,-3.56646 0,-1.69222 -3.31544,-3.11884 -7.92547,-3.66553 l 0,-12.48981 c 0.83784,-0.31281 1.35394,-0.70788 1.35394,-1.15582 0,-0.61417 -0.9592,-1.13324 -2.41066,-1.45299 l 0,-3.99576 c 0.62974,-0.2333 1.02371,-0.5564 1.02371,-0.89162 0,-0.37041 -0.47015,-0.6843 -1.22186,-0.92463 l 0,-20.42251 c 0.31624,-0.16644 0.49535,-0.38423 0.49535,-0.59442 0,-0.43721 -0.80852,-0.78421 -1.94835,-0.95765 l -0.23115,-19.58253 c 0.60595,-0.12555 1.02371,-0.34296 1.02371,-0.5944 0,-0.25107 -0.41934,-0.43572 -1.02371,-0.56139 l -0.29721,-20.594845 -1.71719,0 z"
             id="path3107"
             inkscape:connector-curvature="0"
             sodipodi:nodetypes="ccsccsccsccsccsccsccscccccsccsccsccccccsccsccscccccsccsccsccsccsccsccscccc" />
          <path
             id="path3109"
             style="fill:#de2c68;fill-opacity:1;fill-rule:nonzero;stroke:none"
             d="m 467.87892,77.944485 c 51.85872,0 93.91717,42.058445 93.91717,93.917175 0,51.85873 -42.05845,93.88668 -93.91717,93.88668 -51.85874,0 -93.88668,-42.02795 -93.88668,-93.88668 0,-51.85873 42.02794,-93.917175 93.88668,-93.917175 z m -3.8e-4,-12.8012 c -58.93156,0 -106.6875,47.787205 -106.6875,106.718755 0,58.93155 47.75594,106.6875 106.6875,106.6875 58.93155,0 106.71875,-47.75595 106.71875,-106.6875 0,-58.93155 -47.7872,-106.718755 -106.71875,-106.718755 z"
             inkscape:connector-curvature="0" />
          <path
             id="path3111"
             style="fill:#de2c68;fill-opacity:1;fill-rule:nonzero;stroke:none"
             d="m 467.89446,54.381985 c 64.87424,0 117.47975,52.605515 117.47975,117.479755 0,64.87423 -52.60551,117.4491 -117.47975,117.4491 -64.87423,0 -117.4491,-52.57487 -117.4491,-117.4491 0,-64.87424 52.57487,-117.479755 117.4491,-117.479755 z m -3e-4,-6.2387 c -68.33168,0 -123.71875,55.387075 -123.71875,123.718755 0,68.33168 55.38707,123.71875 123.71875,123.71875 68.33168,0 123.71875,-55.38707 123.71875,-123.71875 0,-68.33168 -55.38707,-123.718755 -123.71875,-123.718755 z"
             inkscape:connector-curvature="0" />
          <polygon
             id="polygon3113"
             transform="matrix(-2.9653139,0,0,2.8107053,598.4733,-6.8153649)"
             points="22,52 30,52 26,56 31,56 37,50 31,44 26,44 30,48 22,48 "
             style="fill:#ffcc33;fill-opacity:1" />
          <polygon
             id="polygon3115"
             transform="matrix(-2.245542,0,0,2.3239991,592.98133,19.506435)"
             points="75,53 88,53 88,47 75,47 81,41 73,41 64,50 73,59 81,59 "
             style="fill:#ffcc33;fill-opacity:1" />
        </g>
      </g>
    </g>
    <flowRoot
       transform="matrix(0.55254901,0,0,0.55254901,7.6190921,846.83112)"
       xml:space="preserve"
       id="flowRoot3130"
       style="font-size:40px;font-style:normal;font-weight:normal;line-height:125%;letter-spacing:0px;word-spacing:0px;fill:#000000;fill-opacity:1;stroke:none;font-family:Sans"><flowRegion
         id="flowRegion3132"><rect
           id="rect3134"
           width="196.97975"
           height="68.690376"
           x="81.822357"
           y="120.51926" /></flowRegion><flowPara
         id="flowPara3136"
         style="font-size:144px;font-style:normal;font-variant:normal;font-weight:normal;font-stretch:normal;font-family:Ume UI Gothic O5;-inkscape-font-specification:Ume UI Gothic O5">DL0MUC</flowPara></flowRoot>    <flowRoot
       transform="matrix(0.55254901,0,0,0.55254901,7.6190921,470.9245)"
       xml:space="preserve"
       id="flowRoot3138"
       style="font-size:40px;font-style:normal;font-weight:normal;line-height:125%;letter-spacing:0px;word-spacing:0px;fill:#000000;fill-opacity:1;stroke:none;font-family:Sans"><flowRegion
         id="flowRegion3140"><rect
           id="rect3142"
           width="225.26402"
           height="122.22845"
           x="37.375645"
           y="123.54971" /></flowRegion><flowPara
         id="flowPara3144" /></flowRoot>  </g>
  <g
     inkscape:groupmode="layer"
     id="layer3"
     inkscape:label="Layer 2">
    <text
       xml:space="preserve"
       style="font-size:45.0161705px;font-style:normal;font-weight:normal;line-height:125%;letter-spacing:0px;word-spacing:0px;fill:#ffffff;fill-opacity:1;stroke:none;font-family:swiss;-inkscape-font-specification:swiss;"
       x="15"
       y="194.3602"
       id="text3063"
       sodipodi:linespacing="125%"><tspan
         sodipodi:role="line"
         id="tspan3065"
         x="15"
         y="194.3602"
         style="font-family:Swiss 911;-inkscape-font-specification:Swiss 911;fill:#ffffff;">freifunk-muenchen.de</tspan></text>
    <text
       xml:space="preserve"
       style="font-size:144px;font-style:normal;font-weight:normal;line-height:125%;letter-spacing:0px;word-spacing:0px;fill:#ffffff;fill-opacity:1;stroke:#ffffff;font-family:swiss;-inkscape-font-specification:swiss;"
       x="225.68504"
       y="64.236221"
       id="text3016"
       sodipodi:linespacing="125%"><tspan
         sodipodi:role="line"
         id="tspan3018"
         x="225.68504"
         y="64.236221"
         style="font-size:80px;fill:#ffffff;font-family:Swiss 911;-inkscape-font-specification:Swiss 911;stroke:#ffffff;">Ole</tspan></text>
    <path
       style="fill:#ffffff;stroke:#ffffff;stroke-width:0.06313454"
       d="m 39.451573,107.78631 c -0.05383,-0.13022 -0.302298,-0.71974 -0.552149,-1.31005 -1.956749,-4.62309 -3.297493,-9.473586 -4.007358,-14.497687 -0.623769,-4.41474 -0.733339,-9.188518 -0.314988,-13.723446 1.078299,-11.688765 5.742517,-22.901563 13.288697,-31.946074 2.127557,-2.549994 4.961175,-5.382869 7.557181,-7.555199 8.389191,-7.020048 18.769188,-11.572259 29.690471,-13.020937 2.645866,-0.350967 4.705651,-0.4789 7.702413,-0.478397 2.339891,3.93e-4 3.643684,0.05347 5.461137,0.222343 16.745853,1.555928 31.966083,10.229497 41.915763,23.886572 5.72727,7.861343 9.38323,16.992548 10.6703,26.650416 0.56678,4.252907 0.65389,8.808908 0.25289,13.226685 -0.53812,5.928465 -2.10402,12.110274 -4.42991,17.488264 -0.22526,0.52086 -0.44098,1.02515 -0.47938,1.12064 l -0.0698,0.17362 -21.35665,0 -21.35666,0 -0.26906,-0.20519 c -0.93161,-0.71044 -2.90441,-1.38992 -5.114248,-1.76146 l -0.868099,-0.14595 0,-0.45408 0,-0.45408 0.552427,-0.43536 c 0.744305,-0.58656 0.805849,-0.62058 1.278474,-0.70666 1.265396,-0.23047 2.825306,-0.7761 3.723126,-1.3023 0.54095,-0.31704 1.07081,-0.82685 1.24245,-1.19542 l 0.14709,-0.31587 6.3e-4,-5.243553 6.3e-4,-5.24355 -0.16278,-0.326671 c -0.60539,-1.21486 -3.27953,-2.31362 -6.718881,-2.760672 -0.43405,-0.05642 -0.881516,-0.116181 -0.994369,-0.132806 l -0.205187,-0.03023 0,-1.700569 0,-1.700569 0.142052,-0.02925 c 0.07813,-0.01609 0.369337,-0.07524 0.647129,-0.131467 2.372918,-0.480247 3.800246,-1.437759 3.499886,-2.347868 -0.17684,-0.535825 -0.897935,-1.052621 -1.998906,-1.43258 -0.678318,-0.234093 -1.859841,-0.504949 -2.526916,-0.579275 l -0.394591,-0.04397 0,-3.87513 0,-3.87513 0.251735,-0.100725 c 0.236038,-0.09446 0.632117,-0.46464 0.632117,-0.59082 0,-0.328249 -0.439396,-0.670817 -1.104882,-0.861403 l -0.410347,-0.117518 0,-1.247696 c 0,-1.053804 0.01438,-1.247696 0.09251,-1.247696 0.154139,0 0.538841,-0.379946 0.538841,-0.532178 0,-0.173068 -0.209705,-0.377006 -0.521722,-0.507375 l -0.235893,-0.09856 0,-6.333168 0,-6.333168 0.157837,-0.148279 c 0.08681,-0.08156 0.157836,-0.195197 0.157836,-0.252539 0,-0.224 -0.405599,-0.460413 -1.019089,-0.593999 -0.163084,-0.03551 -0.167594,-0.04994 -0.203908,-0.652392 -0.02042,-0.338842 -0.05223,-2.718457 -0.07069,-5.288033 -0.01846,-2.569575 -0.05019,-5.027087 -0.07053,-5.461137 l -0.03697,-0.789182 0.268561,-0.0947 c 0.494994,-0.174549 0.498375,-0.453434 0.0075,-0.617065 l -0.263812,-0.08794 0.0013,-0.6103 C 93.578038,37.514765 93.438183,27.6996 93.407522,27.289775 l -0.03424,-0.457726 -0.527388,0 -0.527388,0 -0.03184,0.268322 c -0.02894,0.243859 -0.169716,10.268336 -0.166608,11.864031 l 0.0013,0.673435 -0.263812,0.08794 c -0.490703,0.163567 -0.487521,0.442384 0.007,0.617065 l 0.268124,0.0947 -0.03597,0.599778 c -0.01978,0.329878 -0.05106,2.702158 -0.06952,5.271734 -0.01846,2.569575 -0.05062,5.034447 -0.07149,5.477493 l -0.03793,0.805538 -0.166545,0.03626 c -0.613201,0.133495 -1.018865,0.369976 -1.018865,0.593942 0,0.05734 0.07103,0.170984 0.157837,0.252539 l 0.157836,0.148279 0,6.333168 0,6.333168 -0.235893,0.09856 c -0.312556,0.130594 -0.521722,0.33438 -0.521722,0.508303 0,0.147725 0.285035,0.429844 0.504736,0.499575 0.12111,0.03844 0.12661,0.09451 0.12661,1.290729 l 0,1.250544 -0.175252,0.03505 c -0.649821,0.129964 -1.339977,0.569864 -1.339977,0.854091 0,0.191355 0.339579,0.54933 0.632149,0.666393 l 0.251734,0.100725 0,3.87513 0,3.87513 -0.39459,0.04452 c -1.616096,0.182349 -3.418067,0.80201 -4.090596,1.406672 -0.523241,0.470438 -0.606362,0.92135 -0.263136,1.427446 0.398962,0.58828 1.743335,1.204373 3.327795,1.525047 0.277792,0.05622 0.569,0.115381 0.647129,0.131467 l 0.142053,0.02925 0,1.700569 0,1.700569 -0.205187,0.0327 c -0.112853,0.01799 -0.475087,0.06419 -0.804965,0.102674 -0.845454,0.09863 -2.399021,0.407502 -3.189662,0.634152 -2.062421,0.591222 -3.36875,1.36474 -3.760031,2.226432 -0.112975,0.248794 -0.118638,0.509805 -0.119372,5.501353 l -7.7e-4,5.240158 0.147992,0.31781 c 0.434235,0.93251 2.219997,1.87181 4.554297,2.39555 0.416688,0.0935 0.824364,0.19665 0.905946,0.22926 0.08158,0.0326 0.414225,0.26459 0.739206,0.51551 l 0.590875,0.45621 0.0026,0.47471 0.0026,0.47473 -0.839501,0.14173 c -2.201441,0.37167 -4.21799,1.05953 -5.116176,1.74512 l -0.295735,0.22575 -21.360916,0 -21.360917,0 -0.09787,-0.23675 -3e-6,0 z m 35.48864,-40.018407 6.319875,-6.541317 -0.551361,-0.584593 c -0.303249,-0.321526 -3.136129,-3.258916 -6.295289,-6.527532 l -5.743928,-5.942939 -5.642928,0 -5.64293,0 1.388488,1.43631 c 0.763669,0.789971 2.637477,2.728991 4.164018,4.308932 l 2.775529,2.872622 -9.050087,0.016 -9.050086,0.016 0,4.387422 0,4.387422 9.056465,0.016 9.056466,0.016 -4.163539,4.306687 c -2.289947,2.368677 -4.16354,4.321902 -4.16354,4.340499 0,0.0186 2.525169,0.03381 5.611486,0.03381 l 5.611487,0 6.319874,-6.541316 z m 51.131037,2.579624 c -0.0915,-0.09549 -1.74041,-1.665174 -3.66422,-3.488183 l -3.49784,-3.314563 7.34578,-0.01605 7.34578,-0.01605 0,-3.535009 0,-3.53501 -7.34781,-0.01605 -7.34782,-0.01605 3.4997,-3.314563 c 1.92484,-1.823009 3.57465,-3.392692 3.66626,-3.488183 l 0.16655,-0.17362 -4.6519,0 -4.6519,0 -5.54036,5.254494 c -3.04719,2.889971 -5.54035,5.26984 -5.54035,5.288597 0,0.01876 2.494,2.398796 5.54223,5.288974 l 5.54223,5.25487 4.65002,0 4.65003,0 -0.16638,-0.17362 z"
       id="path3437"
       inkscape:connector-curvature="0" />
    <path
       style="fill:#ffffff;stroke:#ffffff;stroke-width:0.12626907"
       d="m 97.113202,141.72616 c 0,-0.48779 -0.735683,-14.45 -0.811932,-15.40931 l -0.06293,-0.79176 1.080302,-0.84974 c 1.011625,-0.79573 1.16586,-0.87182 2.426169,-1.19705 2.456259,-0.63384 4.200769,-1.70294 4.385489,-2.68758 0.15675,-0.83559 -0.59186,-1.74614 -1.93477,-2.35328 -0.49124,-0.2221 -0.5366,-0.28218 -0.53617,-0.71023 4.4e-4,-0.43793 0.038,-0.48302 0.59168,-0.71078 0.71082,-0.29239 1.75393,-1.26399 1.87402,-1.74555 0.2014,-0.80767 -0.37931,-1.60463 -1.64676,-2.26 -0.77373,-0.40008 -0.8185,-0.44773 -0.81894,-0.87157 -4.3e-4,-0.40972 0.051,-0.47336 0.59703,-0.73864 1.33443,-0.64831 2.02876,-1.5187 1.87315,-2.34813 -0.043,-0.22934 -0.16195,-0.48647 -0.26428,-0.5714 -0.10234,-0.0849 -0.18607,-0.20428 -0.18607,-0.26523 0,-0.0631 9.10158,-0.1108 21.15007,-0.1108 13.19138,0 21.15007,0.0449 21.15007,0.11929 0,0.20291 -1.94067,3.9119 -2.77851,5.31028 -9.52221,15.89277 -25.45369,26.2136 -43.75164,28.34345 -2.308371,0.26869 -2.335977,0.26689 -2.335977,-0.15197 z"
       id="path3439"
       inkscape:connector-curvature="0" />
    <path
       style="fill:#ffffff;stroke:#ffffff;stroke-width:0.12626907"
       d="m 86.064658,141.8652 c -17.244215,-2.03689 -32.6473,-11.56739 -42.159312,-26.08563 -1.587947,-2.42369 -3.630584,-6.076 -4.12409,-7.37402 l -0.11423,-0.30044 21.219243,0 21.219243,0 -0.261703,0.3327 c -0.174439,0.22176 -0.261703,0.51743 -0.261703,0.8867 0,0.47135 0.07578,0.63622 0.507906,1.10502 0.279349,0.30306 0.846812,0.71374 1.261032,0.91263 0.688924,0.33079 0.753265,0.39638 0.754784,0.76942 0.0014,0.35352 -0.06978,0.44407 -0.534984,0.6802 -1.418555,0.72001 -1.988738,1.33123 -1.988738,2.13186 0,0.80116 0.535483,1.39563 1.862469,2.06765 0.594054,0.30084 0.662865,0.37812 0.662445,0.74396 -3.78e-4,0.37436 -0.0682,0.44327 -0.816526,0.83021 -0.448832,0.23208 -1.016832,0.6442 -1.262224,0.91582 -0.371266,0.41094 -0.446164,0.58911 -0.446164,1.06133 0,0.47595 0.07456,0.65002 0.462259,1.07915 0.607564,0.6725 2.136739,1.40455 3.83089,1.83393 1.222318,0.3098 1.41208,0.4013 2.430679,1.17207 0.741333,0.56096 1.104854,0.91904 1.104854,1.08832 0,0.4983 -0.754109,14.54465 -0.828927,15.43996 l -0.0765,0.91545 -0.462735,-0.0137 c -0.254504,-0.008 -1.144589,-0.0942 -1.977965,-0.19264 z"
       id="path3441"
       inkscape:connector-curvature="0" />
    <path
       style="fill:#ffffff;stroke:#ffffff;stroke-width:0.04464286"
       d="m 91.358977,156.97107 c -12.708839,-0.24735 -25.138204,-3.80509 -36.01005,-10.30738 -4.243967,-2.53826 -8.026558,-5.34626 -11.80245,-8.76153 -0.977851,-0.88446 -3.616469,-3.50005 -4.484495,-4.44536 -2.055886,-2.23894 -4.038917,-4.67106 -5.728205,-7.02545 l -0.456942,-0.63685 0,-2.78949 0,-2.78949 2.135856,0 2.135857,0 0.437356,0.65848 c 3.297026,4.964 7.722801,9.88656 12.47843,13.87911 10.400594,8.73174 23.233298,14.07928 36.674107,15.28254 3.489442,0.31238 7.465407,0.35328 10.825893,0.11135 10.126746,-0.72903 19.639906,-3.62854 28.419806,-8.66203 2.98946,-1.71385 5.54603,-3.46121 8.66725,-5.92385 0.0446,-0.0352 0.0558,0.79735 0.0558,4.1315 l 0,4.17554 -1.23884,0.82305 c -5.45042,3.62109 -11.02726,6.37306 -17.03758,8.40744 -7.08955,2.39968 -14.0502,3.63936 -21.656614,3.85701 -1.452866,0.0416 -1.954652,0.0438 -3.415179,0.0154 z"
       id="path3443"
       inkscape:connector-curvature="0" />
    <path
       style="fill:#ffffff;stroke:#ffffff;stroke-width:0.08928572"
       d="M 31.949036,124.38458 C 21.033794,107.97266 17.208283,88.233247 21.179298,68.813364 c 1.025086,-5.013086 2.695736,-10.161884 4.898857,-15.097849 0.651483,-1.45961 2.583502,-5.288487 2.759975,-5.469723 0.08553,-0.08784 0.945369,-0.107461 3.912857,-0.08929 l 3.803236,0.02329 -0.611629,0.998119 c -4.547101,7.420428 -7.678392,16.092029 -8.957181,24.805453 -0.496441,3.382651 -0.678147,6.00229 -0.678147,9.776785 0,3.774496 0.181706,6.394134 0.678147,9.776786 1.317769,8.979025 4.55835,17.789545 9.367616,25.468745 l 0.740902,1.18304 -2.133997,0 -2.133996,0 -0.02361,2.72167 -0.02361,2.72167 -0.829679,-1.24749 z"
       id="path3445"
       inkscape:connector-curvature="0" />
    <path
       style="fill:#ffffff;stroke:#ffffff;stroke-width:0.02232143"
       d="m 28.843573,48.143303 c 0.0079,-0.02047 0.161714,-0.295799 0.34191,-0.611848 4.274839,-7.497695 9.865103,-14.211199 16.484722,-19.796965 2.385793,-2.01318 5.12063,-4.030961 7.703349,-5.683583 l 0.373783,-0.239176 5.781351,0 5.78135,0 0,0.666267 0,0.666266 -0.30692,0.14132 c -6.21639,2.862304 -12.079261,6.769153 -17.148437,11.427224 -0.953117,0.875821 -2.372853,2.272277 -3.245896,3.192673 -2.290173,2.41439 -4.272773,4.829111 -6.185347,7.533483 -0.367157,0.519158 -1.245592,1.822033 -1.582527,2.347165 l -0.217018,0.338236 -3.463847,-0.0118 c -3.303232,-0.01125 -4.080359,-0.0016 -4.276764,0.05295 -0.04427,0.0123 -0.05142,0.0083 -0.03971,-0.02221 z"
       id="path3447"
       inkscape:connector-curvature="0" />
    <path
       style="fill:#ffffff;stroke:#ffffff;stroke-width:0.03156727"
       d="m 122.01922,23.923702 c -1.86916,-0.929313 -4.36172,-1.985876 -6.55021,-2.776538 -5.99163,-2.164673 -12.13527,-3.430644 -18.561554,-3.824834 -2.518651,-0.154494 -5.598653,-0.154518 -8.128571,-6.3e-5 -7.928375,0.48404 -15.58103,2.334449 -22.770673,5.505941 -0.356096,0.157081 -0.655627,0.285601 -0.665626,0.285601 -0.01,0 -0.01818,-0.298272 -0.01818,-0.662827 l 0,-0.662828 -5.753135,-0.008 -5.753134,-0.008 0.69448,-0.429472 c 2.92068,-1.806171 6.276094,-3.547268 9.485963,-4.922189 7.489008,-3.207854 15.298771,-5.10726 23.486047,-5.712022 3.134393,-0.231526 6.760137,-0.248739 10.006824,-0.04751 8.506669,0.527246 16.941319,2.568013 24.740259,5.985917 l 0.38611,0.169214 6e-4,3.701262 c 3.1e-4,2.035694 -0.003,3.700225 -0.007,3.698957 -0.004,-0.0013 -0.27069,-0.132963 -0.59189,-0.292657 l -1e-5,0 z"
       id="path3449"
       inkscape:connector-curvature="0" />
    <path
       style="fill:#ffffff;stroke:#ffffff;stroke-width:0.03156727"
       d="m 154.47146,58.587526 c -0.0364,-0.116986 -0.74599,-1.767278 -1.00655,-2.340877 -2.62158,-5.771289 -6.13216,-11.240781 -10.29773,-16.04388 -2.65168,-3.057517 -5.62491,-5.919019 -8.73928,-8.410873 -3.56177,-2.849824 -7.1788,-5.19041 -11.34803,-7.343343 l -0.42616,-0.220062 -0.008,-3.698762 -0.008,-3.698762 0.10272,0.04293 c 0.67132,0.280544 3.11849,1.472711 4.22225,2.056916 9.60514,5.083855 17.87031,12.125011 24.41951,20.803163 1.97231,2.613443 3.76744,5.365325 5.47753,8.396893 l 0.39175,0.69448 0.0158,4.916605 0.0158,4.916602 -1.39472,0 -1.39473,-3e-6 -0.0221,-0.07103 z"
       id="path3451"
       inkscape:connector-curvature="0" />
    <path
       style="fill:#ffffff;stroke:#ffffff;stroke-width:0.03156727"
       d="m 158.41497,95.263453 c 0,-0.0072 0.0564,-0.358803 0.12532,-0.78129 0.77642,-4.759125 1.03206,-9.828614 0.74153,-14.70511 -0.41678,-6.995606 -1.89655,-13.753306 -4.43695,-20.262358 -0.17197,-0.440627 -0.31268,-0.806412 -0.31268,-0.812857 0,-0.0064 0.62736,-0.01172 1.39414,-0.01172 l 1.39413,0 -0.0199,-3.598668 -0.0199,-3.598669 0.67241,0 0.6724,0 0.34111,0.718156 c 4.16873,8.776691 6.50021,17.948344 7.02349,27.62925 0.1298,2.401432 0.12997,5.430195 4.2e-4,7.828682 -0.11888,2.201224 -0.32787,4.345389 -0.63192,6.483396 -0.0861,0.60565 -0.15659,1.106385 -0.15659,1.112746 0,0.0064 -1.52707,0.01157 -3.39348,0.01157 -1.86642,0 -3.39349,-0.0059 -3.39349,-0.01313 l 1e-5,0 z"
       id="path3453"
       inkscape:connector-curvature="0" />
    <path
       style="fill:#ffffff;stroke:#ffffff;stroke-width:0.03156727"
       d="m 157.27854,50.191501 c 0,-1.072236 0.007,-1.260031 0.0424,-1.207448 0.0585,0.08604 0.75088,1.410359 1.04334,1.995761 l 0.2405,0.481401 -0.66311,0 -0.66311,0 0,-1.269714 z"
       id="path3455"
       inkscape:connector-curvature="0" />
    <path
       style="fill:#ffffff;stroke:#ffffff;stroke-width:0.03156727"
       d="m 148.34501,120.51368 c 0,-0.009 0.11136,-0.18321 0.24748,-0.3867 0.35852,-0.536 1.22994,-1.94026 1.6694,-2.69018 2.93107,-5.00174 5.15835,-10.24393 6.70567,-15.78263 0.49779,-1.781838 1.00584,-3.975077 1.30549,-5.635758 0.0626,-0.34724 0.12005,-0.652653 0.12754,-0.678696 0.012,-0.04171 0.41715,-0.04735 3.40159,-0.04735 3.37007,0 3.38792,3.34e-4 3.37855,0.06314 -0.0549,0.36777 -0.35526,2.055126 -0.4692,2.635866 -0.20867,1.063563 -0.54575,2.562548 -0.8363,3.719028 -0.23075,0.91846 -0.25841,1.00545 -0.3382,1.06342 -0.26011,0.18898 -1.03137,0.80344 -1.44311,1.14972 -4.55192,3.82821 -7.94441,8.82917 -9.82011,14.47607 -0.22644,0.68173 -0.55985,1.80343 -0.60059,2.0206 l -0.0207,0.1102 -1.65376,0 c -0.90958,0 -1.65377,-0.008 -1.65377,-0.0167 z"
       id="path3457"
       inkscape:connector-curvature="0" />
    <path
       style="fill:#ffffff;stroke:#ffffff;stroke-width:0.03156727"
       d="m 152.33545,126.19672 c 0.13529,-2.01353 0.62715,-4.55444 1.30089,-6.72028 1.51507,-4.87041 4.33902,-9.4415 7.97242,-12.90484 0.73283,-0.69853 1.16016,-1.08007 1.18353,-1.05671 0.0266,0.0266 -0.66604,2.10972 -1.07758,3.24091 -1.75001,4.81023 -3.98436,9.39196 -6.71434,13.7683 -0.68323,1.09528 -2.28581,3.48327 -2.62357,3.90937 l -0.0626,0.0789 0.0212,-0.31567 z"
       id="path3459"
       inkscape:connector-curvature="0" />
    <path
       style="fill:#ffffff;stroke:#ffffff;stroke-width:0.03156727"
       d="m 134.73635,137.17424 c -0.002,-0.56861 -0.0124,-1.17503 -0.0237,-1.3476 l -0.0205,-0.31376 0.32994,-0.27023 c 4.89667,-4.01057 9.40059,-8.93602 12.886,-14.09201 l 0.40228,-0.5951 1.64983,0.005 c 0.9074,0.003 1.65394,0.009 1.65898,0.0139 0.005,0.005 -0.04,0.20771 -0.10007,0.45038 -0.52599,2.12489 -0.84361,4.55704 -0.89109,6.82346 l -0.02,0.95682 -0.53652,0.66889 c -2.37107,2.95608 -5.06126,5.8315 -7.7692,8.30415 l -0.47111,0.43017 -3.54582,0 -3.54582,0 -0.003,-1.03382 z"
       id="path3461"
       inkscape:connector-curvature="0" />
    <path
       style="fill:#ffffff;stroke:#ffffff;stroke-width:0.03156727"
       d="m 134.73952,141.0352 0,-2.79557 3.52764,0.001 3.52764,10e-4 -0.079,0.07 c -1.73072,1.53461 -3.29199,2.8138 -4.93745,4.04538 -0.72995,0.54635 -1.87005,1.37332 -1.9994,1.45025 -0.0314,0.0187 -0.0394,-0.54417 -0.0394,-2.77209 z"
       id="path3463"
       inkscape:connector-curvature="0" />
    <path
       style="fill:#ffffff;stroke:#ffffff;stroke-width:0.01116071"
       d="m 161.52886,123.74444 0,-4.78215 0.34494,-0.68939 c 0.84611,-1.691 1.61787,-3.37736 2.26784,-4.95543 l 0.11601,-0.28167 11.3644,-1.4e-4 11.3644,-1.4e-4 0,7.74553 0,7.74554 -5.77009,0 c -3.17355,0 -5.77009,-0.002 -5.77009,-0.005 0,-0.003 1.68023,-1.59801 3.73384,-3.54457 2.05361,-1.94656 3.73232,-3.54335 3.73047,-3.54842 -0.002,-0.005 -1.84777,-1.7574 -4.10202,-3.89406 l -4.09864,-3.88485 -3.42504,0.003 -3.42503,0.003 2.7259,2.5837 2.7259,2.58371 -5.46171,0.003 -5.46171,0.003 0,2.60043 0,2.60042 5.46508,0.003 5.46509,0.003 -2.36973,2.2461 -2.36973,2.24609 -3.52504,0 -3.52504,0 0,-4.78215 z"
       id="path3469"
       inkscape:connector-curvature="0" />
    <path
       style="fill:#ffffff;stroke:#ffffff;stroke-width:0.12626907"
       d="m 179.0942,158.99517 c -11.29638,-1.23956 -20.8177,-8.71942 -24.90355,-19.56399 -0.57327,-1.52157 -1.26795,-4.13835 -1.49545,-5.63322 l -0.1559,-1.02439 1.26048,-1.62726 c 2.7624,-3.5662 6.09415,-8.72391 7.32269,-11.33585 0.22961,-0.48818 0.23128,-0.4649 0.29406,4.10374 l 0.0631,4.59471 3.45429,0.0631 c 3.39421,0.062 3.44971,0.0673 3.19127,0.30099 -0.14466,0.13081 -0.23259,0.28707 -0.19541,0.34724 0.0372,0.0602 1.56804,0.10939 3.4019,0.10939 l 3.33428,0 0.43144,-0.37881 0.43144,-0.37881 5.76014,0 5.76014,0 0,-7.76554 0,-7.76555 -11.35856,0 -11.35856,0 0.32568,-0.85232 c 1.22017,-3.19324 2.36258,-6.71386 2.94493,-9.07557 l 0.28411,-1.1522 1.46841,-0.70686 c 3.04808,-1.467282 5.684,-2.252149 9.23396,-2.749487 1.6045,-0.224785 5.8401,-0.186568 7.51301,0.06779 1.58609,0.241155 4.60882,0.939272 4.60882,1.064433 0,0.046 -0.11402,0.481194 -0.25339,0.967114 -0.73458,2.56123 -1.34332,6.64012 -1.5019,10.06353 -0.63543,13.71775 4.44391,26.90364 14.0552,36.48707 l 1.60387,1.59921 -1.49075,1.50317 c -4.57782,4.61597 -9.98823,7.42415 -16.39051,8.50722 -1.75117,0.29625 -5.90148,0.42181 -7.63927,0.23112 z"
       id="path3471"
       inkscape:connector-curvature="0" />
    <path
       style="fill:#ffffff;stroke:#ffffff;stroke-width:0.01116071"
       d="m 201.3501,129.77163 c -2.15666,-4.59778 -3.4129,-9.62164 -3.67337,-14.69029 -0.006,-0.1197 -0.0145,-0.28167 -0.0185,-0.35993 l -0.007,-0.1423 2.60563,0 2.60564,0 0.007,0.17578 c 0.01,0.23563 0.0366,0.64974 0.0636,0.99051 0.38462,4.85125 1.75697,9.51576 4.05359,13.7779 0.0612,0.11356 0.15087,0.27722 0.19928,0.36368 0.0484,0.0865 0.088,0.16053 0.088,0.16462 0,0.004 -1.30259,0.007 -2.89465,0.007 l -2.89465,0 -0.1348,-0.28739 z"
       id="path3473"
       inkscape:connector-curvature="0" />
    <path
       style="fill:#ffffff;stroke:#ffffff;stroke-width:0.06313454"
       d="m 197.68518,112.3097 c 0.0379,-2.47107 0.14397,-3.73874 0.48641,-5.81286 0.24426,-1.47942 0.56962,-2.97862 0.64643,-2.97862 0.0963,0 1.66732,1.19117 2.41853,1.83381 0.38066,0.32563 0.99159,0.88307 1.35763,1.23874 l 0.66552,0.64668 -0.11245,0.77625 c -0.21655,1.49486 -0.32034,3.01595 -0.32759,4.80105 l -0.007,1.75196 -2.58098,2e-5 -2.58099,3e-5 0.0346,-2.25706 z"
       id="path3475"
       inkscape:connector-curvature="0" />
    <path
       style="fill:#ffffff;stroke:#ffffff;stroke-width:0.06313454"
       d="m 208.74306,140.43897 c -2.68177,-2.77129 -4.84395,-5.7871 -6.74636,-9.40988 l -0.48902,-0.93123 2.87948,0 2.87947,0 0.17207,0.29187 c 0.92157,1.56326 1.99566,3.12508 3.02766,4.40251 0.30452,0.37693 0.59124,0.73705 0.63716,0.80025 0.0712,0.098 0.0497,0.24322 -0.14531,0.98466 -0.37092,1.40995 -1.16178,3.70179 -1.50043,4.34813 l -0.0858,0.16366 -0.62897,-0.64997 z"
       id="path3477"
       inkscape:connector-curvature="0" />
    <path
       style="fill:#ffffff;stroke:#ffffff;stroke-width:0.06313454"
       d="m 211.04218,132.81264 c -1.28498,-1.72629 -2.18444,-3.19711 -3.14663,-5.14546 -1.76204,-3.568 -2.79725,-7.11899 -3.25864,-11.17784 -0.16042,-1.41119 -0.19116,-4.76811 -0.0581,-6.3477 0.0597,-0.70871 0.11518,-1.29561 0.12331,-1.30424 0.008,-0.009 0.25746,0.28969 0.55405,0.66292 3.26619,4.11013 5.39816,8.87895 6.26999,14.02476 0.32678,1.92876 0.37463,2.58925 0.37555,5.18382 8.4e-4,2.36311 -0.0561,3.32303 -0.26948,4.54568 l -0.0496,0.28411 -0.54044,-0.72605 z"
       id="path3479"
       inkscape:connector-curvature="0" />
    <path
       style="fill:#ffffff;stroke:#ffffff;stroke-width:0.06313454"
       d="m 234.81702,145.74308 c -0.12153,-0.0136 -0.5761,-0.0552 -1.01015,-0.0923 -5.08463,-0.43482 -10.26294,-2.25663 -14.61564,-5.14202 -1.85029,-1.22655 -3.21146,-2.33689 -4.91491,-4.00921 -0.65448,-0.64253 -1.21147,-1.21084 -1.23776,-1.26293 -0.0263,-0.0521 0.0312,-0.56347 0.12768,-1.13642 0.5108,-3.03225 0.57656,-6.50527 0.18122,-9.57183 -0.82602,-6.40742 -3.47707,-12.30673 -7.72813,-17.19721 l -0.57623,-0.66292 0.0547,-0.2841 c 0.0301,-0.15626 0.16685,-0.75093 0.30392,-1.32148 1.92038,-7.993873 6.79497,-14.986543 13.64648,-19.57611 4.58998,-3.074653 9.7991,-4.876716 15.32371,-5.301141 1.09188,-0.08388 3.64953,-0.08388 4.74142,0 7.68698,0.590548 14.76327,3.845919 20.23458,9.308696 6.22671,6.217008 9.68611,14.577425 9.68776,23.412625 0.002,8.86611 -3.40999,17.18527 -9.59619,23.3999 -4.65839,4.6798 -10.56249,7.80157 -16.95364,8.96416 -1.97242,0.3588 -3.06603,0.45618 -5.36442,0.47765 -1.14589,0.0107 -2.18287,0.008 -2.30441,-0.005 l 0,2e-5 z m 10.50356,-11.46927 c -0.28084,-0.28647 -2.21081,-2.28231 -4.2888,-4.4352 l -3.77818,-3.91434 9.29361,-0.016 9.29361,-0.016 0,-4.45056 0,-4.45057 -9.28466,-0.016 -9.28467,-0.016 4.08313,-4.23001 c 2.24573,-2.32651 4.17076,-4.32235 4.27786,-4.4352 l 0.19472,-0.20519 -5.75577,0 -5.75578,0 -6.44466,6.66722 c -3.54456,3.66697 -6.43617,6.68839 -6.42579,6.71427 0.0104,0.0259 2.90254,3.03304 6.42703,6.6826 l 6.40815,6.63556 5.77542,0.003 5.77541,0.003 -0.51063,-0.52086 0,0 z"
       id="path3485"
       inkscape:connector-curvature="0" />
    <path
       style="fill:#ffffff;stroke:#ffffff;stroke-width:0.06313454"
       d="m 263.48818,134.24893 c 0.0476,-0.0675 0.3883,-0.54339 0.75702,-1.05751 3.55531,-4.95735 5.6542,-10.6051 6.3187,-17.0025 0.13052,-1.25658 0.10959,-5.51217 -0.0335,-6.81853 -1.07571,-9.818303 -5.8885,-18.370644 -13.62529,-24.212119 -2.96302,-2.237157 -6.22274,-3.932641 -9.80839,-5.101654 -2.3087,-0.752696 -4.47085,-1.207061 -7.1342,-1.499217 -1.00941,-0.110727 -4.28367,-0.148891 -5.49536,-0.06405 -7.13044,0.499252 -13.76412,3.185372 -19.34963,7.835092 -1.02043,0.849463 -3.32897,3.157003 -4.16303,4.161225 -3.19629,3.848376 -5.44765,8.082159 -6.79233,12.773273 -0.18676,0.65153 -0.37469,1.35469 -0.41763,1.56258 -0.0429,0.2079 -0.0963,0.37799 -0.11851,0.37799 -0.0222,0 -0.25136,-0.19177 -0.50915,-0.42615 -1.07186,-0.97456 -2.3096,-1.95877 -3.38841,-2.69437 -0.25089,-0.17106 -0.45616,-0.33948 -0.45616,-0.37426 0,-0.1141 0.44215,-1.48255 0.76399,-2.36454 4.64196,-12.721133 15.59854,-22.236447 28.71984,-24.941933 4.49865,-0.927578 9.22944,-1.047689 13.76333,-0.349439 8.87544,1.366877 16.974,5.781377 23.02331,12.549936 5.21608,5.836263 8.55552,13.032899 9.64392,20.783026 0.26099,1.85842 0.36501,3.41237 0.36743,5.48858 0.004,3.27123 -0.30001,6.01634 -1.0021,9.05435 -0.968,4.18869 -2.79346,8.58475 -4.98995,12.0168 l -0.27274,0.42616 -2.94387,0 c -2.90328,0 -2.94268,-0.002 -2.85726,-0.12274 z"
       id="path3487"
       inkscape:connector-curvature="0" />
    <path
       style="fill:#ffffff;stroke:#ffffff;stroke-width:0.03156727"
       d="m 235.1337,152.28566 c -1.45485,-0.0767 -2.38179,-0.15377 -3.39873,-0.28264 -6.95453,-0.88131 -13.4277,-3.58685 -19.00374,-7.94284 -0.55818,-0.43605 -1.51686,-1.23728 -1.87023,-1.56308 l -0.20267,-0.18684 0.31794,-0.74024 c 0.53098,-1.23627 1.04314,-2.68166 1.39914,-3.94856 l 0.13868,-0.49353 0.60061,0.58505 c 2.30744,2.24768 4.69121,4.03732 7.35672,5.52315 6.76867,3.77302 14.64091,5.07275 22.30156,3.68205 6.23413,-1.13174 12.02321,-4.03049 16.76222,-8.39329 0.60161,-0.55385 1.77953,-1.74651 2.29106,-2.31972 0.49895,-0.55911 1.23927,-1.44459 1.5807,-1.89064 0.005,-0.007 0.0333,0.007 0.0624,0.0316 0.0441,0.0366 0.53599,0.0466 2.9381,0.0597 l 2.88515,0.0158 -0.43715,0.64713 c -1.50166,2.22296 -2.86673,3.872 -4.83604,5.84206 -1.36329,1.36381 -2.29153,2.1875 -3.68878,3.2733 -5.73631,4.45768 -12.61473,7.21056 -19.81475,7.93025 -1.30061,0.13 -1.98869,0.16302 -3.59867,0.17266 -0.8681,0.005 -1.6707,0.005 -1.78355,-10e-4 l 0,-1e-5 z"
       id="path3491"
       inkscape:connector-curvature="0" />
  </g>
</svg>
