<?xml version="1.0" encoding="UTF-8" standalone="no"?>
<svg
   xmlns:dc="http://purl.org/dc/elements/1.1/"
   xmlns:cc="http://creativecommons.org/ns#"
   xmlns:rdf="http://www.w3.org/1999/02/22-rdf-syntax-ns#"
   xmlns:svg="http://www.w3.org/2000/svg"
   xmlns="http://www.w3.org/2000/svg"
   xmlns:sodipodi="http://sodipodi.sourceforge.net/DTD/sodipodi-0.dtd"
   xmlns:inkscape="http://www.inkscape.org/namespaces/inkscape"
   width="896pt"
   height="534pt"
   viewBox="0 0 896 534"
   version="1.1"
   id="svg2"
   inkscape:version="0.48.4 r9939"
   sodipodi:docname="shirt-back.svg"
   inkscape:export-filename="/home/andz/Desktop/shirt-back.png"
   inkscape:export-xdpi="300"
   inkscape:export-ydpi="300">
  <metadata
     id="metadata152">
    <rdf:RDF>
      <cc:Work
         rdf:about="">
        <dc:format>image/svg+xml</dc:format>
        <dc:type
           rdf:resource="http://purl.org/dc/dcmitype/StillImage" />
        <dc:title></dc:title>
      </cc:Work>
    </rdf:RDF>
  </metadata>
  <defs
     id="defs150" />
  <sodipodi:namedview
     pagecolor="#ffffff"
     bordercolor="#666666"
     borderopacity="1"
     objecttolerance="10"
     gridtolerance="10"
     guidetolerance="10"
     inkscape:pageopacity="0"
     inkscape:pageshadow="2"
     inkscape:window-width="1440"
     inkscape:window-height="850"
     id="namedview148"
     showgrid="false"
     inkscape:zoom="0.54464286"
     inkscape:cx="767.79755"
     inkscape:cy="400.67564"
     inkscape:window-x="0"
     inkscape:window-y="0"
     inkscape:window-maximized="1"
     inkscape:current-layer="svg2" />
  <rect
     style="fill:#ffffff;fill-opacity:1;stroke:#ffffff;stroke-width:0;stroke-miterlimit:4;stroke-opacity:1;stroke-dasharray:none"
     id="rect3051"
     width="1110.8197"
     height="627.93445"
     x="3.6721311"
     y="26.713118"
     transform="scale(0.8,0.8)" />
  <path
     fill="#dd0368"
     d=" M 544.98 75.01 C 562.19 68.85 580.46 64.90 599.04 64.25 C 615.09 63.90 631.24 63.83 646.97 66.95 C 696.03 75.93 741.92 104.99 770.90 146.20 C 772.18 148.39 774.38 150.07 775.02 152.61 C 753.42 146.00 730.31 144.57 708.00 147.86 C 690.95 132.93 670.36 122.02 648.40 116.38 C 605.21 104.86 556.93 114.15 521.45 141.46 C 509.10 150.65 498.40 161.91 489.34 174.33 C 485.74 171.68 483.46 167.65 479.65 165.29 C 471.06 157.57 461.46 150.93 451.02 145.99 C 459.10 133.81 469.44 123.15 480.11 113.19 C 483.06 111.52 484.92 108.51 487.86 106.84 C 504.90 93.13 524.53 82.12 544.98 75.01 Z"
     id="path6" />
  <path
     d="m 832.81,390.24 c -4.73,0.08 -9.46,-0.03 -14.17,0.03 -0.02,4.32 -0.04,8.65 0.01,12.98 -0.95,0 -2.85,0 -3.8,0 -0.13,3.68 -0.04,7.37 -0.04,11.06 1.25,-0.03 2.52,-0.03 3.8,0.01 0.05,14.87 0,29.75 0.02,44.63 0.03,3.73 -0.18,8.09 2.52,11.05 0.06,0.5 2.1,1.2 1.25,1.83 -0.84,-0.16 -2.51,-0.46 -3.35,-0.61 -4.27,-0.05 -8.54,-0.06 -12.8,0.03 1.72,-1.56 3.8,-2.91 4.69,-5.15 2.53,-6.58 1.15,-13.75 1.47,-20.61 -4.97,-0.01 -9.94,0.1 -14.9,-0.07 -0.75,5.1 0.25,10.45 -0.51,15.58 -0.92,2.75 -5.16,2.01 -5.17,-0.9 -0.09,-6.66 -0.04,-13.33 -0.03,-19.99 6.86,-0.02 13.72,0.01 20.59,-0.01 0.07,-8.36 0.08,-16.73 0,-25.08 -0.23,-5.79 -4.61,-11 -10.25,-12.22 -6.23,-1.79 -13.11,-1.42 -19.07,1.12 -4.99,3.2 -6.49,9.53 -6.66,15.1 -0.07,12.34 -0.01,24.69 -0.03,37.03 0.02,5.53 1.51,11.25 5.53,15.21 -3.37,-0.15 -6.74,-0.02 -10.1,-0.08 -0.08,-19.72 0.04,-39.44 -0.06,-59.15 -0.22,-3.85 -1.93,-8.58 -6.13,-9.51 -4.39,-1.18 -9.73,-0.38 -12.69,3.34 -1.05,0.79 -1.15,2.38 -2.36,2.94 0.02,-1.86 0.15,-3.72 0.04,-5.57 -4.99,0.04 -9.97,0.05 -14.96,0 -0.04,22.51 -0.03,45.02 0,67.52 l -0.32,0.49 c -1.89,-0.09 -3.77,-0.03 -5.63,-0.04 -0.05,-5.41 -0.02,-10.81 -0.01,-16.21 -5.12,-0.55 -10.62,-0.11 -15.87,-0.22 -0.06,5.47 -0.01,10.94 -0.02,16.42 -0.79,0.01 -2.36,0.04 -3.14,0.05 -1.91,-5.1 -2.04,-10.8 -3.29,-16.13 -1.4,-7.39 -3.11,-14.72 -4.32,-22.13 2.59,-9.88 5.01,-19.77 7.51,-29.65 -5.17,-0.16 -10.37,-0.05 -15.54,-0.04 -2.36,9.92 -4.51,19.92 -6.39,29.93 -0.61,-3.37 -0.28,-6.8 -0.32,-10.19 0,-12.42 0.02,-24.85 -0.01,-37.27 -5.15,-0.01 -10.3,-0.04 -15.44,0.01 -0.04,28.48 0,56.96 -0.02,85.44 -1.51,-0.16 -3.06,0.21 -4.53,-0.12 -0.03,-19.67 0.06,-39.33 -0.04,-59 -0.37,-3.43 -1.43,-8.01 -5.18,-9.18 -5.9,-2.53 -13.39,0.15 -15.81,6.25 -0.02,-1.98 0.06,-3.96 0.01,-5.93 -5.05,0.18 -10.17,-0.22 -15.17,0.2 0.09,22.58 0.03,45.16 0.04,67.74 -1.63,0 -3.25,0.09 -4.85,-0.02 0.03,-22.5 -0.04,-45 0.03,-67.49 l -0.29,-0.45 c -5.07,0.08 -10.13,0.07 -15.19,0.01 -0.25,16.24 -0.04,32.51 -0.11,48.76 -0.09,2.71 0.29,5.5 -0.47,8.16 -1.71,1.9 -5.32,0.43 -4.94,-2.22 -0.07,-16.65 -0.01,-33.29 -0.03,-49.94 -0.27,-1.55 0.47,-3.39 -0.28,-4.76 -4.94,0.09 -9.88,0.02 -14.82,0.03 -0.11,19.93 -0.02,39.87 -0.04,59.8 -0.11,2.97 1.04,5.71 2.6,8.17 -3.47,-0.2 -7.08,0.26 -10.45,-0.22 0,-18.89 -0.04,-37.79 0.02,-56.68 1.6,-0.1 3.22,0.05 4.85,-0.02 0.01,-3.68 0.03,-7.36 0,-11.04 -1.63,-0.03 -3.24,0.03 -4.85,0 0.07,-1.82 -0.46,-3.83 0.4,-5.51 1.34,-0.75 2.85,-1.03 4.38,-1 0.19,-3.65 0.04,-7.33 0.07,-10.98 -5.58,0.34 -12.04,-1.38 -16.73,2.55 -4.51,3.6 -3.06,9.91 -3.3,14.93 -1.31,-0.01 -2.61,-0.01 -3.91,0.01 -0.09,3.67 -0.01,7.35 -0.04,11.03 1.21,0.02 2.42,0.03 3.64,0.02 l 0.37,0.47 c -0.13,18.79 -0.01,37.6 -0.06,56.4 -2.46,0.03 -4.91,0.02 -7.36,0 -0.05,-22.65 0.04,-45.29 -0.05,-67.94 -5.12,0.04 -10.23,0.01 -15.34,0.02 -0.06,22.64 0.01,45.29 -0.04,67.93 -3.52,0.03 -7.04,-0.04 -10.55,0.05 3.75,-2.89 5.81,-7.46 5.86,-12.19 -0.02,-4.51 0.02,-9.03 -0.02,-13.54 -5.05,0 -10.11,-0.03 -15.15,0.02 -0.13,4.99 0.24,10.03 -0.19,15.01 -0.2,2.14 -2.98,2.85 -4.51,1.61 -0.49,-1 -0.73,-2.05 -0.7,-3.15 0.01,-6.28 -0.03,-12.57 0.01,-18.85 6.82,-0.25 13.78,0.28 20.54,-0.27 0.02,-8.22 0.06,-16.45 -0.02,-24.67 -0.21,-5.28 -3.74,-10.3 -8.8,-11.94 -6.53,-2.3 -13.89,-2.06 -20.3,0.51 -5.19,3.08 -6.69,9.65 -6.89,15.27 -0.06,12.3 -0.01,24.6 -0.02,36.91 0.05,5.44 1.35,11.24 5.43,15.12 -10.52,0.11 -21.35,0.35 -31.78,-0.11 0,-16.98 0,-33.95 0,-50.92 0.03,-1.45 -0.15,-2.95 0.32,-4.34 1.51,-1.74 5.32,-1.11 5.06,1.57 0.22,7.73 0,15.48 0.11,23.23 5.1,-0.06 10.21,0.04 15.32,-0.06 0.04,-9.15 0,-18.3 0.02,-27.45 -0.3,-3.89 -1.37,-9.08 -5.68,-10.28 -5.7,-2.1 -13.02,0.29 -15.18,6.28 -0.16,-1.89 -0.22,-3.77 -0.12,-5.65 -5.09,-0.2 -10.19,-0.06 -15.28,-0.07 -0.01,22.64 0.01,45.28 -0.01,67.92 -2.58,-0.03 -5.16,0.03 -7.73,-0.02 0.05,-18.96 -0.13,-37.95 0.1,-56.89 1.62,-0.01 3.25,0.04 4.89,0.01 0.07,-3.65 0,-7.3 0.04,-10.95 -1.68,-0.35 -3.44,0.21 -5.06,-0.23 0.13,-1.71 -0.23,-3.47 0.23,-5.14 1.31,-1.14 3.17,-1.19 4.83,-1.27 -0.02,-3.65 0.01,-7.29 -0.02,-10.93 -5.99,0.31 -13.44,-1.6 -17.9,3.55 -3.45,3.91 -1.87,9.47 -2.62,13.96 -1.24,-0.08 -2.47,-0.06 -3.68,0.08 -0.01,3.63 -0.02,7.26 0,10.9 1.29,0.03 2.58,0.04 3.88,0.05 0.1,18.95 0.03,37.91 0.03,56.86 -2.72,0.06 -5.44,-0.05 -8.16,0.06 -0.6,-5.38 -0.03,-11.02 -0.25,-16.49 -5.29,0 -10.57,-0.01 -15.85,0.01 -0.21,5.46 0.36,11.11 -0.26,16.47 -1.84,-0.08 -3.68,-0.01 -5.51,-0.05 -0.04,-19.43 0,-38.86 -0.02,-58.29 0,-3.96 -1.51,-8.67 -5.55,-10.17 -4.53,-1.48 -10.29,-0.77 -13.35,3.21 -1.06,0.78 -1.1,2.46 -2.4,2.93 0,-1.88 0.16,-3.77 0.03,-5.65 -4.95,0.07 -9.91,0.08 -14.86,0 -0.03,22.51 -0.04,45.01 0,67.52 l -0.32,0.52 c -3.44,-0.09 -6.89,-0.09 -10.33,0 2.18,-2.44 4.79,-4.83 5.42,-8.3 0.97,-5.74 0.22,-11.63 0.48,-17.43 -5.12,-0.04 -10.24,0.02 -15.35,-0.04 -0.3,5.21 0.39,10.5 -0.37,15.67 -0.93,2.67 -5.21,1.71 -5.01,-1.09 -0.13,-6.64 -0.06,-13.29 -0.04,-19.93 6.89,-0.07 13.79,0.01 20.68,-0.03 0.17,-6.35 0.03,-12.71 0.07,-19.06 -0.07,-3 0.28,-6.05 -0.52,-8.98 -0.93,-3.45 -3.68,-6 -6.44,-8.08 -7.03,-2.99 -15.17,-3.01 -22.27,-0.25 -4.85,2.98 -6.79,8.88 -6.82,14.32 -0.06,12.97 -0.03,25.94 -0.02,38.92 0.07,4.77 1.05,10.23 4.98,13.41 l 0.15,0.9 c -3.27,-0.18 -6.55,-0.03 -9.82,-0.1 -0.02,-19.4 -0.02,-38.8 0,-58.21 -0.43,-3.11 -0.66,-6.74 -3.15,-8.99 -4.12,-2.71 -9.82,-2.57 -13.94,0.04 -1.89,1.16 -2.26,3.49 -3.73,5 -0.01,-7.75 0.05,-15.51 -0.01,-23.27 -5.14,0.01 -10.29,-0.04 -15.43,0.03 -0.04,28.47 0,56.94 -0.02,85.41 -3.29,0.04 -6.57,-0.08 -9.85,0.08 2.96,-2.94 5.49,-6.81 5.65,-11.21 0.02,-4.86 0.15,-9.75 -0.06,-14.6 -5.04,0.08 -10.08,0.06 -15.11,0 -0.3,5.18 0.15,10.4 -0.24,15.58 -0.92,2.75 -5.36,1.97 -5.4,-0.92 -0.05,-15.03 -0.12,-30.07 0.03,-45.1 0.15,-2.71 4.17,-3.54 5.26,-1.02 0.61,4.45 0.05,9.02 0.3,13.51 5.07,-0.04 10.14,-0.01 15.21,-0.01 0.12,-3.84 0.02,-7.69 0.05,-11.53 -0.02,-5.05 -3.02,-9.96 -7.54,-12.23 -6.75,-2.69 -14.51,-2.74 -21.27,-0.09 -7.8,4.31 -7.3,14.67 -7.24,22.39 0,9.99 0,19.97 0,29.96 0.06,5.46 1.45,11.37 5.35,15.28 -3.28,-0.18 -6.58,-0.03 -9.86,-0.09 -0.02,-19.41 -0.01,-38.82 -0.01,-58.23 -0.22,-3.92 -1.44,-8.68 -5.53,-10.18 -4.33,-1.45 -9.98,-0.99 -13.08,2.7 -1.13,1.05 -1.68,2.54 -2.71,3.68 -0.12,-1.98 0.1,-3.94 -0.04,-5.9 -4.91,0 -9.82,-0.02 -14.73,0.02 -0.42,22.55 -0.05,45.28 -0.18,67.9 -3.62,0.06 -7.23,-0.06 -10.84,0.07 2.71,-2.51 5.56,-5.38 5.81,-9.35 0.2,-5.47 0.07,-10.94 0.08,-16.4 -5.04,0 -10.08,0.02 -15.11,-0.01 -0.19,5.05 0.26,10.13 -0.24,15.15 -0.17,2.13 -3.21,2.81 -4.5,1.26 -0.76,-1.15 -0.74,-2.59 -0.74,-3.91 0.01,-5.92 0.01,-11.84 0,-17.75 6.8,-0.3 13.69,-0.07 20.53,-0.11 0.16,-8.4 0.06,-16.81 0.05,-25.2 0.26,-4.78 -3.29,-8.62 -7,-11.09 -7.01,-2.77 -14.99,-2.87 -22.01,-0.1 -5.83,3.57 -7.04,11 -7.03,17.29 0,11.68 0,23.35 0,35.02 0.22,5.51 1.31,11.65 6.02,15.17 -3.51,-0.13 -7.07,0.14 -10.54,-0.14 -0.04,-22.62 0.05,-45.24 -0.05,-67.86 -5.05,0.09 -10.11,0.01 -15.17,0.04 -0.08,17.61 -0.04,35.22 -0.02,52.83 -0.29,1.61 0.15,4.46 -2.09,4.76 -1.94,0.77 -3.62,-1.03 -3.4,-2.93 -0.1,-18.22 0.04,-36.44 -0.07,-54.66 -5.11,-0.02 -10.21,0.02 -15.32,-0.01 -0.08,19.92 -0.02,39.84 -0.03,59.77 -0.09,3 0.98,5.83 2.76,8.22 -2.48,-0.1 -4.96,-0.02 -7.43,-0.04 -0.01,-19.09 -0.01,-38.18 0,-57.27 0.03,-3.79 -0.71,-8.06 -3.87,-10.53 -4.76,-2.41 -11.37,-1.81 -14.9,2.47 -1.06,0.87 -1.33,2.59 -2.74,2.99 -0.9,-7.6 -11.46,-8.57 -16.52,-4.49 -1.72,1.16 -2.14,3.36 -3.66,4.69 -0.05,-1.94 0.11,-3.88 -0.02,-5.81 -4.41,0.01 -8.82,0 -13.24,0.02 0.16,-15.34 0.11,-30.69 0.07,-46.04 0,-8.35 0.02,-16.71 -0.01,-25.06 0.16,-6.56 0.15,-13.13 0.05,-19.68 -0.29,-13.11 0.26,-26.23 -0.37,-39.32 0.81,-0.01 2.42,-0.05 3.23,-0.07 0.52,-6.63 -0.28,-13.37 0.41,-20.02 0.88,-3.88 3.48,-7.32 6.95,-9.26 1.91,-0.69 4.09,-0.97 5.61,-2.45 0.31,-5.46 0.08,-10.95 0.12,-16.43 -0.19,-2.78 -1.69,-5.84 -0.05,-8.44 1.25,-2.23 4.72,-2.67 4.92,-5.55 0.68,-8.11 1.09,-16.28 1.77,-24.4 0.23,-3.9 1,-7.78 0.6,-11.7 1.03,-6.73 1.05,-13.56 1.69,-20.33 0.67,-1.64 -1.16,-5.09 1.1,-5.41 0.06,1.36 0.11,2.72 0.13,4.09 0.61,5.8 0.66,11.64 1.13,17.45 0.08,3.15 0,6.34 0.64,9.44 0.93,10.23 1.2,20.49 2.2,30.71 0.19,3.38 4.72,3.89 5.5,7.16 0.02,0.85 0.06,2.54 0.08,3.39 -1.48,4.41 -0.55,9.11 -0.91,13.66 0.05,1.97 -0.32,4.03 0.3,5.95 1.3,1.8 3.54,2.18 5.49,2.88 4.34,2.36 7.61,7.24 7.29,12.27 0.3,5.53 -0.32,11.07 -0.04,16.59 1.04,0.44 2.17,0.62 3.39,0.53 -0.3,18.6 -0.1,37.21 -0.13,55.82 0.2,3.33 -0.56,7 0.16,10.12 l 0.91,0.27 c 3.1,-0.5 6.59,0.81 9.38,-0.93 l 0.73,0.76 c 4.48,0.01 8.97,0.06 13.46,0.07 0.16,2.68 -0.1,5.39 0.11,8.08 0.05,1.79 0.06,3.6 0.04,5.4 2.98,-0.21 5.96,0.01 8.95,-0.1 -0.01,-0.5 -0.03,-1.5 -0.04,-2 0.1,-6.47 -0.13,-12.94 0.02,-19.4 1.63,-0.09 3.45,-0.45 5.01,0.07 -0.03,1.31 0.01,2.62 0.13,3.93 0.63,-0.05 1.91,-0.15 2.55,-0.19 0.23,-3.58 0.56,-7.48 -2.37,-10.06 0.1,-14.71 -0.13,-29.41 0.02,-44.11 0.56,-1.78 2.56,-2.87 2.4,-4.9 0.31,-2.36 0.14,-4.86 1.08,-7.08 0.64,3.64 -0.09,7.94 2.85,10.77 l 1.16,-0.09 c 0.23,-5.56 0.17,-11.12 0.1,-16.68 -0.45,-0.52 -1.36,-1.57 -1.81,-2.09 3.33,-2.8 2.04,-7.3 2.42,-11.11 0.58,0.7 1.74,2.08 2.32,2.77 1.83,-4.55 0.66,-9.54 1.03,-14.3 1.55,-1.42 3.78,-2.3 4.03,-4.75 0.66,-7.19 1.11,-14.41 2.02,-21.57 0.29,-2.9 -0.18,-6 0.91,-8.74 1.69,3.38 1,7.27 1.46,10.91 0.7,7.04 0.99,14.13 2.09,21.12 0.37,1.58 2.27,1.73 3.35,2.65 0.34,4.63 -0.7,9.42 0.99,13.88 l 0.96,0.29 c 0.09,-1.05 0.54,-1.85 1.36,-2.4 0,3.86 -0.31,8.27 2.46,11.35 -0.95,1.18 -2.67,2.25 -2.34,4 0.45,4.92 -0.83,10.05 0.83,14.83 4.11,-1.08 3.28,-6.67 4.14,-10.01 1.37,1.27 0.1,3.46 0.78,5.08 -0.14,2.34 1.31,4.15 2.32,6.1 0.15,14.34 0.04,28.69 0.1,43.03 0.45,2.15 -2.68,2.75 -2.36,4.83 0.24,2.22 -1.44,7.8 2.72,6.32 -0.06,-1.3 -0.02,-2.59 0.13,-3.87 1.46,-0.09 2.94,-0.21 4.41,-0.07 0.16,4.83 -0.07,9.67 0.11,14.49 3.9,-0.84 7.84,-1.9 11.55,-3.46 1.27,-2.63 3.15,-5.22 3.09,-8.26 -0.04,-15.01 0.08,-30.03 -0.13,-45.05 -0.23,-3.09 2.28,-5.27 4.1,-7.41 0.15,-3.47 -0.22,-7.05 0.88,-10.4 0.29,-6.05 -0.06,-12.11 0.18,-18.16 0.08,-2.08 1.4,-3.9 1.41,-6 0.02,-8 0.01,-16.01 0.01,-24.01 -0.28,-3.43 1.88,-6.52 1.58,-9.96 -0.2,-4.6 0.41,-9.27 -0.37,-13.83 -1.11,-4.66 -1.32,-9.46 0.04,-14.1 2.68,-8.18 11.24,-13.89 19.82,-13.4 7.99,-0.42 16.4,4.15 19.36,11.77 1.68,3.62 2.2,7.67 1.86,11.63 -0.69,3.01 -2.11,5.84 -2.58,8.89 0.13,3.69 -0.17,7.39 0.12,11.08 1.12,3.76 1.08,7.72 0.96,11.61 0.3,7.13 -0.67,14.34 0.16,21.41 2.19,8.7 -0.6,17.86 2.12,26.49 -0.04,1.71 -0.03,3.43 0.09,5.15 1.45,1.01 2.7,3.52 4.77,2.31 0.76,-8.63 0.15,-17.37 0.35,-26.04 0.43,-2.66 1.96,-5.11 1.76,-7.88 -0.13,-9.13 0.2,-18.29 -0.19,-27.41 0.73,-1.15 0.93,-2.52 1.61,-3.69 0.26,-4.95 0.94,-10.11 -0.83,-14.88 -1.77,-5.08 -0.39,-10.65 1.97,-15.29 1.35,-2.49 3.37,-4.53 5.52,-6.34 4.77,-3.59 10.99,-4.19 16.76,-3.76 3,1 6.22,1.42 8.84,3.38 7.66,5.22 10.45,15.84 7.27,24.4 -0.79,3.41 -0.29,6.97 -0.41,10.45 -0.27,2.8 1.66,5.19 1.64,7.98 0.01,9.04 -0.01,18.09 0.01,27.14 0.18,2.09 1.64,3.82 1.71,5.94 0.1,7.67 -0.12,15.34 0.03,23.02 0.41,4.2 3.51,7.34 4.87,11.21 1.81,1.15 4.35,0.19 6.44,0.49 11.63,0.03 23.25,0.1 34.88,0.05 17.86,0 35.71,-0.01 53.57,0.01 12.1,0.09 24.2,-0.08 36.29,0.08 2.3,4.01 5.49,7.39 7.91,11.32 5.23,6.8 9.72,14.15 15.12,20.8 2.76,4.69 6.37,8.8 9.18,13.44 2.13,2.87 4.16,5.83 6.28,8.71 2.52,3.67 6.3,7.03 6.19,11.85 -0.37,9.94 0.91,19.84 0.9,29.79 1.41,0.27 2.35,-1.24 3.41,-1.93 2.85,-3.09 6.52,-5.31 9.16,-8.6 l 2.03,0.55 c -0.6,-0.79 -0.74,-1.65 -0.42,-2.59 -0.13,-8.6 -0.48,-17.24 -0.9,-25.85 0.13,-14.17 0.27,-28.33 0.1,-42.5 -0.45,-2.19 -1.99,-3.86 -2.84,-5.87 2.31,-0.17 4.63,-0.02 6.95,-0.2 1.11,-0.87 0.3,-2.63 0.57,-3.82 -0.15,-2.73 0.24,-5.51 -0.17,-8.21 -2.43,-0.55 -4.95,-0.94 -6.98,-2.48 -0.57,-0.66 -1.71,-1.98 -2.28,-2.63 1,-0.53 2.11,-0.67 3.34,-0.42 3.6,0.02 7.21,0.08 10.81,-0.02 5.01,-0.06 10.01,0.01 15.02,-0.09 1.6,-0.46 1.53,-2.37 2.2,-3.6 0.81,-3.35 2.47,-6.36 3.93,-9.44 1.88,1.43 1.92,4.28 3.52,6.01 3.21,-4.26 5.62,-9.03 8.58,-13.46 3.46,3.82 5.19,9.33 8.56,13.24 0.96,-2.06 2.19,-3.97 3.14,-6.04 2.62,4.13 3.29,9.12 5.79,13.32 3.04,0.12 6.09,-0.04 9.14,0.08 4.06,0.14 8.12,0.09 12.18,0.02 3.81,0.36 8.18,-0.77 11.69,0.47 -2.4,3 -6.3,4.07 -9.58,5.75 -0.17,3.35 -0.17,6.76 0.01,10.11 1.35,0.29 2.74,0.38 4.17,0.27 0.21,2.51 -2.27,4.52 -1.99,7.1 0.07,10.85 -0.09,21.7 0.09,32.55 -0.42,10.5 -0.16,21.05 -0.08,31.56 -0.36,2.23 0.13,4.26 2.7,4.5 5.93,1.8 11.83,3.94 17.95,4.94 2.61,0.42 5.04,1.63 7.65,1.98 5.33,2.01 10.96,3.26 16.43,4.78 1.89,1.23 4.32,1.54 6.57,1.7 3.48,1.28 7.28,1.98 10.74,3.42 2.27,1.91 3.78,4.56 5.57,6.89 1.43,1.77 2.19,5.43 4.7,5.47 0.42,-2.43 0.11,-4.94 0.22,-7.39 0.01,-5.76 -0.03,-11.5 -0.28,-17.24 0.2,-2.2 -0.15,-4.57 0.51,-6.67 2.36,-1.47 5.33,0.02 7.78,-0.86 0.08,-3.22 0.01,-6.44 0.01,-9.66 0.11,-4.99 -0.24,-10 0.32,-14.97 0.16,-4.58 -0.39,-9.22 0.57,-13.74 3.82,-16.61 5.59,-33.59 9.55,-50.17 0.16,0.18 0.47,0.55 0.63,0.73 1.77,14.32 5.8,28.19 7.56,42.51 3.12,9.97 0.8,20.54 1.92,30.75 0.22,0.45 0.66,1.36 0.88,1.82 2.71,4.89 4.53,10.21 7.61,14.93 0.76,-0.68 1.45,-1.42 2.07,-2.25 0.37,-8.5 -0.39,-17.08 0.54,-25.54 -0.34,-13.32 -0.59,-26.63 -0.44,-39.98 0.25,-3.43 -2.53,-6.59 -1.44,-10.04 0.45,-2.74 2.79,-4.44 4.85,-6.02 0.06,-1.64 0.16,-3.3 -0.12,-4.92 -1.38,-0.42 -2.86,-0.37 -4.16,-1.01 -0.81,-5.01 1.02,-10.34 4.74,-13.81 3.31,-4.16 10.42,-3.69 12.21,-9.32 0.23,-3.75 1.03,-7.96 -1.08,-11.33 -2.31,-4.07 -1.28,-9.88 2.88,-12.37 2.05,-1.16 2,-3.85 2.7,-5.83 1.55,-3.6 0.24,-7.7 2.24,-11.22 1.19,5.31 0.74,11.23 3.51,16.15 4.14,2.44 6.21,8.01 4.22,12.48 -2.07,3.78 -1.09,8.19 -1.17,12.29 0.32,2.49 2.45,3.96 4.55,4.94 7.79,1.83 13.47,9.9 12.41,17.81 -1.37,0.88 -3.11,0.62 -4.49,1.39 -0.7,1.43 -0.5,3.28 -0.15,4.81 1.52,1.37 3.11,2.71 4.3,4.41 3.29,3.61 -1.04,7.55 -0.98,11.47 0.02,19.9 -0.1,39.8 0.05,59.69 5.27,2.44 11.23,3.08 16.58,5.43 l 0.47,-0.52 c 0.28,-6.37 -0.11,-12.77 0.23,-19.14 3.85,0.74 7.54,2.3 11.4,3.19 3.89,1.23 7.95,1.95 11.74,3.56 1.48,0.16 3.07,1 4.54,0.55 0.71,-11.26 2.75,18.73787 3.38,7.47787 1.17,-5.7 0.58,4.42738 2.14,-1.15262 2.06,-0.11 1.1823,51.45983 3.2523,-5.69541 2.45,0.22 -1.60656,72.15606 1.37229,4.57 30.08259,-27.03319 17.08234,30.0947 23.24541,26.38016 z"
     id="path8"
     style="fill:#00ff00"
     inkscape:connector-curvature="0"
     sodipodi:nodetypes="ccccccccccccccccccccccccccccccccccccccccccccccccccccccccccccccccccccccccccccccccccccccccccccccccccccccccccccccccccccccccccccccccccccccccccccccccccccccccccccccccccccccccccccccccccccccccccccccccccccccccccccccccccccccccccccccccccccccccccccccccccccccccccccccccccccccccccccccccccccccccccccccccccccccccccccccccccccccccccccccccccccccccccccccccccccccccccccccccccccccccccccccccccccccccccccccccccccccccccccccccccccccccccccccccccccccccccc" />
  <path
     fill="#d6d3d3"
     d=" M 132.55 98.53 C 141.51 95.55 150.90 94.17 160.17 92.47 C 172.05 90.85 184.06 91.83 196.00 91.56 C 207.24 91.10 218.31 93.48 229.27 95.61 C 233.92 96.96 238.88 97.54 243.08 100.08 C 253.48 102.63 262.94 107.80 272.46 112.53 C 285.70 120.20 298.21 129.15 309.34 139.65 C 313.50 144.66 319.42 148.38 322.24 154.41 C 313.80 161.29 304.86 167.71 297.95 176.24 C 296.00 174.85 294.20 173.26 292.66 171.42 C 287.32 164.75 280.61 159.37 274.03 153.98 C 257.49 140.61 237.58 131.98 217.12 126.68 C 187.77 120.59 156.21 122.17 128.62 134.49 C 116.84 139.08 105.79 145.48 95.77 153.20 C 95.75 151.83 95.70 150.47 95.64 149.11 C 93.38 149.43 95.21 152.88 94.54 154.52 C 68.36 174.35 50.34 204.12 42.73 235.92 C 39.54 251.67 37.97 267.92 40.03 283.93 C 41.41 293.43 42.36 303.12 45.93 312.11 C 51.20 328.33 58.95 343.90 69.62 357.23 C 69.66 372.58 69.71 387.93 69.55 403.27 C 65.30 400.28 61.82 396.42 58.27 392.68 C 55.30 390.98 53.88 387.80 51.50 385.48 C 46.22 379.59 41.64 373.16 36.84 366.90 C 35.53 363.53 33.45 360.56 31.41 357.61 C 25.78 347.15 20.13 336.57 17.15 325.00 C 15.90 322.82 14.92 320.52 14.61 318.01 C 11.45 307.27 10.00 296.13 8.73 285.05 C 8.72 274.04 8.70 263.02 8.73 252.01 C 10.04 240.56 11.77 229.10 14.91 217.99 C 14.92 215.24 17.21 213.39 17.63 210.77 C 20.67 199.67 26.27 189.57 31.55 179.43 C 34.99 175.39 36.50 170.06 40.29 166.27 C 41.73 164.93 42.39 163.05 43.45 161.44 C 48.14 156.12 52.43 150.43 57.41 145.37 C 75.21 126.92 96.99 112.21 120.86 102.83 C 124.60 100.92 128.99 100.81 132.55 98.53 Z"
     id="path10" />
  <path
     fill="#ffffff"
     d=" M 521.45 141.46 C 556.93 114.15 605.21 104.86 648.40 116.38 C 670.36 122.02 690.95 132.93 708.00 147.86 C 701.36 148.96 694.71 150.37 688.26 152.41 C 685.10 149.46 680.98 147.96 677.57 145.39 C 674.13 142.88 669.92 141.83 666.38 139.51 C 661.40 136.75 655.63 135.89 650.59 133.34 C 644.87 131.62 639.07 130.29 633.15 129.54 C 622.92 127.28 612.42 128.05 602.04 127.93 C 594.60 128.17 587.30 129.83 579.98 130.98 C 576.21 132.17 572.12 132.51 568.69 134.58 C 563.53 136.18 558.21 137.68 553.57 140.53 C 550.76 142.13 547.56 142.96 544.93 144.89 C 540.89 147.87 536.01 149.66 532.49 153.33 C 528.67 155.03 526.18 158.47 522.77 160.73 C 513.96 168.62 506.23 177.66 499.61 187.45 C 497.61 185.39 496.32 182.77 494.37 180.66 C 492.73 178.52 490.25 176.97 489.34 174.33 C 498.40 161.91 509.10 150.65 521.45 141.46 Z"
     id="path12" />
  <path
     fill="#ffffff"
     d=" M 128.62 134.49 C 156.21 122.17 187.77 120.59 217.12 126.68 C 237.58 131.98 257.49 140.61 274.03 153.98 C 280.61 159.37 287.32 164.75 292.66 171.42 C 294.20 173.26 296.00 174.85 297.95 176.24 L 297.76 176.73 C 291.99 176.30 285.77 176.90 281.00 180.49 C 276.56 177.64 273.70 172.76 269.27 169.81 C 267.78 168.99 266.87 167.51 265.63 166.40 C 259.64 162.42 254.07 157.74 247.48 154.72 C 245.17 154.26 242.86 153.50 241.01 151.99 C 237.72 149.32 233.62 148.04 229.96 146.03 C 222.83 144.00 215.81 141.30 208.38 140.44 C 198.16 137.54 187.48 138.90 177.01 138.59 C 167.41 138.07 158.06 140.64 148.79 142.63 C 131.53 147.46 115.28 156.01 101.34 167.28 C 100.24 168.85 98.63 169.88 96.90 170.65 C 96.43 164.84 96.38 159.00 95.77 153.20 C 105.79 145.48 116.84 139.08 128.62 134.49 Z"
     id="path14" />
  <path
     fill="#fbb610"
     d=" M 579.98 130.98 C 587.30 129.83 594.60 128.17 602.04 127.93 C 612.42 128.05 622.92 127.28 633.15 129.54 C 639.07 130.29 644.87 131.62 650.59 133.34 C 655.63 135.89 661.40 136.75 666.38 139.51 C 669.92 141.83 674.13 142.88 677.57 145.39 C 680.98 147.96 685.10 149.46 688.26 152.41 C 692.16 154.95 695.60 158.07 699.22 160.98 C 724.77 183.82 741.38 216.67 743.28 251.01 C 743.29 256.01 743.22 261.01 743.32 266.01 C 741.22 265.03 739.09 263.56 738.77 261.07 C 738.85 256.97 737.87 252.56 739.94 248.78 C 741.93 244.31 739.86 238.74 735.72 236.30 C 732.95 231.38 733.40 225.46 732.21 220.15 C 730.21 223.67 731.52 227.77 729.97 231.37 C 726.62 218.42 721.99 205.72 714.43 194.63 C 713.06 190.90 709.81 188.43 708.01 184.98 C 701.97 177.50 695.42 170.32 687.82 164.38 C 684.30 161.39 680.48 158.76 676.63 156.22 C 660.29 145.58 641.35 139.35 621.99 137.41 C 614.65 137.40 607.32 137.43 599.99 137.40 C 561.35 140.07 524.84 162.69 505.16 196.00 C 502.52 199.14 501.32 203.13 499.30 206.64 C 496.11 211.52 495.35 217.58 492.73 222.77 C 490.19 232.99 487.67 243.41 488.14 254.03 C 488.32 264.03 487.32 274.22 490.03 283.99 C 490.24 288.11 491.89 291.91 492.52 295.95 C 495.45 301.76 496.33 308.47 500.05 313.89 C 501.85 317.66 503.61 321.43 506.15 324.79 C 507.92 327.17 508.82 330.24 511.28 332.06 C 511.98 337.26 511.68 342.58 511.68 347.83 C 507.21 344.26 503.98 338.92 500.54 334.22 C 498.29 330.89 496.26 327.43 494.27 323.95 C 483.69 304.45 477.61 282.23 478.35 259.96 C 477.65 237.99 483.76 216.18 494.00 196.85 C 495.82 193.69 497.83 190.63 499.61 187.45 C 506.23 177.66 513.96 168.62 522.77 160.73 C 526.18 158.47 528.67 155.03 532.49 153.33 C 536.01 149.66 540.89 147.87 544.93 144.89 C 547.56 142.96 550.76 142.13 553.57 140.53 C 558.21 137.68 563.53 136.18 568.69 134.58 C 572.12 132.51 576.21 132.17 579.98 130.98 Z"
     id="path16" />
  <path
     fill="#9e9a9c"
     d=" M 363.95 136.49 C 369.98 135.51 375.91 134.07 382.01 133.57 C 390.33 133.58 398.65 133.57 406.97 133.58 C 413.68 134.25 420.23 135.77 426.87 136.89 C 435.04 139.60 443.26 142.25 451.02 145.99 C 461.46 150.93 471.06 157.57 479.65 165.29 C 483.46 167.65 485.74 171.68 489.34 174.33 C 490.25 176.97 492.73 178.52 494.37 180.66 C 496.32 182.77 497.61 185.39 499.61 187.45 C 497.83 190.63 495.82 193.69 494.00 196.85 C 490.72 192.20 487.53 187.46 483.53 183.38 C 472.95 171.14 459.88 161.08 445.34 153.99 C 436.33 149.20 426.40 146.33 416.39 144.44 C 406.47 141.75 396.15 142.84 386.00 142.62 C 379.94 142.38 374.00 143.81 368.12 145.06 C 354.05 147.80 340.68 153.60 328.75 161.51 C 320.87 167.11 313.45 173.28 306.60 180.11 C 303.98 178.15 300.76 177.73 297.76 176.73 L 297.95 176.24 C 304.86 167.71 313.80 161.29 322.24 154.41 C 326.01 153.77 328.42 150.27 331.96 148.95 C 336.68 147.26 340.64 143.91 345.50 142.60 C 351.69 140.60 357.54 137.73 363.95 136.49 Z"
     id="path18" />
  <path
     fill="#ffffff"
     d=" M 505.16 196.00 C 524.84 162.69 561.35 140.07 599.99 137.40 C 607.32 137.43 614.65 137.40 621.99 137.41 C 641.35 139.35 660.29 145.58 676.63 156.22 C 661.60 162.35 647.18 170.29 634.81 180.85 C 612.82 198.79 596.42 223.22 587.43 250.10 C 584.50 260.61 580.97 271.20 581.14 282.24 C 578.09 282.12 575.04 282.28 572.00 282.16 C 569.50 277.96 568.83 272.97 566.21 268.84 C 565.26 270.91 564.03 272.82 563.07 274.88 C 559.70 270.97 557.97 265.46 554.51 261.64 C 551.55 266.07 549.14 270.84 545.93 275.10 C 544.33 273.37 544.29 270.52 542.41 269.09 C 540.95 272.17 539.29 275.18 538.48 278.53 C 537.81 279.76 537.88 281.67 536.28 282.13 C 531.27 282.23 526.27 282.16 521.26 282.22 C 522.77 271.55 522.08 260.76 522.22 250.02 C 521.32 240.58 519.97 231.10 516.86 222.12 C 514.45 216.98 513.58 211.20 510.46 206.38 C 508.66 202.94 507.37 199.23 505.16 196.00 Z"
     id="path20" />
  <path
     fill="#9e9a9c"
     d=" M 148.79 142.63 C 158.06 140.64 167.41 138.07 177.01 138.59 C 187.48 138.90 198.16 137.54 208.38 140.44 C 215.81 141.30 222.83 144.00 229.96 146.03 C 233.62 148.04 237.72 149.32 241.01 151.99 C 242.86 153.50 245.17 154.26 247.48 154.72 C 254.07 157.74 259.64 162.42 265.63 166.40 C 266.87 167.51 267.78 168.99 269.27 169.81 C 273.70 172.76 276.56 177.64 281.00 180.49 C 278.85 182.30 276.83 184.34 275.48 186.83 C 272.05 182.52 267.96 178.81 263.88 175.14 C 261.74 173.99 260.12 172.24 258.44 170.55 C 249.28 164.32 239.89 158.17 229.40 154.40 C 223.67 151.85 217.52 150.53 211.63 148.43 C 207.37 147.77 203.10 147.22 198.86 146.40 C 188.70 146.32 178.51 146.16 168.35 146.48 C 162.62 147.75 156.57 147.71 151.12 150.10 C 141.73 152.66 132.65 156.36 124.11 161.03 C 119.36 163.96 114.65 166.96 109.98 170.02 C 108.27 171.65 106.76 173.52 104.63 174.63 C 102.05 176.19 100.65 179.44 97.54 180.09 C 96.90 176.99 96.98 173.80 96.90 170.65 C 98.63 169.88 100.24 168.85 101.34 167.28 C 115.28 156.01 131.53 147.46 148.79 142.63 Z"
     id="path22" />
  <path
     fill="#ffffff"
     d=" M 368.12 145.06 C 374.00 143.81 379.94 142.38 386.00 142.62 C 396.15 142.84 406.47 141.75 416.39 144.44 C 426.40 146.33 436.33 149.20 445.34 153.99 C 419.31 194.12 409.08 243.70 416.61 290.80 C 398.75 290.78 380.90 290.79 363.04 290.79 C 363.74 283.88 363.31 276.93 363.44 270.00 C 363.30 258.87 364.13 247.60 361.65 236.65 C 360.89 229.62 358.46 222.95 356.99 216.06 C 354.51 209.80 352.27 203.44 349.97 197.11 C 348.81 194.12 346.65 191.65 345.54 188.63 C 343.53 183.02 339.71 178.37 336.91 173.18 C 334.60 169.00 331.33 165.50 328.75 161.51 C 340.68 153.60 354.05 147.80 368.12 145.06 Z"
     id="path24" />
  <path
     fill="#ffffff"
     d=" M 168.35 146.48 C 178.51 146.16 188.70 146.32 198.86 146.40 C 203.10 147.22 207.37 147.77 211.63 148.43 C 217.52 150.53 223.67 151.85 229.40 154.40 C 239.89 158.17 249.28 164.32 258.44 170.55 C 260.12 172.24 261.74 173.99 263.88 175.14 C 267.96 178.81 272.05 182.52 275.48 186.83 C 273.12 191.47 271.74 197.04 273.51 202.12 C 275.28 206.89 274.60 212.05 274.34 217.00 C 273.66 218.17 273.46 219.54 272.73 220.69 C 270.52 225.52 269.26 230.83 268.34 236.07 C 266.77 232.93 265.49 229.66 263.67 226.66 C 263.79 222.77 263.83 218.81 262.71 215.05 C 262.42 211.36 262.72 207.66 262.59 203.97 C 263.06 200.92 264.48 198.09 265.17 195.08 C 265.51 191.12 264.99 187.07 263.31 183.45 C 260.35 175.83 251.94 171.26 243.95 171.68 C 235.37 171.19 226.81 176.90 224.13 185.08 C 223.78 186.07 223.45 187.06 223.13 188.06 C 214.09 182.55 203.43 180.47 193.07 179.00 C 183.86 179.37 174.50 178.03 165.44 180.16 C 152.24 182.33 139.84 188.14 129.01 195.90 C 119.65 202.83 111.19 211.18 105.32 221.35 C 105.30 220.50 105.26 218.81 105.24 217.96 C 104.46 214.69 99.93 214.18 99.74 210.80 C 98.74 200.58 98.47 190.32 97.54 180.09 C 100.65 179.44 102.05 176.19 104.63 174.63 C 106.76 173.52 108.27 171.65 109.98 170.02 C 114.65 166.96 119.36 163.96 124.11 161.03 C 132.65 156.36 141.73 152.66 151.12 150.10 C 156.57 147.71 162.62 147.75 168.35 146.48 Z"
     id="path26" />
  <path
     d="m 708,147.86 c 22.31,-3.29 45.42,-1.86 67.02,4.75 14.19,4.57 27.85,10.88 40.29,19.15 6.06754,3.4718 -7.29738,-3.72328 6.36852,3.62803 C 821.17,177.3323 821.53,175.08 821.71,175.28 c 0.17,4.31 0.64,8.61 0.48,12.93 -1.28,0.11 -2.54,0.12 -3.8,0.05 -10.19,-8.49 -21.89,-15.1 -34.13,-20.14 -20.58,-8.28 -43.07,-11.7 -65.18,-9.93 -6.71,0.1 -13.29,1.56 -19.86,2.79 -3.62,-2.91 -7.06,-6.03 -10.96,-8.57 6.45,-2.04 13.1,-3.45 19.74,-4.55 z"
     id="path28"
     inkscape:connector-curvature="0"
     style="fill:#9e9a9c"
     sodipodi:nodetypes="cccccccccccc" />
  <path
     fill="#dd0368"
     d=" M 445.34 153.99 C 459.88 161.08 472.95 171.14 483.53 183.38 C 465.44 212.88 458.47 248.86 463.94 283.00 C 465.88 296.84 470.35 310.21 475.93 323.00 C 470.53 316.35 466.04 309.00 460.81 302.20 C 458.39 298.27 455.20 294.89 452.90 290.88 C 440.81 290.72 428.71 290.89 416.61 290.80 C 409.08 243.70 419.31 194.12 445.34 153.99 Z"
     id="path30" />
  <path
     fill="#ffffff"
     d=" M 42.73 235.92 C 50.34 204.12 68.36 174.35 94.54 154.52 C 93.90 161.29 93.88 168.12 92.85 174.85 C 91.10 177.08 89.00 178.98 86.91 180.88 C 75.96 193.34 66.93 207.58 61.21 223.13 C 60.08 228.35 57.67 233.18 56.42 238.36 C 56.07 243.28 54.26 248.01 54.34 252.98 C 54.15 262.99 54.20 273.01 54.31 283.02 C 54.18 288.29 55.96 293.33 56.54 298.53 C 58.66 305.89 61.17 313.13 63.74 320.33 C 65.80 324.22 67.76 328.17 69.61 332.17 C 69.64 340.52 69.62 348.88 69.62 357.23 C 58.95 343.90 51.20 328.33 45.93 312.11 C 42.36 303.12 41.41 293.43 40.03 283.93 C 37.97 267.92 39.54 251.67 42.73 235.92 Z"
     id="path32" />
  <path
     fill="#9e9a9c"
     d=" M 676.63 156.22 C 680.48 158.76 684.30 161.39 687.82 164.38 C 673.81 168.96 660.37 175.68 648.70 184.72 C 642.13 191.16 634.71 196.72 628.75 203.77 C 611.11 222.76 599.32 246.91 594.53 272.36 C 593.73 275.60 593.23 278.91 593.32 282.26 C 589.26 282.33 585.20 282.38 581.14 282.24 C 580.97 271.20 584.50 260.61 587.43 250.10 C 596.42 223.22 612.82 198.79 634.81 180.85 C 647.18 170.29 661.60 162.35 676.63 156.22 Z"
     id="path34" />
  <path
     fill="#ffffff"
     d=" M 699.22 160.98 C 705.79 159.75 712.37 158.29 719.08 158.19 C 739.73 180.57 754.08 209.21 757.85 239.46 C 759.00 242.85 757.94 246.67 759.32 249.99 C 759.42 256.69 759.48 263.40 759.30 270.11 C 757.99 273.30 758.94 276.94 757.97 280.22 C 757.02 284.94 756.96 289.85 755.39 294.43 C 754.20 292.73 752.61 291.39 751.09 290.02 C 750.74 288.49 750.54 286.64 751.24 285.21 C 752.62 284.44 754.36 284.70 755.73 283.82 C 756.79 275.91 751.11 267.84 743.32 266.01 C 743.22 261.01 743.29 256.01 743.28 251.01 C 741.38 216.67 724.77 183.82 699.22 160.98 Z"
     id="path36" />
  <path
     fill="#dd0368"
     d=" M 719.08 158.19 C 741.19 156.42 763.68 159.84 784.26 168.12 C 792.51 182.38 797.89 198.24 801.91 214.19 C 813.17 261.15 806.65 312.20 783.14 354.55 C 779.28 353.66 775.59 352.10 771.74 351.36 C 771.40 357.73 771.79 364.13 771.51 370.50 L 771.04 371.02 C 765.69 368.67 759.73 368.03 754.46 365.59 C 754.31 345.70 754.43 325.80 754.41 305.90 C 754.35 301.98 758.68 298.04 755.39 294.43 C 756.96 289.85 757.02 284.94 757.97 280.22 C 758.94 276.94 757.99 273.30 759.30 270.11 C 759.48 263.40 759.42 256.69 759.32 249.99 C 757.94 246.67 759.00 242.85 757.85 239.46 C 754.08 209.21 739.73 180.57 719.08 158.19 Z"
     id="path38" />
  <path
     fill="#d6d3d3"
     d=" M 306.60 180.11 C 313.45 173.28 320.87 167.11 328.75 161.51 C 331.33 165.50 334.60 169.00 336.91 173.18 C 339.71 178.37 343.53 183.02 345.54 188.63 C 346.65 191.65 348.81 194.12 349.97 197.11 C 352.27 203.44 354.51 209.80 356.99 216.06 C 358.46 222.95 360.89 229.62 361.65 236.65 C 364.13 247.60 363.30 258.87 363.44 270.00 C 363.31 276.93 363.74 283.88 363.04 290.79 C 351.41 290.84 339.79 290.77 328.16 290.74 C 330.92 271.12 330.13 250.95 325.36 231.71 C 322.60 223.61 320.10 215.40 316.42 207.66 C 315.89 206.38 314.93 205.37 313.87 204.51 C 317.05 195.95 314.26 185.33 306.60 180.11 Z"
     id="path40" />
  <path
     fill="#ffffff"
     d=" M 784.26 168.12 C 796.50 173.16 808.20 179.77 818.39 188.26 C 815.87 188.01 811.85 188.41 812.48 191.97 C 812.42 196.08 817.47 195.74 820.17 196.96 C 820.54 198.34 821.04 199.88 820.51 201.30 C 815.17 201.25 812.23 206.23 807.57 207.95 C 810.68 213.44 804.80 219.35 807.46 225.03 C 811.11 227.17 815.40 227.59 819.27 228.97 L 819.26 229.83 C 815.84 233.69 810.21 233.92 806.26 237.06 C 807.78 238.09 809.04 239.44 810.33 240.75 C 810.60 243.07 808.91 244.99 807.83 246.88 C 808.69 248.70 810.41 250.72 809.43 252.84 C 808.55 254.82 807.21 257.31 808.76 259.33 C 811.75 261.66 816.62 260.52 818.74 264.25 C 819.37 280.30 819.05 296.38 819.20 312.47 C 818.10 313.16 816.51 313.13 815.44 312.45 C 813.93 311.00 813.58 308.10 811.13 307.88 C 809.06 307.75 807.00 307.59 804.94 307.70 C 803.38 313.28 803.97 319.31 802.80 325.01 C 802.17 336.27 800.13 347.40 799.42 358.66 C 797.95 359.11 796.36 358.27 794.88 358.11 C 791.09 356.50 787.03 355.78 783.14 354.55 C 806.65 312.20 813.17 261.15 801.91 214.19 C 797.89 198.24 792.51 182.38 784.26 168.12 Z"
     id="path44" />
  <path
     fill="#9e9a9c"
     d=" M 86.91 180.88 C 89.00 178.98 91.10 177.08 92.85 174.85 C 93.25 178.77 92.48 182.65 92.25 186.55 C 90.03 189.89 86.61 192.24 84.76 195.84 C 83.22 198.86 80.80 201.28 79.04 204.16 C 77.37 208.65 73.48 212.04 72.50 216.84 C 70.21 222.34 67.12 227.54 66.22 233.53 C 60.52 248.34 61.53 264.40 61.58 279.99 C 61.39 283.05 62.86 285.88 62.60 288.96 C 63.59 296.68 66.59 303.94 68.49 311.47 C 68.78 311.72 69.37 312.23 69.66 312.49 C 69.76 319.04 69.77 325.61 69.61 332.17 C 67.76 328.17 65.80 324.22 63.74 320.33 C 61.17 313.13 58.66 305.89 56.54 298.53 C 55.96 293.33 54.18 288.29 54.31 283.02 C 54.20 273.01 54.15 262.99 54.34 252.98 C 54.26 248.01 56.07 243.28 56.42 238.36 C 57.67 233.18 60.08 228.35 61.21 223.13 C 66.93 207.58 75.96 193.34 86.91 180.88 Z"
     id="path46" />
  <path
     fill="#9e9a9c"
     d=" M 165.44 180.16 C 174.50 178.03 183.86 179.37 193.07 179.00 C 203.43 180.47 214.09 182.55 223.13 188.06 C 223.45 187.06 223.78 186.07 224.13 185.08 C 222.77 189.72 222.98 194.52 224.09 199.18 C 223.68 197.53 223.29 195.86 222.58 194.31 C 217.51 192.02 212.43 189.70 207.03 188.29 C 196.50 184.14 185.07 184.86 173.97 184.90 C 159.30 186.86 144.88 192.02 132.88 200.84 C 129.44 202.64 127.15 205.89 123.99 208.07 C 121.52 209.57 120.50 212.46 118.30 214.26 C 115.88 216.29 114.91 219.45 112.49 221.44 C 109.88 225.31 107.62 229.40 105.52 233.57 C 104.27 235.81 104.84 238.50 104.71 240.96 C 104.09 239.04 104.46 236.98 104.41 235.01 C 104.77 230.46 103.84 225.76 105.32 221.35 C 111.19 211.18 119.65 202.83 129.01 195.90 C 139.84 188.14 152.24 182.33 165.44 180.16 Z"
     id="path48" />
  <path
     fill="#ffffff"
     d=" M 483.53 183.38 C 487.53 187.46 490.72 192.20 494.00 196.85 C 483.76 216.18 477.65 237.99 478.35 259.96 C 477.61 282.23 483.69 304.45 494.27 323.95 C 491.62 328.39 488.48 332.52 485.11 336.44 C 482.30 331.80 478.69 327.69 475.93 323.00 C 470.35 310.21 465.88 296.84 463.94 283.00 C 458.47 248.86 465.44 212.88 483.53 183.38 Z"
     id="path50" />
  <path
     fill="#ffffff"
     d=" M 132.88 200.84 C 144.88 192.02 159.30 186.86 173.97 184.90 C 185.07 184.86 196.50 184.14 207.03 188.29 C 212.43 189.70 217.51 192.02 222.58 194.31 C 223.29 195.86 223.68 197.53 224.09 199.18 C 224.87 203.74 224.26 208.41 224.46 213.01 C 224.76 216.45 222.60 219.54 222.88 222.97 C 222.88 230.97 222.89 238.98 222.87 246.98 C 222.86 249.08 221.54 250.90 221.46 252.98 C 221.22 259.03 221.57 265.09 221.28 271.14 C 220.18 274.49 220.55 278.07 220.40 281.54 C 218.58 283.68 216.07 285.86 216.30 288.95 C 216.51 303.97 216.39 318.99 216.43 334.00 C 216.49 337.04 214.61 339.63 213.34 342.26 C 209.63 343.82 205.69 344.88 201.79 345.72 C 201.61 340.90 201.84 336.06 201.68 331.23 C 200.21 331.09 198.73 331.21 197.27 331.30 C 197.12 332.58 197.08 333.87 197.14 335.17 C 192.98 336.65 194.66 331.07 194.42 328.85 C 194.10 326.77 197.23 326.17 196.78 324.02 C 196.72 309.68 196.83 295.33 196.68 280.99 C 195.67 279.04 194.22 277.23 194.36 274.89 C 193.68 273.27 194.95 271.08 193.58 269.81 C 192.72 273.15 193.55 278.74 189.44 279.82 C 187.78 275.04 189.06 269.91 188.61 264.99 C 188.28 263.24 190.00 262.17 190.95 260.99 C 188.18 257.91 188.49 253.50 188.49 249.64 C 187.67 250.19 187.22 250.99 187.13 252.04 L 186.17 251.75 C 184.48 247.29 185.52 242.50 185.18 237.87 C 184.10 236.95 182.20 236.80 181.83 235.22 C 180.73 228.23 180.44 221.14 179.74 214.10 C 179.28 210.46 179.97 206.57 178.28 203.19 C 177.19 205.93 177.66 209.03 177.37 211.93 C 176.46 219.09 176.01 226.31 175.35 233.50 C 175.10 235.95 172.87 236.83 171.32 238.25 C 170.95 243.01 172.12 248.00 170.29 252.55 C 169.71 251.86 168.55 250.48 167.97 249.78 C 167.59 253.59 168.88 258.09 165.55 260.89 C 166.00 261.41 166.91 262.46 167.36 262.98 C 167.43 268.54 167.49 274.10 167.26 279.66 L 166.10 279.75 C 163.16 276.92 163.89 272.62 163.25 268.98 C 162.31 271.20 162.48 273.70 162.17 276.06 C 162.33 278.09 160.33 279.18 159.77 280.96 C 159.62 295.66 159.85 310.36 159.75 325.07 C 162.68 327.65 162.35 331.55 162.12 335.13 C 161.48 335.17 160.20 335.27 159.57 335.32 C 159.45 334.01 159.41 332.70 159.44 331.39 C 157.88 330.87 156.06 331.23 154.43 331.32 C 154.28 337.78 154.51 344.25 154.41 350.72 C 151.39 349.71 148.59 348.06 145.46 347.42 C 145.25 344.73 145.51 342.02 145.35 339.34 C 140.86 339.33 136.37 339.28 131.89 339.27 L 131.16 338.51 C 127.87 335.14 124.07 332.33 120.71 329.05 C 120.74 310.44 120.54 291.83 120.84 273.23 C 119.62 273.32 118.49 273.14 117.45 272.70 C 117.17 267.18 117.79 261.64 117.49 256.11 C 117.81 251.08 114.54 246.20 110.20 243.84 C 108.25 243.14 106.01 242.76 104.71 240.96 C 104.84 238.50 104.27 235.81 105.52 233.57 C 107.62 229.40 109.88 225.31 112.49 221.44 C 114.91 219.45 115.88 216.29 118.30 214.26 C 120.50 212.46 121.52 209.57 123.99 208.07 C 127.15 205.89 129.44 202.64 132.88 200.84 Z"
     id="path54" />
  <path
     fill="#ffffff"
     d=" M 84.76 195.84 C 86.61 192.24 90.03 189.89 92.25 186.55 C 91.57 194.67 91.16 202.84 90.48 210.95 C 90.28 213.83 86.81 214.27 85.56 216.50 C 83.92 219.10 85.42 222.16 85.61 224.94 C 85.57 230.42 85.80 235.91 85.49 241.37 C 83.97 242.85 81.79 243.13 79.88 243.82 C 76.41 245.76 73.81 249.20 72.93 253.08 C 72.24 259.73 73.04 266.47 72.52 273.10 C 71.71 273.12 70.10 273.16 69.29 273.17 C 69.92 286.26 69.37 299.38 69.66 312.49 C 69.37 312.23 68.78 311.72 68.49 311.47 C 66.59 303.94 63.59 296.68 62.60 288.96 C 62.86 285.88 61.39 283.05 61.58 279.99 C 61.53 264.40 60.52 248.34 66.22 233.53 C 67.12 227.54 70.21 222.34 72.50 216.84 C 73.48 212.04 77.37 208.65 79.04 204.16 C 80.80 201.28 83.22 198.86 84.76 195.84 Z"
     id="path56" />
  <path
     d="M 821.58709,175.38064 C 839.56231,188.62606 863.32,221.77 871.25,239.75 c 0.98,3.87 2.75,7.47 4.03,11.25 6.2,20.22 8.96,41.68 6.32,62.76 -2.8,25.15 -11.9,49.63 -26.51,70.31 -4.6,6.93 -10.27,12.98 -15.71,19.23 -1.67,-0.05 -3.32,-0.1 -4.97,-0.02 -0.17,-3.74 -0.07,-7.49 -0.06,-11.23 0.97,-2.1 3,-3.54 4.33,-5.44 24.53,-28.84 35.42,-67.97 32.08,-105.42 -2.68,-24.05 -11.91,-47.24 -26.05,-66.82 -0.36,-0.1 -5.0498,-5.9925 -5.4098,-6.0825 -0.74,-0.86 -22.13745,-20.50544 -22.25745,-21.54544 0.57,-1.01 26.08725,22.37794 26.64725,21.34794 -2.32,-0.89 -4.91,-1.38 -6.75,-3.16 -1.24,-1.07 -2.08,-2.8 -3.92,-2.81 -0.35,-1.35 -1.43,-3.04 -3.04,-2.27 -0.1,-1.25 -16.60459,-15.90328 -16.46459,-17.14328 2.82,-1.54 7.67168,-2.88608 8.07168,-7.32608 z"
     id="path58"
     inkscape:connector-curvature="0"
     style="fill:#9e9a9c"
     sodipodi:nodetypes="ccccccccccccccccccc" />
  <path
     fill="#9e9a9c"
     d=" M 499.30 206.64 C 501.32 203.13 502.52 199.14 505.16 196.00 C 507.37 199.23 508.66 202.94 510.46 206.38 C 513.58 211.20 514.45 216.98 516.86 222.12 C 519.97 231.10 521.32 240.58 522.22 250.02 C 522.08 260.76 522.77 271.55 521.26 282.22 C 517.66 282.32 514.05 282.26 510.45 282.24 C 512.59 272.62 511.52 262.73 511.78 252.97 C 512.21 244.44 509.42 236.27 508.09 227.94 C 506.67 222.87 504.34 218.10 502.69 213.11 C 502.05 210.73 500.54 208.73 499.30 206.64 Z"
     id="path60" />
  <path
     fill="#ffffff"
     d=" M 313.87 204.51 C 314.93 205.37 315.89 206.38 316.42 207.66 C 320.10 215.40 322.60 223.61 325.36 231.71 C 330.13 250.95 330.92 271.12 328.16 290.74 C 326.07 290.44 323.53 291.40 321.72 290.25 C 320.36 286.38 317.26 283.24 316.85 279.04 C 316.70 271.36 316.92 263.69 316.82 256.02 C 316.75 253.90 315.29 252.17 315.11 250.08 C 315.09 241.03 315.11 231.98 315.10 222.94 C 315.12 220.15 313.19 217.76 313.46 214.96 C 313.58 211.48 313.08 207.92 313.87 204.51 Z"
     id="path64" />
  <path
     fill="#ffffff"
     d=" M 499.30 206.64 C 500.54 208.73 502.05 210.73 502.69 213.11 C 504.34 218.10 506.67 222.87 508.09 227.94 C 509.42 236.27 512.21 244.44 511.78 252.97 C 511.52 262.73 512.59 272.62 510.45 282.24 C 509.22 281.99 508.11 282.13 507.11 282.66 C 507.68 283.31 508.82 284.63 509.39 285.29 C 509.38 288.79 508.28 292.26 507.53 295.68 C 504.85 301.68 503.33 308.18 500.05 313.89 C 496.33 308.47 495.45 301.76 492.52 295.95 C 491.89 291.91 490.24 288.11 490.03 283.99 C 487.32 274.22 488.32 264.03 488.14 254.03 C 487.67 243.41 490.19 232.99 492.73 222.77 C 495.35 217.58 496.11 211.52 499.30 206.64 Z"
     id="path66" />
  <path
     fill="#9e9a9c"
     d=" M 268.34 236.07 C 269.26 230.83 270.52 225.52 272.73 220.69 C 273.12 229.81 272.79 238.97 272.92 248.10 C 273.12 250.87 271.59 253.32 271.16 255.98 C 270.96 264.65 271.57 273.39 270.81 282.02 C 268.74 283.23 267.49 280.72 266.04 279.71 C 265.92 277.99 265.91 276.27 265.95 274.56 C 266.10 274.15 266.40 273.33 266.55 272.92 C 266.39 265.41 266.60 257.90 266.42 250.40 C 265.90 248.13 264.54 246.12 264.55 243.71 C 263.57 244.92 264.03 246.63 263.83 248.07 C 263.00 241.00 263.97 233.79 263.67 226.66 C 265.49 229.66 266.77 232.93 268.34 236.07 Z"
     id="path68" />
  <path
     fill="#ffffff"
     d=" M 263.83 248.07 C 264.03 246.63 263.57 244.92 264.55 243.71 C 264.54 246.12 265.90 248.13 266.42 250.40 C 266.60 257.90 266.39 265.41 266.55 272.92 C 266.40 273.33 266.10 274.15 265.95 274.56 C 263.23 265.93 266.02 256.77 263.83 248.07 Z"
     id="path70" />
  <path
     fill="#9e9a9c"
     d=" M 509.39 285.29 C 511.42 286.83 513.94 287.22 516.37 287.77 C 516.78 290.47 516.39 293.25 516.54 295.98 C 516.27 297.17 517.08 298.93 515.97 299.80 C 513.65 299.98 511.33 299.83 509.02 300.00 C 509.87 302.01 511.41 303.68 511.86 305.87 C 512.03 320.04 511.89 334.20 511.76 348.37 L 511.49 348.43 L 511.68 347.83 C 511.68 342.58 511.98 337.26 511.28 332.06 C 511.38 326.53 511.61 320.99 511.24 315.46 C 508.81 318.04 508.45 322.01 506.15 324.79 C 503.61 321.43 501.85 317.66 500.05 313.89 C 503.33 308.18 504.85 301.68 507.53 295.68 C 508.28 292.26 509.38 288.79 509.39 285.29 Z"
     id="path72" />
  <path
     fill="#ffffff"
     d=" M 506.15 324.79 C 508.45 322.01 508.81 318.04 511.24 315.46 C 511.61 320.99 511.38 326.53 511.28 332.06 C 508.82 330.24 507.92 327.17 506.15 324.79 Z"
     id="path78" />
  <path
     fill="#9e9a9c"
     d=" M 494.27 323.95 C 496.26 327.43 498.29 330.89 500.54 334.22 C 497.26 337.68 495.05 342.02 491.39 345.15 C 489.27 342.27 487.24 339.31 485.11 336.44 C 488.48 332.52 491.62 328.39 494.27 323.95 Z"
     id="path80" />
  <path
     fill="#9e9a9c"
     d=" M 120.87 339.17 C 120.15 336.05 120.91 332.38 120.71 329.05 C 124.07 332.33 127.87 335.14 131.16 338.51 C 128.37 340.25 124.88 338.94 121.78 339.44 L 121.99 338.45 L 121.17 338.22 L 120.87 339.17 Z"
     id="path82" />
  <path
     fill="#fbb610"
     d=" M 709.18 332.86 C 709.24 336.21 708.91 339.59 709.38 342.92 C 710.19 344.85 709.75 347.09 709.50 349.12 C 706.39 352.54 703.18 355.93 699.61 358.86 C 699.39 358.40 698.95 357.49 698.73 357.04 C 698.45 353.02 698.45 348.98 698.63 344.96 C 702.43 341.22 705.53 336.77 709.18 332.86 Z"
     id="path84" />
  <path
     fill="#ffffff"
     d=" M 491.39 345.15 C 495.05 342.02 497.26 337.68 500.54 334.22 C 503.98 338.92 507.21 344.26 511.68 347.83 L 511.49 348.43 L 511.76 348.37 C 512.18 356.98 512.53 365.62 512.66 374.22 C 512.34 375.16 512.48 376.02 513.08 376.81 L 511.05 376.26 C 513.43 374.86 512.11 372.01 511.55 369.94 C 506.10 366.75 502.63 360.67 497.58 357.00 C 497.69 352.18 493.91 348.82 491.39 345.15 Z"
     id="path86" />
  <path
     fill="#ffffff"
     d=" M 121.17 338.22 L 121.99 338.45 L 121.78 339.44 L 120.87 339.17 L 121.17 338.22 Z"
     id="path88" />
  <path
     fill="#9e9a9c"
     d=" M 597.71 338.51 C 599.08 339.98 599.12 342.15 599.91 343.94 C 603.53 353.55 607.95 362.86 613.38 371.59 C 615.11 374.16 617.15 376.57 618.28 379.51 C 612.16 378.51 606.26 376.37 600.33 374.57 C 599.95 372.95 599.61 370.35 597.63 370.07 C 597.55 359.56 597.29 349.01 597.71 338.51 Z"
     id="path90" />
  <path
     fill="#9e9a9c"
     d=" M 145.46 347.42 C 148.59 348.06 151.39 349.71 154.41 350.72 C 154.42 351.22 154.44 352.22 154.45 352.72 C 151.46 352.83 148.48 352.61 145.50 352.82 C 145.52 351.02 145.51 349.21 145.46 347.42 Z"
     id="path92" />
  <path
     fill="#dd0368"
     d=" M 497.58 357.00 C 502.63 360.67 506.10 366.75 511.55 369.94 C 512.11 372.01 513.43 374.86 511.05 376.26 C 508.41 379.55 504.74 381.77 501.89 384.86 C 500.83 385.55 499.89 387.06 498.48 386.79 C 498.49 376.84 497.21 366.94 497.58 357.00 Z"
     id="path100" />
  <path
     fill="#fbb610"
     d=" M 666.61 368.53 C 670.94 367.19 674.21 363.94 678.18 361.93 C 678.18 365.15 678.25 368.37 678.17 371.59 C 675.72 372.47 672.75 370.98 670.39 372.45 C 669.73 374.55 670.08 376.92 669.88 379.12 C 665.38 381.43 660.67 383.23 656.03 385.26 C 653.42 385.36 651.21 386.73 648.86 387.70 C 646.60 387.60 644.59 386.28 642.36 386.27 C 636.89 384.75 631.26 383.50 625.93 381.49 C 628.25 380.67 630.75 380.63 633.12 379.97 C 632.67 379.44 631.75 378.39 631.30 377.87 C 632.30 378.78 633.30 380.20 634.91 379.66 C 638.70 379.42 642.27 377.96 645.97 377.20 C 652.91 374.47 660.28 372.63 666.61 368.53 Z"
     id="path104" />
  <path
     fill="#d6d3d3"
     d=" M 638.16 366.17 C 641.36 366.44 636.52 369.26 638.16 366.17 Z"
     id="path106" />
  <path
     fill="#ffffff"
     d=" M 597.63 370.07 C 599.61 370.35 599.95 372.95 600.33 374.57 C 597.76 374.33 597.27 372.30 597.63 370.07 Z"
     id="path108" />
  <path
     fill="#ffffff"
     d=" M 656.03 385.26 C 660.67 383.23 665.38 381.43 669.88 379.12 C 670.13 384.86 670.17 390.60 670.16 396.36 C 668.52 397.01 666.87 397.61 665.24 398.28 C 663.45 395.95 661.94 393.30 659.67 391.39 C 656.21 389.95 652.41 389.25 648.93 387.97 C 646.68 387.81 644.25 387.50 642.36 386.27 C 644.59 386.28 646.60 387.60 648.86 387.70 C 651.21 386.73 653.42 385.36 656.03 385.26 Z"
     id="path114" />
  <path
     fill="#ffffff"
     d=" M 545.40 385.75 C 550.52 385.75 555.65 385.74 560.78 385.76 C 560.77 390.12 560.82 394.48 560.75 398.85 C 555.75 399.06 550.54 398.83 545.46 399.05 C 545.30 394.62 545.40 390.18 545.40 385.75 Z"
     id="path116" />
  <path
     fill="#dd0368"
     d=" M 665.24 398.28 C 666.87 397.61 668.52 397.01 670.16 396.36 C 670.05 398.81 670.36 401.32 669.94 403.75 C 667.43 403.71 666.67 400.05 665.24 398.28 Z"
     id="path118" />
  <path
     fill="#0e1211"
     d=" M 185.50 414.66 C 185.72 411.85 190.26 411.79 190.53 414.61 C 191.03 419.60 190.65 424.69 190.73 429.72 C 188.92 429.79 187.11 429.80 185.32 429.71 C 185.41 424.70 185.06 419.64 185.50 414.66 Z"
     id="path120" />
  <path
     fill="#0e1211"
     d=" M 348.20 414.81 C 348.36 411.94 352.87 411.69 353.29 414.59 C 353.77 419.59 353.39 424.68 353.49 429.72 C 351.71 429.86 349.92 429.72 348.14 429.73 C 348.10 424.77 348.02 419.78 348.20 414.81 Z"
     id="path122" />
  <path
     fill="#0e1211"
     d=" M 520.10 415.86 C 520.01 414.27 520.94 411.86 523.00 412.56 C 524.75 412.37 525.46 414.53 525.49 415.94 C 525.51 420.52 525.52 425.11 525.49 429.70 C 523.71 429.87 521.91 429.71 520.13 429.73 C 520.04 425.11 520.14 420.48 520.10 415.86 Z"
     id="path124" />
  <path
     fill="#0e1211"
     d=" M 791.79 415.96 C 791.70 414.25 792.96 411.83 795.06 412.56 C 796.66 412.75 797.28 414.67 797.25 416.06 C 797.26 420.63 797.28 425.20 797.24 429.77 C 795.42 429.75 793.60 429.75 791.80 429.75 C 791.77 425.15 791.78 420.56 791.79 415.96 Z"
     id="path126" />
  <path
     fill="#0e1211"
     d=" M 84.20 415.38 C 85.61 413.89 88.82 414.99 88.60 417.18 C 88.80 435.07 88.62 452.97 88.69 470.87 C 87.15 471.69 84.95 470.96 83.16 471.18 C 83.15 453.77 83.16 436.36 83.16 418.94 C 83.29 417.77 82.97 416.05 84.20 415.38 Z"
     id="path128" />
  <path
     fill="#0e1211"
     d=" M 103.63 418.06 C 103.06 415.29 106.64 413.65 108.59 415.44 C 109.50 418.53 108.89 421.83 109.07 425.02 C 108.91 440.41 109.36 455.84 108.84 471.19 C 107.10 471.20 105.37 471.19 103.64 471.19 C 103.60 453.48 103.62 435.77 103.63 418.06 Z"
     id="path130" />
  <path
     fill="#0e1211"
     d=" M 226.11 417.90 C 225.77 415.82 228.02 413.98 229.94 414.95 C 231.71 415.48 231.43 417.61 231.51 419.05 C 231.49 436.43 231.53 453.81 231.49 471.19 C 229.70 471.21 227.91 471.19 226.12 471.20 C 226.09 453.43 226.11 435.66 226.11 417.90 Z"
     id="path132" />
  <path
     fill="#0e1211"
     d=" M 307.32 418.03 C 307.06 416.04 308.96 414.01 311.00 414.89 C 312.91 415.29 312.66 417.40 312.76 418.88 C 312.75 436.21 312.74 453.55 312.76 470.88 C 311.33 471.74 309.31 470.85 307.67 471.25 L 307.30 470.79 C 307.34 453.20 307.29 435.61 307.32 418.03 Z"
     id="path134" />
  <path
     fill="#0e1211"
     d=" M 388.89 416.97 C 389.15 414.14 394.07 413.82 394.20 416.91 C 394.33 435.00 394.24 453.09 394.25 471.18 C 392.43 471.20 390.61 471.20 388.80 471.18 C 388.83 453.11 388.66 435.03 388.89 416.97 Z"
     id="path136" />
  <path
     fill="#0e1211"
     d=" M 647.67 417.07 C 647.42 414.86 650.49 414.05 651.95 415.24 C 653.32 415.88 652.65 417.75 653.08 418.94 C 652.94 436.36 653.33 453.83 652.84 471.19 C 651.07 471.20 649.31 471.19 647.57 471.20 C 647.62 453.15 647.41 435.10 647.67 417.07 Z"
     id="path138" />
  <path
     fill="#0e1211"
     d=" M 750.79 417.95 C 750.49 415.63 752.93 414.00 755.02 414.95 C 756.69 415.63 756.43 417.62 756.51 419.10 C 756.49 436.46 756.52 453.83 756.49 471.19 C 754.59 471.19 752.69 471.21 750.80 471.18 C 750.77 453.44 750.78 435.69 750.79 417.95 Z"
     id="path140" />
  <path
     fill="#0e1211"
     d=" M 688.38 435.92 C 689.93 441.47 689.92 447.31 691.18 452.93 C 692.13 459.03 693.31 465.11 694.30 471.20 C 692.39 471.20 690.49 471.15 688.60 471.24 C 687.97 459.63 688.40 447.65 688.38 435.92 Z"
     id="path142" />
  <path
     fill="#0e1211"
     d=" M 147.23 470.36 C 148.53 469.42 148.87 467.42 150.49 467.01 C 150.34 468.39 150.51 469.81 150.28 471.20 C 149.39 470.82 146.54 472.13 147.23 470.36 Z"
     id="path144" />
  <path
     fill="#0e1211"
     d=" M 611.56 467.22 C 611.74 467.21 612.10 467.20 612.28 467.19 C 612.19 468.51 612.11 469.84 612.17 471.18 C 611.20 471.16 610.24 471.21 609.29 471.32 C 608.71 469.68 611.32 468.87 611.56 467.22 Z"
     id="path146" />
  <rect
     style="fill:#00ff00;fill-opacity:1;stroke:#ffffff;stroke-width:0;stroke-miterlimit:4;stroke-opacity:1;stroke-dasharray:none"
     id="rect3129"
     width="763.39716"
     height="85.924164"
     x="69.588577"
     y="402.17737" />
  <rect
     style="fill:#00ff00;fill-opacity:1;stroke:#ffffff;stroke-width:0;stroke-miterlimit:4;stroke-opacity:1;stroke-dasharray:none"
     id="rect3133"
     width="256.41315"
     height="76.599373"
     x="329.76678"
     y="457.1763"
     transform="scale(0.8,0.8)" />
  <rect
     style="fill:#00ff00;fill-opacity:1;stroke:#ffffff;stroke-width:0;stroke-miterlimit:4;stroke-opacity:1;stroke-dasharray:none"
     id="rect3135"
     width="68.160454"
     height="50.633484"
     x="672.51648"
     y="474.70328"
     transform="scale(0.8,0.8)" />
  <rect
     style="fill:#00ff00;fill-opacity:1;stroke:#ffffff;stroke-width:0;stroke-miterlimit:4;stroke-opacity:1;stroke-dasharray:none"
     id="rect3137"
     width="29.860771"
     height="56.475807"
     x="839.99646"
     y="481.19476"
     transform="scale(0.8,0.8)" />
  <rect
     style="fill:#00ff00;fill-opacity:1;stroke:#ffffff;stroke-width:0;stroke-miterlimit:4;stroke-opacity:1;stroke-dasharray:none"
     id="rect3139"
     width="35.053947"
     height="75.950226"
     x="1006.1782"
     y="481.8439"
     transform="scale(0.8,0.8)" />
  <text
     xml:space="preserve"
     style="font-size:105.47776794px;font-style:normal;font-weight:normal;line-height:125%;letter-spacing:0px;word-spacing:0px;fill:#ffffff;fill-opacity:1;stroke:none;font-family:swiss;-inkscape-font-specification:swiss"
     x="69.040047"
     y="498.41107"
     id="text3143"
     sodipodi:linespacing="125%"
     transform="scale(1.0280078,0.97275527)"><tspan
       sodipodi:role="line"
       id="tspan3145"
       x="69.040047"
       y="498.41107"
       style="font-size:117.94278717px;fill:#ffffff;font-family:Swiss 911;-inkscape-font-specification:Swiss 911">freifunk-muenchen.de</tspan></text>
  <path
     inkscape:connector-curvature="0"
     d="m 614.05047,92.804812 c 0.63,-0.48 1.36,-0.68 2.2,-0.6 0.87,5.61 -0.31,11.679998 0.61,17.399998 -0.05,9.01 -0.04,18.03 -0.01,27.04 0.03,1.56 2.04,1.68 2.7,2.89 -0.36,1.37 -0.71,2.73 -1.07,4.1 -0.06,8.03 0.05,16.05 0.02,24.08 0.23,2.18 1.67,3.77 3.1,5.31 -0.07,1.76 -2.77,2.53 -2.47,4.51 0.01,4.13 -0.22,8.42 0.46,12.4 1.75,0.04 3.51,0.03 5.28,0 0.5,0.06 1.5,0.18 2,0.24 0.31,0.64 0.94,1.91 1.25,2.55 -0.4,4.44 -5.54,3.48 -8.36,5.02 -0.14,1.24 -0.16,2.49 -0.06,3.74 0.07,0.45 0.21,1.34 0.28,1.79 0.69,0.12 2.07,0.36 2.76,0.48 1.84,0.01 2.68,1.74 3.92,2.81 1.84,1.78 4.43,2.27 6.75,3.16 -0.56,1.03 -1.15,2.05 -1.72,3.06 0.12,1.04 0.55,1.99 1.29,2.85 0.72,3.18 0.9,6.65 1.38,9.98 -3.27,2.61 -7.85,2.15 -11.36,4.38 -0.04,0.32 -0.12,0.95 -0.16,1.27 3.01,2.04 6.72,2.5 9.79,4.46 1.28,0.37 2.04,1.53 1.87,2.87 -1.07,1.12 -3.34,1.23 -3.45,3.1 -0.05,2.62 -0.03,5.35 2.44,6.94 -0.76,1.6 -1.98,3.13 -1.95,4.98 0.61,1.9 1.69,3.56 2.84,5.19 -1.03,1.26 -2.19,2.55 -3.62,3.36 -3.31,0.02 -7.76,0.68 -8.69,4.5 0.03,41.74 0.18,83.47 0.46,125.21 -4.73,0.08 -9.46,-0.03 -14.17,0.03 -9.6904,-0.36149 1.432,-84.03444 0.1,-126.02 -2.12,-3.73 -6.99,-2.59 -9.98,-4.92 -1.55,-2.02 -0.21,-4.51 0.67,-6.49 0.98,-2.12 -0.74,-4.14 -1.6,-5.96 1.08,-1.89 2.77,-3.81 2.5,-6.13 -1.29,-1.31 -2.55,-2.66 -4.07,-3.69 3.95,-3.14 9.58,-3.37 13,-7.23 l 0.01,-0.86 c -3.87,-1.38 -8.16,-1.8 -11.81,-3.94 -2.66,-5.68 3.22,-11.59 0.11,-17.08 4.66,-1.72 7.6,-6.7 12.94,-6.65 0.53,-1.42 0.03,-2.96 -0.34,-4.34 -2.7,-1.22 -7.75,-0.88 -7.69,-4.99 -0.63,-3.56 3.39,-3.96 5.91,-3.71 1.26,0.07 2.52,0.06 3.8,-0.05 0.16,-4.32 -0.31,-8.62 -0.48,-12.93 -0.18,-0.2 -0.54,-0.61 -0.72,-0.81 -1.07,-0.89 -1.82,-1.99 -2.27,-3.29 1.42,-1.05 2.98,-1.94 4.34,-3.08 0.34,-8.37 0.04,-16.8 0.16,-25.19 -0.13,-1.73 -1.52,-3.07 -1.68,-4.73 3.27,-2.1 1.85,-6.02 2.6,-9.17 -0.72,-4.63 0.13,-9.35 -0.04,-14.02 0.1,-7.94 -0.17,-15.9 0.23,-23.819998 z"
     id="path8-3"
     style="fill:#00ff00"
     sodipodi:nodetypes="cccccccccccccccccccccccccccccccccccccccccccccccccccccccccc" />
</svg>
