<?xml version="1.0" encoding="UTF-8" standalone="no"?>
<!-- Created with Inkscape (http://www.inkscape.org/) -->

<svg
   xmlns:dc="http://purl.org/dc/elements/1.1/"
   xmlns:cc="http://creativecommons.org/ns#"
   xmlns:rdf="http://www.w3.org/1999/02/22-rdf-syntax-ns#"
   xmlns:svg="http://www.w3.org/2000/svg"
   xmlns="http://www.w3.org/2000/svg"
   xmlns:sodipodi="http://sodipodi.sourceforge.net/DTD/sodipodi-0.dtd"
   xmlns:inkscape="http://www.inkscape.org/namespaces/inkscape"
   width="288.59555"
   height="205.23935"
   id="svg3190"
   version="1.1"
   inkscape:version="0.48.5 r10040"
   sodipodi:docname="ffmuc_kombi_vector.svg"
   inkscape:export-filename="/home/frank/Desktop/ffmuc_kombi_170.png"
   inkscape:export-xdpi="74.547112"
   inkscape:export-ydpi="74.547112">
  <defs
     id="defs3192" />
  <sodipodi:namedview
     id="base"
     pagecolor="#ffffff"
     bordercolor="#666666"
     borderopacity="1.0"
     inkscape:pageopacity="0.0"
     inkscape:pageshadow="2"
     inkscape:zoom="0.35"
     inkscape:cx="144.29778"
     inkscape:cy="102.61968"
     inkscape:document-units="px"
     inkscape:current-layer="layer1"
     showgrid="false"
     fit-margin-top="0"
     fit-margin-left="0"
     fit-margin-right="0"
     fit-margin-bottom="0"
     inkscape:window-width="526"
     inkscape:window-height="432"
     inkscape:window-x="348"
     inkscape:window-y="166"
     inkscape:window-maximized="0" />
  <metadata
     id="metadata3195">
    <rdf:RDF>
      <cc:Work
         rdf:about="">
        <dc:format>image/svg+xml</dc:format>
        <dc:type
           rdf:resource="http://purl.org/dc/dcmitype/StillImage" />
        <dc:title></dc:title>
      </cc:Work>
    </rdf:RDF>
  </metadata>
  <g
     inkscape:label="Layer 1"
     inkscape:groupmode="layer"
     id="layer1"
     transform="translate(-230.70222,-429.74251)">
    <g
       id="g3174"
       transform="translate(-185.27524,366.48168)">
      <g
         transform="translate(544.11166,113.70319)"
         id="g3034">
        <circle
           id="circle3036"
           stroke-miterlimit="4"
           transform="matrix(1.477616,0,0,1.5065066,-3.122124,-2.4350016)"
           r="22"
           cy="54"
           cx="36"
           sodipodi:cx="36"
           sodipodi:cy="54"
           sodipodi:rx="22"
           sodipodi:ry="22"
           style="fill:none;stroke:#de2c68;stroke-width:1.14544892;stroke-miterlimit:4;stroke-opacity:1;stroke-dasharray:none"
           d="M 58,54 C 58,66.150264 48.150264,76 36,76 23.849736,76 14,66.150264 14,54 14,41.849736 23.849736,32 36,32 c 12.150264,0 22,9.849736 22,22 z" />
        <circle
           id="circle3038"
           stroke-miterlimit="4"
           transform="matrix(1.5950476,0,0,1.6223254,-10.072136,-9.1778182)"
           r="22"
           cy="44"
           cx="74"
           sodipodi:cx="74"
           sodipodi:cy="44"
           sodipodi:rx="22"
           sodipodi:ry="22"
           style="fill:none;stroke:#de2c68;stroke-width:1.06239557;stroke-miterlimit:4;stroke-opacity:1;stroke-dasharray:none"
           d="M 96,44 C 96,56.150264 86.150264,66 74,66 61.849736,66 52,56.150264 52,44 52,31.849736 61.849736,22 74,22 c 12.150264,0 22,9.849736 22,22 z" />
        <circle
           id="circle3040"
           stroke-miterlimit="4"
           transform="matrix(1.5831269,0,0,1.5986441,-9.3397104,-8.1360194)"
           r="29"
           cy="44"
           cx="74"
           sodipodi:cx="74"
           sodipodi:cy="44"
           sodipodi:rx="29"
           sodipodi:ry="29"
           style="fill:none;stroke:#de2c68;stroke-width:5.81192684;stroke-miterlimit:4;stroke-opacity:1;stroke-dasharray:none"
           d="M 103,44 C 103,60.016258 90.016258,73 74,73 57.983742,73 45,60.016258 45,44 45,27.983742 57.983742,15 74,15 c 16.016258,0 29,12.983742 29,29 z" />
        <polygon
           id="polygon3042"
           transform="matrix(1.4493674,0,0,1.3737988,-2.70016,2.5042672)"
           points="37,50 31,44 26,44 30,48 22,48 22,52 30,52 26,56 31,56 "
           style="fill:#ffcc33;fill-opacity:1" />
        <polygon
           id="polygon3044"
           transform="matrix(1.5159598,0,0,1.568926,-5.2784314,-7.233634)"
           points="73,59 81,59 75,53 88,53 88,47 75,47 81,41 73,41 64,50 "
           style="fill:#ffcc33;fill-opacity:1" />
      </g>
      <g
         style="font-size:44.8909874px;font-style:normal;font-variant:normal;font-weight:bold;font-stretch:normal;line-height:125%;letter-spacing:0px;word-spacing:0px;fill:#000000;fill-opacity:1;stroke:#ffffff;stroke-width:0.50851214;stroke-linejoin:bevel;stroke-miterlimit:4;stroke-opacity:1;font-family:Swiss911 XCm BT;-inkscape-font-specification:Swiss911 XCm BT Bold"
         id="text3101">
        <path
           d="m 416.23172,267.61026 0,-25.86492 5.56753,0 0,2.17002 0.0877,0 c 0.453,-0.89137 1.01559,-1.55626 1.6878,-1.99467 0.6868,-0.43836 1.4832,-0.65756 2.38922,-0.65758 0.86215,2e-5 1.58549,0.22653 2.17002,0.6795 0.5845,0.43841 1.01559,1.096 1.29325,1.97275 l 0.0877,0 c 0.51144,-0.89137 1.10327,-1.55626 1.77548,-1.99467 0.68679,-0.43836 1.47589,-0.65756 2.36729,-0.65758 1.2567,2e-5 2.18462,0.35804 2.78377,1.07405 0.59911,0.71606 0.89868,1.82664 0.8987,3.33175 l 0,21.94135 -5.72097,0 0,-20.05628 c -2e-5,-0.59911 -0.0804,-1.00096 -0.24112,-1.20556 -0.14614,-0.21918 -0.40917,-0.32877 -0.7891,-0.3288 -0.35072,3e-5 -0.61375,0.12424 -0.78909,0.37263 -0.16076,0.24845 -0.24113,0.63569 -0.24112,1.16173 l 0,20.05628 -5.61137,0 0,-20.05628 c -1e-5,-0.59911 -0.0804,-1.00096 -0.24112,-1.20556 -0.14613,-0.21918 -0.40917,-0.32877 -0.78909,-0.3288 -0.35072,3e-5 -0.61376,0.12424 -0.7891,0.37263 -0.16075,0.24845 -0.24112,0.63569 -0.24112,1.16173 l 0,20.05628 -5.65521,0"
           style=""
           id="path3278" />
        <path
           d="m 452.61797,241.74534 0,25.86492 -5.61137,0 0,-2.1481 -0.13152,0 c -0.48224,0.89139 -1.05214,1.54897 -1.70972,1.97274 -0.64297,0.40917 -1.41746,0.61375 -2.32345,0.61375 -1.24211,0 -2.17734,-0.35802 -2.80569,-1.07405 -0.61375,-0.73065 -0.92062,-1.81931 -0.92062,-3.266 l 0,-21.96326 5.69905,0 0,20.07819 c 0,0.56991 0.0804,0.96446 0.24112,1.18365 0.17535,0.2192 0.45299,0.3288 0.83294,0.32879 0.3507,1e-5 0.59912,-0.1169 0.74526,-0.35071 0.16073,-0.2338 0.2411,-0.62104 0.24111,-1.16173 l 0,-20.07819 5.74289,0"
           style=""
           id="path3280" />
        <path
           d="m 460.07058,246.74297 0,4.88803 2.06042,0 0,-4.88803 c -10e-6,-0.56989 -0.0804,-0.97174 -0.24111,-1.20557 -0.16075,-0.2484 -0.42379,-0.37261 -0.7891,-0.37263 -0.36533,2e-5 -0.62837,0.12423 -0.7891,0.37263 -0.16075,0.23383 -0.24112,0.63568 -0.24111,1.20557 m 0,15.65047 c -1e-5,0.56991 0.0804,0.97907 0.24111,1.22748 0.16073,0.23382 0.42377,0.35072 0.7891,0.35072 0.36531,0 0.62835,-0.1169 0.7891,-0.35072 0.16073,-0.24841 0.2411,-0.65757 0.24111,-1.22748 l 0,-4.8442 5.69905,0 0,4.80036 c -1e-5,1.87046 -0.59184,3.32445 -1.77547,4.36196 -1.16905,1.02291 -2.82031,1.53436 -4.95379,1.53436 -2.41114,0 -4.13547,-0.55529 -5.17299,-1.66587 -1.03752,-1.11059 -1.55628,-3.01027 -1.55628,-5.69905 l 0,-12.38448 c 0,-2.71799 0.51146,-4.62498 1.53436,-5.72097 1.02291,-1.09595 2.73993,-1.64393 5.15107,-1.64396 2.11887,3e-5 3.77744,0.49687 4.97571,1.49052 1.19825,0.97909 1.79738,2.3381 1.79739,4.07702 l 0,8.78969 -7.75947,0 0,6.90462"
           style=""
           id="path3282" />
        <path
           d="m 469.62745,267.61026 0,-25.86492 5.61137,0 0,2.17002 0.0877,0 c 0.48222,-0.90598 1.05943,-1.57087 1.73163,-1.99467 0.67219,-0.43836 1.45398,-0.65756 2.34538,-0.65758 1.24209,2e-5 2.17001,0.37265 2.78377,1.11789 0.62834,0.73067 0.94252,1.82664 0.94253,3.28791 l 0,21.94135 -5.74289,0 0,-20.05628 c -10e-6,-0.59911 -0.0804,-1.00096 -0.24111,-1.20556 -0.14614,-0.21918 -0.40917,-0.32877 -0.7891,-0.3288 -0.35072,3e-5 -0.61375,0.12424 -0.7891,0.37263 -0.16075,0.24845 -0.24112,0.63569 -0.24111,1.16173 l 0,20.05628 -5.69905,0"
           style=""
           id="path3284" />
        <path
           d="m 484.88337,260.881 0,-12.38448 c 0,-2.71799 0.51145,-4.62498 1.53436,-5.72097 1.0229,-1.09595 2.73992,-1.64393 5.15106,-1.64396 2.11887,3e-5 3.77744,0.49687 4.97571,1.49052 1.19825,0.97909 1.79738,2.3381 1.7974,4.07702 l 0,4.07701 -5.69905,0 0,-4.03317 c -1e-5,-0.56989 -0.0804,-0.97174 -0.24112,-1.20557 -0.16075,-0.2484 -0.42378,-0.37261 -0.7891,-0.37263 -0.36533,2e-5 -0.62836,0.12423 -0.7891,0.37263 -0.16075,0.23383 -0.24112,0.63568 -0.24111,1.20557 l 0,15.65047 c -1e-5,0.56991 0.0804,0.97907 0.24111,1.22748 0.16074,0.23382 0.42377,0.35072 0.7891,0.35072 0.36532,0 0.62835,-0.1169 0.7891,-0.35072 0.16074,-0.24841 0.24111,-0.65757 0.24112,-1.22748 l 0,-4.8442 5.69905,0 0,4.80036 c -2e-5,1.87046 -0.59184,3.32445 -1.77548,4.36196 -1.16904,1.02291 -2.82031,1.53436 -4.95379,1.53436 -2.41114,0 -4.13547,-0.55529 -5.17298,-1.66587 -1.03752,-1.11059 -1.55628,-3.01027 -1.55628,-5.69905"
           style=""
           id="path3286" />
        <path
           d="m 499.96394,267.61026 0,-32.33116 5.69905,0 0,8.63626 0.0877,0 c 0.42377,-0.90598 0.96445,-1.57087 1.62204,-1.99467 0.65758,-0.43836 1.44667,-0.65756 2.3673,-0.65758 1.24209,2e-5 2.17001,0.37265 2.78377,1.11789 0.62834,0.73067 0.94252,1.82664 0.94253,3.28791 l 0,21.94135 -5.74289,0 0,-20.05628 c -10e-6,-0.59911 -0.0804,-1.00096 -0.24111,-1.20556 -0.14614,-0.21918 -0.40917,-0.32877 -0.7891,-0.3288 -0.35072,3e-5 -0.61375,0.12424 -0.7891,0.37263 -0.16075,0.24845 -0.24112,0.63569 -0.24111,1.16173 l 0,20.05628 -5.69905,0"
           style=""
           id="path3288" />
        <path
           d="m 520.91891,246.74297 0,4.88803 2.06042,0 0,-4.88803 c -10e-6,-0.56989 -0.0804,-0.97174 -0.24111,-1.20557 -0.16075,-0.2484 -0.42378,-0.37261 -0.7891,-0.37263 -0.36533,2e-5 -0.62836,0.12423 -0.7891,0.37263 -0.16075,0.23383 -0.24112,0.63568 -0.24111,1.20557 m 0,15.65047 c -10e-6,0.56991 0.0804,0.97907 0.24111,1.22748 0.16074,0.23382 0.42377,0.35072 0.7891,0.35072 0.36532,0 0.62835,-0.1169 0.7891,-0.35072 0.16073,-0.24841 0.2411,-0.65757 0.24111,-1.22748 l 0,-4.8442 5.69905,0 0,4.80036 c -10e-6,1.87046 -0.59183,3.32445 -1.77547,4.36196 -1.16905,1.02291 -2.82031,1.53436 -4.95379,1.53436 -2.41114,0 -4.13547,-0.55529 -5.17299,-1.66587 -1.03752,-1.11059 -1.55628,-3.01027 -1.55627,-5.69905 l 0,-12.38448 c -1e-5,-2.71799 0.51145,-4.62498 1.53436,-5.72097 1.0229,-1.09595 2.73992,-1.64393 5.15106,-1.64396 2.11887,3e-5 3.77744,0.49687 4.97571,1.49052 1.19825,0.97909 1.79738,2.3381 1.79739,4.07702 l 0,8.78969 -7.75947,0 0,6.90462"
           style=""
           id="path3290" />
        <path
           d="m 530.47578,267.61026 0,-25.86492 5.61137,0 0,2.17002 0.0877,0 c 0.48222,-0.90598 1.05943,-1.57087 1.73163,-1.99467 0.67219,-0.43836 1.45398,-0.65756 2.34538,-0.65758 1.24209,2e-5 2.17001,0.37265 2.78377,1.11789 0.62834,0.73067 0.94252,1.82664 0.94253,3.28791 l 0,21.94135 -5.74289,0 0,-20.05628 c 0,-0.59911 -0.0804,-1.00096 -0.24111,-1.20556 -0.14614,-0.21918 -0.40917,-0.32877 -0.7891,-0.3288 -0.35072,3e-5 -0.61375,0.12424 -0.7891,0.37263 -0.16075,0.24845 -0.24112,0.63569 -0.24111,1.16173 l 0,20.05628 -5.69905,0"
           style=""
           id="path3292" />
        <path
           d="m 546.17009,267.61026 0,-6.59775 5.94017,0 0,6.59775 -5.94017,0"
           style=""
           id="path3294" />
        <path
           d="m 555.22281,267.61026 0,-21.76599 -1.40284,0 0,-4.09893 1.40284,0 0,-2.45498 c 0,-1.25668 0.37993,-2.23575 1.13981,-2.9372 0.75987,-0.71601 1.81931,-1.07402 3.17832,-1.07406 l 3.22215,0 0,4.0551 c -0.6722,3e-5 -1.14712,0.0804 -1.42476,0.24111 -0.27766,0.14616 -0.41648,0.40919 -0.41647,0.7891 l 0,1.38093 1.84123,0 0,4.09893 -1.84123,0 0,21.76599 -5.69905,0"
           style=""
           id="path3296" />
        <path
           d="m 563.7933,267.61026 0,-25.86492 5.61138,0 0,2.17002 0.0877,0 c 0.48222,-0.90598 1.05943,-1.57087 1.73163,-1.99467 0.67219,-0.43836 1.45398,-0.65756 2.34538,-0.65758 1.24209,2e-5 2.17001,0.37265 2.78377,1.11789 0.62834,0.73067 0.94252,1.82664 0.94253,3.28791 l 0,9.99526 -5.74289,0 0,-8.11019 c -10e-6,-0.59911 -0.0804,-1.00096 -0.24111,-1.20556 -0.14614,-0.21918 -0.40917,-0.32877 -0.7891,-0.3288 -0.35072,3e-5 -0.61375,0.12424 -0.7891,0.37263 -0.16075,0.24845 -0.24112,0.63569 -0.24111,1.16173 l 0,20.05628 -5.69906,0"
           style=""
           id="path3298" />
        <path
           d="m 585.18666,246.74297 0,4.88803 2.06043,0 0,-4.88803 c -10e-6,-0.56989 -0.0804,-0.97174 -0.24112,-1.20557 -0.16075,-0.2484 -0.42378,-0.37261 -0.7891,-0.37263 -0.36533,2e-5 -0.62836,0.12423 -0.7891,0.37263 -0.16075,0.23383 -0.24112,0.63568 -0.24111,1.20557 m 0,15.65047 c -10e-6,0.56991 0.0804,0.97907 0.24111,1.22748 0.16074,0.23382 0.42377,0.35072 0.7891,0.35072 0.36532,0 0.62835,-0.1169 0.7891,-0.35072 0.16074,-0.24841 0.24111,-0.65757 0.24112,-1.22748 l 0,-4.8442 5.69905,0 0,4.80036 c -2e-5,1.87046 -0.59184,3.32445 -1.77548,4.36196 -1.16904,1.02291 -2.82031,1.53436 -4.95379,1.53436 -2.41114,0 -4.13547,-0.55529 -5.17298,-1.66587 -1.03752,-1.11059 -1.55628,-3.01027 -1.55628,-5.69905 l 0,-12.38448 c 0,-2.71799 0.51145,-4.62498 1.53436,-5.72097 1.0229,-1.09595 2.73992,-1.64393 5.15106,-1.64396 2.11887,3e-5 3.77744,0.49687 4.97571,1.49052 1.19825,0.97909 1.79738,2.3381 1.7974,4.07702 l 0,8.78969 -7.75948,0 0,6.90462"
           style=""
           id="path3300" />
        <path
           d="m 594.74353,267.61026 0,-25.86492 5.69905,0 0,25.86492 -5.69905,0 m 0,-27.4212 0,-4.90996 5.69905,0 0,4.90996 -5.69905,0"
           style=""
           id="path3302" />
        <path
           d="m 603.27019,267.61026 0,-21.76599 -1.40285,0 0,-4.09893 1.40285,0 0,-2.45498 c 0,-1.25668 0.37993,-2.23575 1.13981,-2.9372 0.75987,-0.71601 1.8193,-1.07402 3.17831,-1.07406 l 3.22216,0 0,4.0551 c -0.6722,3e-5 -1.14712,0.0804 -1.42476,0.24111 -0.27766,0.14616 -0.41648,0.40919 -0.41647,0.7891 l 0,1.38093 1.84123,0 0,4.09893 -1.84123,0 0,21.76599 -5.69905,0"
           style=""
           id="path3304" />
        <path
           d="m 625.34305,241.74534 0,25.86492 -5.61137,0 0,-2.1481 -0.13152,0 c -0.48224,0.89139 -1.05214,1.54897 -1.70972,1.97274 -0.64297,0.40917 -1.41746,0.61375 -2.32345,0.61375 -1.24211,0 -2.17734,-0.35802 -2.80569,-1.07405 -0.61375,-0.73065 -0.92062,-1.81931 -0.92062,-3.266 l 0,-21.96326 5.69905,0 0,20.07819 c 0,0.56991 0.0804,0.96446 0.24112,1.18365 0.17535,0.2192 0.45299,0.3288 0.83294,0.32879 0.3507,1e-5 0.59912,-0.1169 0.74526,-0.35071 0.16073,-0.2338 0.2411,-0.62104 0.24111,-1.16173 l 0,-20.07819 5.74289,0"
           style=""
           id="path3306" />
        <path
           d="m 627.1843,267.61026 0,-25.86492 5.61137,0 0,2.17002 0.0877,0 c 0.48222,-0.90598 1.05943,-1.57087 1.73163,-1.99467 0.67219,-0.43836 1.45398,-0.65756 2.34538,-0.65758 1.24209,2e-5 2.17001,0.37265 2.78377,1.11789 0.62834,0.73067 0.94252,1.82664 0.94253,3.28791 l 0,21.94135 -5.74289,0 0,-20.05628 c -10e-6,-0.59911 -0.0804,-1.00096 -0.24111,-1.20556 -0.14614,-0.21918 -0.40917,-0.32877 -0.7891,-0.3288 -0.35072,3e-5 -0.61375,0.12424 -0.7891,0.37263 -0.16075,0.24845 -0.24112,0.63569 -0.24111,1.16173 l 0,20.05628 -5.69905,0"
           style=""
           id="path3308" />
        <path
           d="m 642.52789,267.61026 0,-32.33116 5.69905,0 0,17.73282 0.0877,0 2.43306,-11.26658 5.83057,0 -2.82761,11.1789 2.82761,14.68602 -6.00593,0 -2.2577,-13.54621 -0.0877,0 0,13.54621 -5.69905,0"
           style=""
           id="path3310" />
        <path
           d="m 657.69614,267.61026 0,-6.59775 5.94016,0 0,6.59775 -5.94016,0"
           style=""
           id="path3312" />
        <path
           d="m 665.85016,267.61026 0,-25.86492 5.61137,0 0,2.17002 0.0877,0 c 0.48222,-0.90598 1.05943,-1.57087 1.73163,-1.99467 0.67219,-0.43836 1.45398,-0.65756 2.34538,-0.65758 1.24209,2e-5 2.17001,0.37265 2.78377,1.11789 0.62834,0.73067 0.94252,1.82664 0.94254,3.28791 l 0,21.94135 -5.74289,0 0,-20.05628 c -10e-6,-0.59911 -0.0804,-1.00096 -0.24112,-1.20556 -0.14614,-0.21918 -0.40917,-0.32877 -0.7891,-0.3288 -0.35072,3e-5 -0.61375,0.12424 -0.7891,0.37263 -0.16075,0.24845 -0.24112,0.63569 -0.24111,1.16173 l 0,20.05628 -5.69905,0"
           style=""
           id="path3314" />
        <path
           d="m 686.80513,246.74297 0,4.88803 2.06043,0 0,-4.88803 c -10e-6,-0.56989 -0.0804,-0.97174 -0.24112,-1.20557 -0.16075,-0.2484 -0.42378,-0.37261 -0.7891,-0.37263 -0.36533,2e-5 -0.62836,0.12423 -0.7891,0.37263 -0.16075,0.23383 -0.24112,0.63568 -0.24111,1.20557 m 0,15.65047 c -10e-6,0.56991 0.0804,0.97907 0.24111,1.22748 0.16074,0.23382 0.42377,0.35072 0.7891,0.35072 0.36532,0 0.62835,-0.1169 0.7891,-0.35072 0.16074,-0.24841 0.24111,-0.65757 0.24112,-1.22748 l 0,-4.8442 5.69905,0 0,4.80036 c -2e-5,1.87046 -0.59184,3.32445 -1.77548,4.36196 -1.16904,1.02291 -2.82031,1.53436 -4.95379,1.53436 -2.41114,0 -4.13547,-0.55529 -5.17298,-1.66587 -1.03752,-1.11059 -1.55628,-3.01027 -1.55628,-5.69905 l 0,-12.38448 c 0,-2.71799 0.51145,-4.62498 1.53436,-5.72097 1.0229,-1.09595 2.73992,-1.64393 5.15106,-1.64396 2.11887,3e-5 3.77744,0.49687 4.97571,1.49052 1.19825,0.97909 1.79738,2.3381 1.7974,4.07702 l 0,8.78969 -7.75948,0 0,6.90462"
           style=""
           id="path3316" />
        <path
           d="m 695.4633,245.88811 0,-4.14277 1.44669,0 0,-4.80036 5.74289,0 0,4.80036 1.66587,0 0,4.14277 -1.66587,0 0,15.71623 c -10e-6,0.80371 0.095,1.31517 0.28495,1.53436 0.20457,0.20458 0.59912,0.30687 1.18365,0.30687 l 0.19727,0 0,4.16469 -3.59478,0 c -1.38824,0 -2.37461,-0.31418 -2.95913,-0.94254 -0.5699,-0.64296 -0.85486,-1.84122 -0.85485,-3.59478 l 0,-17.18483 -1.44669,0"
           style=""
           id="path3318" />
      </g>
      <g
         id="g3105"
         transform="matrix(0.66062821,0,0,0.66062821,190.52243,31.456021)"
         inkscape:export-filename="/home/frank/Desktop/ffmuc-logo.png"
         inkscape:export-xdpi="90.93"
         inkscape:export-ydpi="90.93">
        <path
           sodipodi:nodetypes="ccsccsccsccsccsccsccscccccsccsccsccccccsccsccscccccsccsccsccsccsccsccscccc"
           inkscape:connector-curvature="0"
           id="path3107"
           d="m 467.03564,80.581355 -0.2972,20.594845 c -0.59618,0.12616 -1.02371,0.31237 -1.02371,0.56139 0,0.24949 0.42562,0.46836 1.02371,0.5944 l -0.23116,19.58253 c -1.13803,0.17366 -1.94834,0.52087 -1.94834,0.95765 0,0.21019 0.17911,0.42798 0.49534,0.59442 l 0,20.42251 c -0.7517,0.24033 -1.22185,0.55422 -1.22185,0.92463 0,0.34047 0.40926,0.657 1.05673,0.89162 l 0,3.99576 c -1.46842,0.31886 -2.44369,0.83457 -2.44369,1.45299 0,0.44794 0.5161,0.84301 1.35395,1.15582 l 0,12.48981 c -4.59759,0.54882 -7.92548,1.97621 -7.92548,3.66553 0,1.56522 2.86402,2.93993 6.93479,3.56646 l 0,5.58086 c -7.4823,0.71806 -12.97796,2.97452 -12.97796,5.6469 0,0.0643 0.0268,0.13439 0.033,0.19813 l 0,15.48769 c -0.006,0.0638 -0.033,0.1339 -0.033,0.19815 0,0.0677 0.0261,0.13096 0.033,0.19813 l 0,0.0329 c 0.25084,2.08324 3.83407,3.8746 9.04824,4.85436 l 2.08043,1.61811 0,1.58509 c -6.54474,0.88366 -11.1617,2.96218 -11.1617,5.41574 0,1.40874 1.53034,2.71845 4.0618,3.73159 l 0,1.55207 c -2.53146,1.01312 -4.0618,2.28981 -4.0618,3.69855 0,1.40874 1.53034,2.71845 4.0618,3.73157 l 0,1.55207 c -2.53146,1.01313 -4.0618,2.28982 -4.0618,3.69856 0,2.17774 3.65641,4.10064 9.04825,5.11853 l 3.6325,2.80693 -1.75602,32.86436 14.27748,0 -1.75602,-32.86436 3.59948,-2.80693 c 5.42248,-1.01529 9.08127,-2.93333 9.08127,-5.11853 0,-1.40874 -1.53034,-2.68543 -4.0618,-3.69856 l 0,-1.55207 c 2.53146,-1.01312 4.0618,-2.32283 4.0618,-3.73157 0,-1.40874 -1.53034,-2.68543 -4.0618,-3.69855 l 0,-1.55207 c 2.53146,-1.01314 4.0618,-2.32285 4.0618,-3.73159 0,-2.44986 -4.59967,-4.52976 -11.12868,-5.41574 l 0,-1.58509 2.08043,-1.61811 c 5.20965,-0.9801 8.76451,-2.77222 9.01522,-4.85436 8.6e-4,-0.0109 -8.5e-4,-0.0221 0,-0.0329 0.008,-0.0672 0.0329,-0.13043 0.0329,-0.19813 0,-0.0643 -0.0267,-0.13441 -0.0329,-0.19815 l 0,-15.48769 c 0.006,-0.0637 0.0329,-0.1339 0.0329,-0.19813 0,-2.6756 -5.48178,-4.93169 -12.97797,-5.6469 l 0,-5.58086 c 4.08507,-0.62474 6.93479,-1.99784 6.93479,-3.56646 0,-1.69222 -3.31544,-3.11884 -7.92547,-3.66553 l 0,-12.48981 c 0.83784,-0.31281 1.35394,-0.70788 1.35394,-1.15582 0,-0.61417 -0.9592,-1.13324 -2.41066,-1.45299 l 0,-3.99576 c 0.62974,-0.2333 1.02371,-0.5564 1.02371,-0.89162 0,-0.37041 -0.47015,-0.6843 -1.22186,-0.92463 l 0,-20.42251 c 0.31624,-0.16644 0.49535,-0.38423 0.49535,-0.59442 0,-0.43721 -0.80852,-0.78421 -1.94835,-0.95765 l -0.23115,-19.58253 c 0.60595,-0.12555 1.02371,-0.34296 1.02371,-0.5944 0,-0.25107 -0.41934,-0.43572 -1.02371,-0.56139 l -0.29721,-20.594845 -1.71719,0 z"
           style="fill:#de2c68;fill-opacity:1;fill-rule:nonzero;stroke:none" />
        <path
           inkscape:connector-curvature="0"
           d="m 467.87892,77.944485 c 51.85872,0 93.91717,42.058445 93.91717,93.917175 0,51.85873 -42.05845,93.88668 -93.91717,93.88668 -51.85874,0 -93.88668,-42.02795 -93.88668,-93.88668 0,-51.85873 42.02794,-93.917175 93.88668,-93.917175 z m -3.8e-4,-12.8012 c -58.93156,0 -106.6875,47.787205 -106.6875,106.718755 0,58.93155 47.75594,106.6875 106.6875,106.6875 58.93155,0 106.71875,-47.75595 106.71875,-106.6875 0,-58.93155 -47.7872,-106.718755 -106.71875,-106.718755 z"
           style="fill:#de2c68;fill-opacity:1;fill-rule:nonzero;stroke:none"
           id="path3109" />
        <path
           inkscape:connector-curvature="0"
           d="m 467.89446,54.381985 c 64.87424,0 117.47975,52.605515 117.47975,117.479755 0,64.87423 -52.60551,117.4491 -117.47975,117.4491 -64.87423,0 -117.4491,-52.57487 -117.4491,-117.4491 0,-64.87424 52.57487,-117.479755 117.4491,-117.479755 z m -3e-4,-6.2387 c -68.33168,0 -123.71875,55.387075 -123.71875,123.718755 0,68.33168 55.38707,123.71875 123.71875,123.71875 68.33168,0 123.71875,-55.38707 123.71875,-123.71875 0,-68.33168 -55.38707,-123.718755 -123.71875,-123.718755 z"
           style="fill:#de2c68;fill-opacity:1;fill-rule:nonzero;stroke:none"
           id="path3111" />
        <polygon
           style="fill:#ffcc33;fill-opacity:1"
           points="22,48 22,52 30,52 26,56 31,56 37,50 31,44 26,44 30,48 "
           transform="matrix(-2.9653139,0,0,2.8107053,598.4733,-6.8153649)"
           id="polygon3113" />
        <polygon
           style="fill:#ffcc33;fill-opacity:1"
           points="81,59 75,53 88,53 88,47 75,47 81,41 73,41 64,50 73,59 "
           transform="matrix(-2.245542,0,0,2.3239991,592.98133,19.506435)"
           id="polygon3115" />
      </g>
    </g>
  </g>
</svg>
