<?xml version="1.0" encoding="UTF-8" ?>
<!DOCTYPE svg PUBLIC "-//W3C//DTD SVG 1.1//EN" "http://www.w3.org/Graphics/SVG/1.1/DTD/svg11.dtd">
<svg width="896pt" height="534pt" viewBox="0 0 896 534" version="1.1" xmlns="http://www.w3.org/2000/svg">
<path fill="#ffffff" d=" M 0.00 0.00 L 896.00 0.00 L 896.00 534.00 L 0.00 534.00 L 0.00 0.00 Z" />
<path fill="#dd0368" d=" M 544.98 75.01 C 562.19 68.85 580.46 64.90 599.04 64.25 C 615.09 63.90 631.24 63.83 646.97 66.95 C 696.03 75.93 741.92 104.99 770.90 146.20 C 772.18 148.39 774.38 150.07 775.02 152.61 C 753.42 146.00 730.31 144.57 708.00 147.86 C 690.95 132.93 670.36 122.02 648.40 116.38 C 605.21 104.86 556.93 114.15 521.45 141.46 C 509.10 150.65 498.40 161.91 489.34 174.33 C 485.74 171.68 483.46 167.65 479.65 165.29 C 471.06 157.57 461.46 150.93 451.02 145.99 C 459.10 133.81 469.44 123.15 480.11 113.19 C 483.06 111.52 484.92 108.51 487.86 106.84 C 504.90 93.13 524.53 82.12 544.98 75.01 Z" />
<path fill="#0e1211" d=" M 824.33 91.17 C 824.96 90.69 825.69 90.49 826.53 90.57 C 827.40 96.18 826.22 102.25 827.14 107.97 C 827.09 116.98 827.10 126.00 827.13 135.01 C 827.16 136.57 829.17 136.69 829.83 137.90 C 829.47 139.27 829.12 140.63 828.76 142.00 C 828.70 150.03 828.81 158.05 828.78 166.08 C 829.01 168.26 830.45 169.85 831.88 171.39 C 831.81 173.15 829.11 173.92 829.41 175.90 C 829.42 180.03 829.19 184.32 829.87 188.30 C 831.62 188.34 833.38 188.33 835.15 188.30 C 835.65 188.36 836.65 188.48 837.15 188.54 C 837.46 189.18 838.09 190.45 838.40 191.09 C 838.00 195.53 832.86 194.57 830.04 196.11 C 829.90 197.35 829.88 198.60 829.98 199.85 C 830.05 200.30 830.19 201.19 830.26 201.64 C 830.95 201.76 832.33 202.00 833.02 202.12 C 834.86 202.13 835.70 203.86 836.94 204.93 C 838.78 206.71 841.37 207.20 843.69 208.09 C 843.13 209.12 842.54 210.14 841.97 211.15 C 842.09 212.19 842.52 213.14 843.26 214.00 C 843.98 217.18 844.16 220.65 844.64 223.98 C 841.37 226.59 836.79 226.13 833.28 228.36 C 833.24 228.68 833.16 229.31 833.12 229.63 C 836.13 231.67 839.84 232.13 842.91 234.09 C 844.19 234.46 844.95 235.62 844.78 236.96 C 843.71 238.08 841.44 238.19 841.33 240.06 C 841.28 242.68 841.30 245.41 843.77 247.00 C 843.01 248.60 841.79 250.13 841.82 251.98 C 842.43 253.88 843.51 255.54 844.66 257.17 C 843.63 258.43 842.47 259.72 841.04 260.53 C 837.73 260.55 833.28 261.21 832.35 265.03 C 832.38 306.77 832.53 348.50 832.81 390.24 C 828.08 390.32 823.35 390.21 818.64 390.27 C 818.62 394.59 818.60 398.92 818.65 403.25 C 817.70 403.25 815.80 403.25 814.85 403.25 C 814.72 406.93 814.81 410.62 814.81 414.31 C 816.06 414.28 817.33 414.28 818.61 414.32 C 818.66 429.19 818.61 444.07 818.63 458.95 C 818.66 462.68 818.45 467.04 821.15 470.00 C 821.21 470.50 823.25 471.20 822.40 471.83 C 821.56 471.67 819.89 471.37 819.05 471.22 C 814.78 471.17 810.51 471.16 806.25 471.25 C 807.97 469.69 810.05 468.34 810.94 466.10 C 813.47 459.52 812.09 452.35 812.41 445.49 C 807.44 445.48 802.47 445.59 797.51 445.42 C 796.76 450.52 797.76 455.87 797.00 461.00 C 796.08 463.75 791.84 463.01 791.83 460.10 C 791.74 453.44 791.79 446.77 791.80 440.11 C 798.66 440.09 805.52 440.12 812.39 440.10 C 812.46 431.74 812.47 423.37 812.39 415.02 C 812.16 409.23 807.78 404.02 802.14 402.80 C 795.91 401.01 789.03 401.38 783.07 403.92 C 778.08 407.12 776.58 413.45 776.41 419.02 C 776.34 431.36 776.40 443.71 776.38 456.05 C 776.40 461.58 777.89 467.30 781.91 471.26 C 778.54 471.11 775.17 471.24 771.81 471.18 C 771.73 451.46 771.85 431.74 771.75 412.03 C 771.53 408.18 769.82 403.45 765.62 402.52 C 761.23 401.34 755.89 402.14 752.93 405.86 C 751.88 406.65 751.78 408.24 750.57 408.80 C 750.59 406.94 750.72 405.08 750.61 403.23 C 745.62 403.27 740.64 403.28 735.65 403.23 C 735.61 425.74 735.62 448.25 735.65 470.75 L 735.33 471.24 C 733.44 471.15 731.56 471.21 729.70 471.20 C 729.65 465.79 729.68 460.39 729.69 454.99 C 724.57 454.44 719.07 454.88 713.82 454.77 C 713.76 460.24 713.81 465.71 713.80 471.19 C 713.01 471.20 711.44 471.23 710.66 471.24 C 708.75 466.14 708.62 460.44 707.37 455.11 C 705.97 447.72 704.26 440.39 703.05 432.98 C 705.64 423.10 708.06 413.21 710.56 403.33 C 705.39 403.17 700.19 403.28 695.02 403.29 C 692.66 413.21 690.51 423.21 688.63 433.22 C 688.02 429.85 688.35 426.42 688.31 423.03 C 688.31 410.61 688.33 398.18 688.30 385.76 C 683.15 385.75 678.00 385.72 672.86 385.77 C 672.82 414.25 672.86 442.73 672.84 471.21 C 671.33 471.05 669.78 471.42 668.31 471.09 C 668.28 451.42 668.37 431.76 668.27 412.09 C 667.90 408.66 666.84 404.08 663.09 402.91 C 657.19 400.38 649.70 403.06 647.28 409.16 C 647.26 407.18 647.34 405.20 647.29 403.23 C 642.24 403.41 637.12 403.01 632.12 403.43 C 632.21 426.01 632.15 448.59 632.16 471.17 C 630.53 471.17 628.91 471.26 627.31 471.15 C 627.34 448.65 627.27 426.15 627.34 403.66 L 627.05 403.21 C 621.98 403.29 616.92 403.28 611.86 403.22 C 611.61 419.46 611.82 435.73 611.75 451.98 C 611.66 454.69 612.04 457.48 611.28 460.14 C 609.57 462.04 605.96 460.57 606.34 457.92 C 606.27 441.27 606.33 424.63 606.31 407.98 C 606.04 406.43 606.78 404.59 606.03 403.22 C 601.09 403.31 596.15 403.24 591.21 403.25 C 591.10 423.18 591.19 443.12 591.17 463.05 C 591.06 466.02 592.21 468.76 593.77 471.22 C 590.30 471.02 586.69 471.48 583.32 471.00 C 583.32 452.11 583.28 433.21 583.34 414.32 C 584.94 414.22 586.56 414.37 588.19 414.30 C 588.20 410.62 588.22 406.94 588.19 403.26 C 586.56 403.23 584.95 403.29 583.34 403.26 C 583.41 401.44 582.88 399.43 583.74 397.75 C 585.08 397.00 586.59 396.72 588.12 396.75 C 588.31 393.10 588.16 389.42 588.19 385.77 C 582.61 386.11 576.15 384.39 571.46 388.32 C 566.95 391.92 568.40 398.23 568.16 403.25 C 566.85 403.24 565.55 403.24 564.25 403.26 C 564.16 406.93 564.24 410.61 564.21 414.29 C 565.42 414.31 566.63 414.32 567.85 414.31 L 568.22 414.78 C 568.09 433.57 568.21 452.38 568.16 471.18 C 565.70 471.21 563.25 471.20 560.80 471.18 C 560.75 448.53 560.84 425.89 560.75 403.24 C 555.63 403.28 550.52 403.25 545.41 403.26 C 545.35 425.90 545.42 448.55 545.37 471.19 C 541.85 471.22 538.33 471.15 534.82 471.24 C 538.57 468.35 540.63 463.78 540.68 459.05 C 540.66 454.54 540.70 450.02 540.66 445.51 C 535.61 445.51 530.55 445.48 525.51 445.53 C 525.38 450.52 525.75 455.56 525.32 460.54 C 525.12 462.68 522.34 463.39 520.81 462.15 C 520.32 461.15 520.08 460.10 520.11 459.00 C 520.12 452.72 520.08 446.43 520.12 440.15 C 526.94 439.90 533.90 440.43 540.66 439.88 C 540.68 431.66 540.72 423.43 540.64 415.21 C 540.43 409.93 536.90 404.91 531.84 403.27 C 525.31 400.97 517.95 401.21 511.54 403.78 C 506.35 406.86 504.85 413.43 504.65 419.05 C 504.59 431.35 504.64 443.65 504.63 455.96 C 504.68 461.40 505.98 467.20 510.06 471.08 C 499.54 471.19 488.71 471.43 478.28 470.97 C 478.28 453.99 478.28 437.02 478.28 420.05 C 478.31 418.60 478.13 417.10 478.60 415.71 C 480.11 413.97 483.92 414.60 483.66 417.28 C 483.88 425.01 483.66 432.76 483.77 440.51 C 488.87 440.45 493.98 440.55 499.09 440.45 C 499.13 431.30 499.09 422.15 499.11 413.00 C 498.81 409.11 497.74 403.92 493.43 402.72 C 487.73 400.62 480.41 403.01 478.25 409.00 C 478.09 407.11 478.03 405.23 478.13 403.35 C 473.04 403.15 467.94 403.29 462.85 403.28 C 462.84 425.92 462.86 448.56 462.84 471.20 C 460.26 471.17 457.68 471.23 455.11 471.18 C 455.16 452.22 454.98 433.23 455.21 414.29 C 456.83 414.28 458.46 414.33 460.10 414.30 C 460.17 410.65 460.10 407.00 460.14 403.35 C 458.46 403.00 456.70 403.56 455.08 403.12 C 455.21 401.41 454.85 399.65 455.31 397.98 C 456.62 396.84 458.48 396.79 460.14 396.71 C 460.12 393.06 460.15 389.42 460.12 385.78 C 454.13 386.09 446.68 384.18 442.22 389.33 C 438.77 393.24 440.35 398.80 439.60 403.29 C 438.36 403.21 437.13 403.23 435.92 403.37 C 435.91 407.00 435.90 410.63 435.92 414.27 C 437.21 414.30 438.50 414.31 439.80 414.32 C 439.90 433.27 439.83 452.23 439.83 471.18 C 437.11 471.24 434.39 471.13 431.67 471.24 C 431.07 465.86 431.64 460.22 431.42 454.75 C 426.13 454.75 420.85 454.74 415.57 454.76 C 415.36 460.22 415.93 465.87 415.31 471.23 C 413.47 471.15 411.63 471.22 409.80 471.18 C 409.76 451.75 409.80 432.32 409.78 412.89 C 409.78 408.93 408.27 404.22 404.23 402.72 C 399.70 401.24 393.94 401.95 390.88 405.93 C 389.82 406.71 389.78 408.39 388.48 408.86 C 388.48 406.98 388.64 405.09 388.51 403.21 C 383.56 403.28 378.60 403.29 373.65 403.21 C 373.62 425.72 373.61 448.22 373.65 470.73 L 373.33 471.25 C 369.89 471.16 366.44 471.16 363.00 471.25 C 365.18 468.81 367.79 466.42 368.42 462.95 C 369.39 457.21 368.64 451.32 368.90 445.52 C 363.78 445.48 358.66 445.54 353.55 445.48 C 353.25 450.69 353.94 455.98 353.18 461.15 C 352.25 463.82 347.97 462.86 348.17 460.06 C 348.04 453.42 348.11 446.77 348.13 440.13 C 355.02 440.06 361.92 440.14 368.81 440.10 C 368.98 433.75 368.84 427.39 368.88 421.04 C 368.81 418.04 369.16 414.99 368.36 412.06 C 367.43 408.61 364.68 406.06 361.92 403.98 C 354.89 400.99 346.75 400.97 339.65 403.73 C 334.80 406.71 332.86 412.61 332.83 418.05 C 332.77 431.02 332.80 443.99 332.81 456.97 C 332.88 461.74 333.86 467.20 337.79 470.38 L 337.94 471.28 C 334.67 471.10 331.39 471.25 328.12 471.18 C 328.10 451.78 328.10 432.38 328.12 412.97 C 327.69 409.86 327.46 406.23 324.97 403.98 C 320.85 401.27 315.15 401.41 311.03 404.02 C 309.14 405.18 308.77 407.51 307.30 409.02 C 307.29 401.27 307.35 393.51 307.29 385.75 C 302.15 385.76 297.00 385.71 291.86 385.78 C 291.82 414.25 291.86 442.72 291.84 471.19 C 288.55 471.23 285.27 471.11 281.99 471.27 C 284.95 468.33 287.48 464.46 287.64 460.06 C 287.66 455.20 287.79 450.31 287.58 445.46 C 282.54 445.54 277.50 445.52 272.47 445.46 C 272.17 450.64 272.62 455.86 272.23 461.04 C 271.31 463.79 266.87 463.01 266.83 460.12 C 266.78 445.09 266.71 430.05 266.86 415.02 C 267.01 412.31 271.03 411.48 272.12 414.00 C 272.73 418.45 272.17 423.02 272.42 427.51 C 277.49 427.47 282.56 427.50 287.63 427.50 C 287.75 423.66 287.65 419.81 287.68 415.97 C 287.66 410.92 284.66 406.01 280.14 403.74 C 273.39 401.05 265.63 401.00 258.87 403.65 C 251.07 407.96 251.57 418.32 251.63 426.04 C 251.63 436.03 251.63 446.01 251.63 456.00 C 251.69 461.46 253.08 467.37 256.98 471.28 C 253.70 471.10 250.40 471.25 247.12 471.19 C 247.10 451.78 247.11 432.37 247.11 412.96 C 246.89 409.04 245.67 404.28 241.58 402.78 C 237.25 401.33 231.60 401.79 228.50 405.48 C 227.37 406.53 226.82 408.02 225.79 409.16 C 225.67 407.18 225.89 405.22 225.75 403.26 C 220.84 403.26 215.93 403.24 211.02 403.28 C 210.60 425.83 210.97 448.56 210.84 471.18 C 207.22 471.24 203.61 471.12 200.00 471.25 C 202.71 468.74 205.56 465.87 205.81 461.90 C 206.01 456.43 205.88 450.96 205.89 445.50 C 200.85 445.50 195.81 445.52 190.78 445.49 C 190.59 450.54 191.04 455.62 190.54 460.64 C 190.37 462.77 187.33 463.45 186.04 461.90 C 185.28 460.75 185.30 459.31 185.30 457.99 C 185.31 452.07 185.31 446.15 185.30 440.24 C 192.10 439.94 198.99 440.17 205.83 440.13 C 205.99 431.73 205.89 423.32 205.88 414.93 C 206.14 410.15 202.59 406.31 198.88 403.84 C 191.87 401.07 183.89 400.97 176.87 403.74 C 171.04 407.31 169.83 414.74 169.84 421.03 C 169.84 432.71 169.84 444.38 169.84 456.05 C 170.06 461.56 171.15 467.70 175.86 471.22 C 172.35 471.09 168.79 471.36 165.32 471.08 C 165.28 448.46 165.37 425.84 165.27 403.22 C 160.22 403.31 155.16 403.23 150.10 403.26 C 150.02 420.87 150.06 438.48 150.08 456.09 C 149.79 457.70 150.23 460.55 147.99 460.85 C 146.05 461.62 144.37 459.82 144.59 457.92 C 144.49 439.70 144.63 421.48 144.52 403.26 C 139.41 403.24 134.31 403.28 129.20 403.25 C 129.12 423.17 129.18 443.09 129.17 463.02 C 129.08 466.02 130.15 468.85 131.93 471.24 C 129.45 471.14 126.97 471.22 124.50 471.20 C 124.49 452.11 124.49 433.02 124.50 413.93 C 124.53 410.14 123.79 405.87 120.63 403.40 C 115.87 400.99 109.26 401.59 105.73 405.87 C 104.67 406.74 104.40 408.46 102.99 408.86 C 102.09 401.26 91.53 400.29 86.47 404.37 C 84.75 405.53 84.33 407.73 82.81 409.06 C 82.76 407.12 82.92 405.18 82.79 403.25 C 78.38 403.26 73.97 403.25 69.55 403.27 C 69.71 387.93 69.66 372.58 69.62 357.23 C 69.62 348.88 69.64 340.52 69.61 332.17 C 69.77 325.61 69.76 319.04 69.66 312.49 C 69.37 299.38 69.92 286.26 69.29 273.17 C 70.10 273.16 71.71 273.12 72.52 273.10 C 73.04 266.47 72.24 259.73 72.93 253.08 C 73.81 249.20 76.41 245.76 79.88 243.82 C 81.79 243.13 83.97 242.85 85.49 241.37 C 85.80 235.91 85.57 230.42 85.61 224.94 C 85.42 222.16 83.92 219.10 85.56 216.50 C 86.81 214.27 90.28 213.83 90.48 210.95 C 91.16 202.84 91.57 194.67 92.25 186.55 C 92.48 182.65 93.25 178.77 92.85 174.85 C 93.88 168.12 93.90 161.29 94.54 154.52 C 95.21 152.88 93.38 149.43 95.64 149.11 C 95.70 150.47 95.75 151.83 95.77 153.20 C 96.38 159.00 96.43 164.84 96.90 170.65 C 96.98 173.80 96.90 176.99 97.54 180.09 C 98.47 190.32 98.74 200.58 99.74 210.80 C 99.93 214.18 104.46 214.69 105.24 217.96 C 105.26 218.81 105.30 220.50 105.32 221.35 C 103.84 225.76 104.77 230.46 104.41 235.01 C 104.46 236.98 104.09 239.04 104.71 240.96 C 106.01 242.76 108.25 243.14 110.20 243.84 C 114.54 246.20 117.81 251.08 117.49 256.11 C 117.79 261.64 117.17 267.18 117.45 272.70 C 118.49 273.14 119.62 273.32 120.84 273.23 C 120.54 291.83 120.74 310.44 120.71 329.05 C 120.91 332.38 120.15 336.05 120.87 339.17 L 121.78 339.44 C 124.88 338.94 128.37 340.25 131.16 338.51 L 131.89 339.27 C 136.37 339.28 140.86 339.33 145.35 339.34 C 145.51 342.02 145.25 344.73 145.46 347.42 C 145.51 349.21 145.52 351.02 145.50 352.82 C 148.48 352.61 151.46 352.83 154.45 352.72 C 154.44 352.22 154.42 351.22 154.41 350.72 C 154.51 344.25 154.28 337.78 154.43 331.32 C 156.06 331.23 157.88 330.87 159.44 331.39 C 159.41 332.70 159.45 334.01 159.57 335.32 C 160.20 335.27 161.48 335.17 162.12 335.13 C 162.35 331.55 162.68 327.65 159.75 325.07 C 159.85 310.36 159.62 295.66 159.77 280.96 C 160.33 279.18 162.33 278.09 162.17 276.06 C 162.48 273.70 162.31 271.20 163.25 268.98 C 163.89 272.62 163.16 276.92 166.10 279.75 L 167.26 279.66 C 167.49 274.10 167.43 268.54 167.36 262.98 C 166.91 262.46 166.00 261.41 165.55 260.89 C 168.88 258.09 167.59 253.59 167.97 249.78 C 168.55 250.48 169.71 251.86 170.29 252.55 C 172.12 248.00 170.95 243.01 171.32 238.25 C 172.87 236.83 175.10 235.95 175.35 233.50 C 176.01 226.31 176.46 219.09 177.37 211.93 C 177.66 209.03 177.19 205.93 178.28 203.19 C 179.97 206.57 179.28 210.46 179.74 214.10 C 180.44 221.14 180.73 228.23 181.83 235.22 C 182.20 236.80 184.10 236.95 185.18 237.87 C 185.52 242.50 184.48 247.29 186.17 251.75 L 187.13 252.04 C 187.22 250.99 187.67 250.19 188.49 249.64 C 188.49 253.50 188.18 257.91 190.95 260.99 C 190.00 262.17 188.28 263.24 188.61 264.99 C 189.06 269.91 187.78 275.04 189.44 279.82 C 193.55 278.74 192.72 273.15 193.58 269.81 C 194.95 271.08 193.68 273.27 194.36 274.89 C 194.22 277.23 195.67 279.04 196.68 280.99 C 196.83 295.33 196.72 309.68 196.78 324.02 C 197.23 326.17 194.10 326.77 194.42 328.85 C 194.66 331.07 192.98 336.65 197.14 335.17 C 197.08 333.87 197.12 332.58 197.27 331.30 C 198.73 331.21 200.21 331.09 201.68 331.23 C 201.84 336.06 201.61 340.90 201.79 345.72 C 205.69 344.88 209.63 343.82 213.34 342.26 C 214.61 339.63 216.49 337.04 216.43 334.00 C 216.39 318.99 216.51 303.97 216.30 288.95 C 216.07 285.86 218.58 283.68 220.40 281.54 C 220.55 278.07 220.18 274.49 221.28 271.14 C 221.57 265.09 221.22 259.03 221.46 252.98 C 221.54 250.90 222.86 249.08 222.87 246.98 C 222.89 238.98 222.88 230.97 222.88 222.97 C 222.60 219.54 224.76 216.45 224.46 213.01 C 224.26 208.41 224.87 203.74 224.09 199.18 C 222.98 194.52 222.77 189.72 224.13 185.08 C 226.81 176.90 235.37 171.19 243.95 171.68 C 251.94 171.26 260.35 175.83 263.31 183.45 C 264.99 187.07 265.51 191.12 265.17 195.08 C 264.48 198.09 263.06 200.92 262.59 203.97 C 262.72 207.66 262.42 211.36 262.71 215.05 C 263.83 218.81 263.79 222.77 263.67 226.66 C 263.97 233.79 263.00 241.00 263.83 248.07 C 266.02 256.77 263.23 265.93 265.95 274.56 C 265.91 276.27 265.92 277.99 266.04 279.71 C 267.49 280.72 268.74 283.23 270.81 282.02 C 271.57 273.39 270.96 264.65 271.16 255.98 C 271.59 253.32 273.12 250.87 272.92 248.10 C 272.79 238.97 273.12 229.81 272.73 220.69 C 273.46 219.54 273.66 218.17 274.34 217.00 C 274.60 212.05 275.28 206.89 273.51 202.12 C 271.74 197.04 273.12 191.47 275.48 186.83 C 276.83 184.34 278.85 182.30 281.00 180.49 C 285.77 176.90 291.99 176.30 297.76 176.73 C 300.76 177.73 303.98 178.15 306.60 180.11 C 314.26 185.33 317.05 195.95 313.87 204.51 C 313.08 207.92 313.58 211.48 313.46 214.96 C 313.19 217.76 315.12 220.15 315.10 222.94 C 315.11 231.98 315.09 241.03 315.11 250.08 C 315.29 252.17 316.75 253.90 316.82 256.02 C 316.92 263.69 316.70 271.36 316.85 279.04 C 317.26 283.24 320.36 286.38 321.72 290.25 C 323.53 291.40 326.07 290.44 328.16 290.74 C 339.79 290.77 351.41 290.84 363.04 290.79 C 380.90 290.79 398.75 290.78 416.61 290.80 C 428.71 290.89 440.81 290.72 452.90 290.88 C 455.20 294.89 458.39 298.27 460.81 302.20 C 466.04 309.00 470.53 316.35 475.93 323.00 C 478.69 327.69 482.30 331.80 485.11 336.44 C 487.24 339.31 489.27 342.27 491.39 345.15 C 493.91 348.82 497.69 352.18 497.58 357.00 C 497.21 366.94 498.49 376.84 498.48 386.79 C 499.89 387.06 500.83 385.55 501.89 384.86 C 504.74 381.77 508.41 379.55 511.05 376.26 L 513.08 376.81 C 512.48 376.02 512.34 375.16 512.66 374.22 C 512.53 365.62 512.18 356.98 511.76 348.37 C 511.89 334.20 512.03 320.04 511.86 305.87 C 511.41 303.68 509.87 302.01 509.02 300.00 C 511.33 299.83 513.65 299.98 515.97 299.80 C 517.08 298.93 516.27 297.17 516.54 295.98 C 516.39 293.25 516.78 290.47 516.37 287.77 C 513.94 287.22 511.42 286.83 509.39 285.29 C 508.82 284.63 507.68 283.31 507.11 282.66 C 508.11 282.13 509.22 281.99 510.45 282.24 C 514.05 282.26 517.66 282.32 521.26 282.22 C 526.27 282.16 531.27 282.23 536.28 282.13 C 537.88 281.67 537.81 279.76 538.48 278.53 C 539.29 275.18 540.95 272.17 542.41 269.09 C 544.29 270.52 544.33 273.37 545.93 275.10 C 549.14 270.84 551.55 266.07 554.51 261.64 C 557.97 265.46 559.70 270.97 563.07 274.88 C 564.03 272.82 565.26 270.91 566.21 268.84 C 568.83 272.97 569.50 277.96 572.00 282.16 C 575.04 282.28 578.09 282.12 581.14 282.24 C 585.20 282.38 589.26 282.33 593.32 282.26 C 597.13 282.62 601.50 281.49 605.01 282.73 C 602.61 285.73 598.71 286.80 595.43 288.48 C 595.26 291.83 595.26 295.24 595.44 298.59 C 596.79 298.88 598.18 298.97 599.61 298.86 C 599.82 301.37 597.34 303.38 597.62 305.96 C 597.69 316.81 597.53 327.66 597.71 338.51 C 597.29 349.01 597.55 359.56 597.63 370.07 C 597.27 372.30 597.76 374.33 600.33 374.57 C 606.26 376.37 612.16 378.51 618.28 379.51 C 620.89 379.93 623.32 381.14 625.93 381.49 C 631.26 383.50 636.89 384.75 642.36 386.27 C 644.25 387.50 646.68 387.81 648.93 387.97 C 652.41 389.25 656.21 389.95 659.67 391.39 C 661.94 393.30 663.45 395.95 665.24 398.28 C 666.67 400.05 667.43 403.71 669.94 403.75 C 670.36 401.32 670.05 398.81 670.16 396.36 C 670.17 390.60 670.13 384.86 669.88 379.12 C 670.08 376.92 669.73 374.55 670.39 372.45 C 672.75 370.98 675.72 372.47 678.17 371.59 C 678.25 368.37 678.18 365.15 678.18 361.93 C 678.29 356.94 677.94 351.93 678.50 346.96 C 678.66 342.38 678.11 337.74 679.07 333.22 C 682.89 316.61 684.66 299.63 688.62 283.05 C 688.78 283.23 689.09 283.60 689.25 283.78 C 691.02 298.10 695.05 311.97 696.81 326.29 C 699.93 336.26 697.61 346.83 698.73 357.04 C 698.95 357.49 699.39 358.40 699.61 358.86 C 702.32 363.75 704.14 369.07 707.22 373.79 C 707.98 373.11 708.67 372.37 709.29 371.54 C 709.66 363.04 708.90 354.46 709.83 346.00 C 709.49 332.68 709.24 319.37 709.39 306.02 C 709.64 302.59 706.86 299.43 707.95 295.98 C 708.40 293.24 710.74 291.54 712.80 289.96 C 712.86 288.32 712.96 286.66 712.68 285.04 C 711.30 284.62 709.82 284.67 708.52 284.03 C 707.71 279.02 709.54 273.69 713.26 270.22 C 716.57 266.06 723.68 266.53 725.47 260.90 C 725.70 257.15 726.50 252.94 724.39 249.57 C 722.08 245.50 723.11 239.69 727.27 237.20 C 729.32 236.04 729.27 233.35 729.97 231.37 C 731.52 227.77 730.21 223.67 732.21 220.15 C 733.40 225.46 732.95 231.38 735.72 236.30 C 739.86 238.74 741.93 244.31 739.94 248.78 C 737.87 252.56 738.85 256.97 738.77 261.07 C 739.09 263.56 741.22 265.03 743.32 266.01 C 751.11 267.84 756.79 275.91 755.73 283.82 C 754.36 284.70 752.62 284.44 751.24 285.21 C 750.54 286.64 750.74 288.49 751.09 290.02 C 752.61 291.39 754.20 292.73 755.39 294.43 C 758.68 298.04 754.35 301.98 754.41 305.90 C 754.43 325.80 754.31 345.70 754.46 365.59 C 759.73 368.03 765.69 368.67 771.04 371.02 L 771.51 370.50 C 771.79 364.13 771.40 357.73 771.74 351.36 C 775.59 352.10 779.28 353.66 783.14 354.55 C 787.03 355.78 791.09 356.50 794.88 358.11 C 796.36 358.27 797.95 359.11 799.42 358.66 C 800.13 347.40 802.17 336.27 802.80 325.01 C 803.97 319.31 803.38 313.28 804.94 307.70 C 807.00 307.59 809.06 307.75 811.13 307.88 C 813.58 308.10 813.93 311.00 815.44 312.45 C 816.51 313.13 818.10 313.16 819.20 312.47 C 819.05 296.38 819.37 280.30 818.74 264.25 C 816.62 260.52 811.75 261.66 808.76 259.33 C 807.21 257.31 808.55 254.82 809.43 252.84 C 810.41 250.72 808.69 248.70 807.83 246.88 C 808.91 244.99 810.60 243.07 810.33 240.75 C 809.04 239.44 807.78 238.09 806.26 237.06 C 810.21 233.92 815.84 233.69 819.26 229.83 L 819.27 228.97 C 815.40 227.59 811.11 227.17 807.46 225.03 C 804.80 219.35 810.68 213.44 807.57 207.95 C 812.23 206.23 815.17 201.25 820.51 201.30 C 821.04 199.88 820.54 198.34 820.17 196.96 C 817.47 195.74 812.42 196.08 812.48 191.97 C 811.85 188.41 815.87 188.01 818.39 188.26 C 819.65 188.33 820.91 188.32 822.19 188.21 C 822.35 183.89 821.88 179.59 821.71 175.28 C 821.53 175.08 821.17 174.67 820.99 174.47 C 819.92 173.58 819.17 172.48 818.72 171.18 C 820.14 170.13 821.70 169.24 823.06 168.10 C 823.40 159.73 823.10 151.30 823.22 142.91 C 823.09 141.18 821.70 139.84 821.54 138.18 C 824.81 136.08 823.39 132.16 824.14 129.01 C 823.42 124.38 824.27 119.66 824.10 114.99 C 824.20 107.05 823.93 99.09 824.33 91.17 Z" />
<path fill="#d6d3d3" d=" M 132.55 98.53 C 141.51 95.55 150.90 94.17 160.17 92.47 C 172.05 90.85 184.06 91.83 196.00 91.56 C 207.24 91.10 218.31 93.48 229.27 95.61 C 233.92 96.96 238.88 97.54 243.08 100.08 C 253.48 102.63 262.94 107.80 272.46 112.53 C 285.70 120.20 298.21 129.15 309.34 139.65 C 313.50 144.66 319.42 148.38 322.24 154.41 C 313.80 161.29 304.86 167.71 297.95 176.24 C 296.00 174.85 294.20 173.26 292.66 171.42 C 287.32 164.75 280.61 159.37 274.03 153.98 C 257.49 140.61 237.58 131.98 217.12 126.68 C 187.77 120.59 156.21 122.17 128.62 134.49 C 116.84 139.08 105.79 145.48 95.77 153.20 C 95.75 151.83 95.70 150.47 95.64 149.11 C 93.38 149.43 95.21 152.88 94.54 154.52 C 68.36 174.35 50.34 204.12 42.73 235.92 C 39.54 251.67 37.97 267.92 40.03 283.93 C 41.41 293.43 42.36 303.12 45.93 312.11 C 51.20 328.33 58.95 343.90 69.62 357.23 C 69.66 372.58 69.71 387.93 69.55 403.27 C 65.30 400.28 61.82 396.42 58.27 392.68 C 55.30 390.98 53.88 387.80 51.50 385.48 C 46.22 379.59 41.64 373.16 36.84 366.90 C 35.53 363.53 33.45 360.56 31.41 357.61 C 25.78 347.15 20.13 336.57 17.15 325.00 C 15.90 322.82 14.92 320.52 14.61 318.01 C 11.45 307.27 10.00 296.13 8.73 285.05 C 8.72 274.04 8.70 263.02 8.73 252.01 C 10.04 240.56 11.77 229.10 14.91 217.99 C 14.92 215.24 17.21 213.39 17.63 210.77 C 20.67 199.67 26.27 189.57 31.55 179.43 C 34.99 175.39 36.50 170.06 40.29 166.27 C 41.73 164.93 42.39 163.05 43.45 161.44 C 48.14 156.12 52.43 150.43 57.41 145.37 C 75.21 126.92 96.99 112.21 120.86 102.83 C 124.60 100.92 128.99 100.81 132.55 98.53 Z" />
<path fill="#ffffff" d=" M 521.45 141.46 C 556.93 114.15 605.21 104.86 648.40 116.38 C 670.36 122.02 690.95 132.93 708.00 147.86 C 701.36 148.96 694.71 150.37 688.26 152.41 C 685.10 149.46 680.98 147.96 677.57 145.39 C 674.13 142.88 669.92 141.83 666.38 139.51 C 661.40 136.75 655.63 135.89 650.59 133.34 C 644.87 131.62 639.07 130.29 633.15 129.54 C 622.92 127.28 612.42 128.05 602.04 127.93 C 594.60 128.17 587.30 129.83 579.98 130.98 C 576.21 132.17 572.12 132.51 568.69 134.58 C 563.53 136.18 558.21 137.68 553.57 140.53 C 550.76 142.13 547.56 142.96 544.93 144.89 C 540.89 147.87 536.01 149.66 532.49 153.33 C 528.67 155.03 526.18 158.47 522.77 160.73 C 513.96 168.62 506.23 177.66 499.61 187.45 C 497.61 185.39 496.32 182.77 494.37 180.66 C 492.73 178.52 490.25 176.97 489.34 174.33 C 498.40 161.91 509.10 150.65 521.45 141.46 Z" />
<path fill="#ffffff" d=" M 128.62 134.49 C 156.21 122.17 187.77 120.59 217.12 126.68 C 237.58 131.98 257.49 140.61 274.03 153.98 C 280.61 159.37 287.32 164.75 292.66 171.42 C 294.20 173.26 296.00 174.85 297.95 176.24 L 297.76 176.73 C 291.99 176.30 285.77 176.90 281.00 180.49 C 276.56 177.64 273.70 172.76 269.27 169.81 C 267.78 168.99 266.87 167.51 265.63 166.40 C 259.64 162.42 254.07 157.74 247.48 154.72 C 245.17 154.26 242.86 153.50 241.01 151.99 C 237.72 149.32 233.62 148.04 229.96 146.03 C 222.83 144.00 215.81 141.30 208.38 140.44 C 198.16 137.54 187.48 138.90 177.01 138.59 C 167.41 138.07 158.06 140.64 148.79 142.63 C 131.53 147.46 115.28 156.01 101.34 167.28 C 100.24 168.85 98.63 169.88 96.90 170.65 C 96.43 164.84 96.38 159.00 95.77 153.20 C 105.79 145.48 116.84 139.08 128.62 134.49 Z" />
<path fill="#fbb610" d=" M 579.98 130.98 C 587.30 129.83 594.60 128.17 602.04 127.93 C 612.42 128.05 622.92 127.28 633.15 129.54 C 639.07 130.29 644.87 131.62 650.59 133.34 C 655.63 135.89 661.40 136.75 666.38 139.51 C 669.92 141.83 674.13 142.88 677.57 145.39 C 680.98 147.96 685.10 149.46 688.26 152.41 C 692.16 154.95 695.60 158.07 699.22 160.98 C 724.77 183.82 741.38 216.67 743.28 251.01 C 743.29 256.01 743.22 261.01 743.32 266.01 C 741.22 265.03 739.09 263.56 738.77 261.07 C 738.85 256.97 737.87 252.56 739.94 248.78 C 741.93 244.31 739.86 238.74 735.72 236.30 C 732.95 231.38 733.40 225.46 732.21 220.15 C 730.21 223.67 731.52 227.77 729.97 231.37 C 726.62 218.42 721.99 205.72 714.43 194.63 C 713.06 190.90 709.81 188.43 708.01 184.98 C 701.97 177.50 695.42 170.32 687.82 164.38 C 684.30 161.39 680.48 158.76 676.63 156.22 C 660.29 145.58 641.35 139.35 621.99 137.41 C 614.65 137.40 607.32 137.43 599.99 137.40 C 561.35 140.07 524.84 162.69 505.16 196.00 C 502.52 199.14 501.32 203.13 499.30 206.64 C 496.11 211.52 495.35 217.58 492.73 222.77 C 490.19 232.99 487.67 243.41 488.14 254.03 C 488.32 264.03 487.32 274.22 490.03 283.99 C 490.24 288.11 491.89 291.91 492.52 295.95 C 495.45 301.76 496.33 308.47 500.05 313.89 C 501.85 317.66 503.61 321.43 506.15 324.79 C 507.92 327.17 508.82 330.24 511.28 332.06 C 511.98 337.26 511.68 342.58 511.68 347.83 C 507.21 344.26 503.98 338.92 500.54 334.22 C 498.29 330.89 496.26 327.43 494.27 323.95 C 483.69 304.45 477.61 282.23 478.35 259.96 C 477.65 237.99 483.76 216.18 494.00 196.85 C 495.82 193.69 497.83 190.63 499.61 187.45 C 506.23 177.66 513.96 168.62 522.77 160.73 C 526.18 158.47 528.67 155.03 532.49 153.33 C 536.01 149.66 540.89 147.87 544.93 144.89 C 547.56 142.96 550.76 142.13 553.57 140.53 C 558.21 137.68 563.53 136.18 568.69 134.58 C 572.12 132.51 576.21 132.17 579.98 130.98 Z" />
<path fill="#9e9a9c" d=" M 363.95 136.49 C 369.98 135.51 375.91 134.07 382.01 133.57 C 390.33 133.58 398.65 133.57 406.97 133.58 C 413.68 134.25 420.23 135.77 426.87 136.89 C 435.04 139.60 443.26 142.25 451.02 145.99 C 461.46 150.93 471.06 157.57 479.65 165.29 C 483.46 167.65 485.74 171.68 489.34 174.33 C 490.25 176.97 492.73 178.52 494.37 180.66 C 496.32 182.77 497.61 185.39 499.61 187.45 C 497.83 190.63 495.82 193.69 494.00 196.85 C 490.72 192.20 487.53 187.46 483.53 183.38 C 472.95 171.14 459.88 161.08 445.34 153.99 C 436.33 149.20 426.40 146.33 416.39 144.44 C 406.47 141.75 396.15 142.84 386.00 142.62 C 379.94 142.38 374.00 143.81 368.12 145.06 C 354.05 147.80 340.68 153.60 328.75 161.51 C 320.87 167.11 313.45 173.28 306.60 180.11 C 303.98 178.15 300.76 177.73 297.76 176.73 L 297.95 176.24 C 304.86 167.71 313.80 161.29 322.24 154.41 C 326.01 153.77 328.42 150.27 331.96 148.95 C 336.68 147.26 340.64 143.91 345.50 142.60 C 351.69 140.60 357.54 137.73 363.95 136.49 Z" />
<path fill="#ffffff" d=" M 505.16 196.00 C 524.84 162.69 561.35 140.07 599.99 137.40 C 607.32 137.43 614.65 137.40 621.99 137.41 C 641.35 139.35 660.29 145.58 676.63 156.22 C 661.60 162.35 647.18 170.29 634.81 180.85 C 612.82 198.79 596.42 223.22 587.43 250.10 C 584.50 260.61 580.97 271.20 581.14 282.24 C 578.09 282.12 575.04 282.28 572.00 282.16 C 569.50 277.96 568.83 272.97 566.21 268.84 C 565.26 270.91 564.03 272.82 563.07 274.88 C 559.70 270.97 557.97 265.46 554.51 261.64 C 551.55 266.07 549.14 270.84 545.93 275.10 C 544.33 273.37 544.29 270.52 542.41 269.09 C 540.95 272.17 539.29 275.18 538.48 278.53 C 537.81 279.76 537.88 281.67 536.28 282.13 C 531.27 282.23 526.27 282.16 521.26 282.22 C 522.77 271.55 522.08 260.76 522.22 250.02 C 521.32 240.58 519.97 231.10 516.86 222.12 C 514.45 216.98 513.58 211.20 510.46 206.38 C 508.66 202.94 507.37 199.23 505.16 196.00 Z" />
<path fill="#9e9a9c" d=" M 148.79 142.63 C 158.06 140.64 167.41 138.07 177.01 138.59 C 187.48 138.90 198.16 137.54 208.38 140.44 C 215.81 141.30 222.83 144.00 229.96 146.03 C 233.62 148.04 237.72 149.32 241.01 151.99 C 242.86 153.50 245.17 154.26 247.48 154.72 C 254.07 157.74 259.64 162.42 265.63 166.40 C 266.87 167.51 267.78 168.99 269.27 169.81 C 273.70 172.76 276.56 177.64 281.00 180.49 C 278.85 182.30 276.83 184.34 275.48 186.83 C 272.05 182.52 267.96 178.81 263.88 175.14 C 261.74 173.99 260.12 172.24 258.44 170.55 C 249.28 164.32 239.89 158.17 229.40 154.40 C 223.67 151.85 217.52 150.53 211.63 148.43 C 207.37 147.77 203.10 147.22 198.86 146.40 C 188.70 146.32 178.51 146.16 168.35 146.48 C 162.62 147.75 156.57 147.71 151.12 150.10 C 141.73 152.66 132.65 156.36 124.11 161.03 C 119.36 163.96 114.65 166.96 109.98 170.02 C 108.27 171.65 106.76 173.52 104.63 174.63 C 102.05 176.19 100.65 179.44 97.54 180.09 C 96.90 176.99 96.98 173.80 96.90 170.65 C 98.63 169.88 100.24 168.85 101.34 167.28 C 115.28 156.01 131.53 147.46 148.79 142.63 Z" />
<path fill="#ffffff" d=" M 368.12 145.06 C 374.00 143.81 379.94 142.38 386.00 142.62 C 396.15 142.84 406.47 141.75 416.39 144.44 C 426.40 146.33 436.33 149.20 445.34 153.99 C 419.31 194.12 409.08 243.70 416.61 290.80 C 398.75 290.78 380.90 290.79 363.04 290.79 C 363.74 283.88 363.31 276.93 363.44 270.00 C 363.30 258.87 364.13 247.60 361.65 236.65 C 360.89 229.62 358.46 222.95 356.99 216.06 C 354.51 209.80 352.27 203.44 349.97 197.11 C 348.81 194.12 346.65 191.65 345.54 188.63 C 343.53 183.02 339.71 178.37 336.91 173.18 C 334.60 169.00 331.33 165.50 328.75 161.51 C 340.68 153.60 354.05 147.80 368.12 145.06 Z" />
<path fill="#ffffff" d=" M 168.35 146.48 C 178.51 146.16 188.70 146.32 198.86 146.40 C 203.10 147.22 207.37 147.77 211.63 148.43 C 217.52 150.53 223.67 151.85 229.40 154.40 C 239.89 158.17 249.28 164.32 258.44 170.55 C 260.12 172.24 261.74 173.99 263.88 175.14 C 267.96 178.81 272.05 182.52 275.48 186.83 C 273.12 191.47 271.74 197.04 273.51 202.12 C 275.28 206.89 274.60 212.05 274.34 217.00 C 273.66 218.17 273.46 219.54 272.73 220.69 C 270.52 225.52 269.26 230.83 268.34 236.07 C 266.77 232.93 265.49 229.66 263.67 226.66 C 263.79 222.77 263.83 218.81 262.71 215.05 C 262.42 211.36 262.72 207.66 262.59 203.97 C 263.06 200.92 264.48 198.09 265.17 195.08 C 265.51 191.12 264.99 187.07 263.31 183.45 C 260.35 175.83 251.94 171.26 243.95 171.68 C 235.37 171.19 226.81 176.90 224.13 185.08 C 223.78 186.07 223.45 187.06 223.13 188.06 C 214.09 182.55 203.43 180.47 193.07 179.00 C 183.86 179.37 174.50 178.03 165.44 180.16 C 152.24 182.33 139.84 188.14 129.01 195.90 C 119.65 202.83 111.19 211.18 105.32 221.35 C 105.30 220.50 105.26 218.81 105.24 217.96 C 104.46 214.69 99.93 214.18 99.74 210.80 C 98.74 200.58 98.47 190.32 97.54 180.09 C 100.65 179.44 102.05 176.19 104.63 174.63 C 106.76 173.52 108.27 171.65 109.98 170.02 C 114.65 166.96 119.36 163.96 124.11 161.03 C 132.65 156.36 141.73 152.66 151.12 150.10 C 156.57 147.71 162.62 147.75 168.35 146.48 Z" />
<path fill="#9e9a9c" d=" M 708.00 147.86 C 730.31 144.57 753.42 146.00 775.02 152.61 C 789.21 157.18 802.87 163.49 815.31 171.76 C 817.43 172.34 818.57 175.84 820.99 174.47 C 821.17 174.67 821.53 175.08 821.71 175.28 C 821.88 179.59 822.35 183.89 822.19 188.21 C 820.91 188.32 819.65 188.33 818.39 188.26 C 808.20 179.77 796.50 173.16 784.26 168.12 C 763.68 159.84 741.19 156.42 719.08 158.19 C 712.37 158.29 705.79 159.75 699.22 160.98 C 695.60 158.07 692.16 154.95 688.26 152.41 C 694.71 150.37 701.36 148.96 708.00 147.86 Z" />
<path fill="#dd0368" d=" M 445.34 153.99 C 459.88 161.08 472.95 171.14 483.53 183.38 C 465.44 212.88 458.47 248.86 463.94 283.00 C 465.88 296.84 470.35 310.21 475.93 323.00 C 470.53 316.35 466.04 309.00 460.81 302.20 C 458.39 298.27 455.20 294.89 452.90 290.88 C 440.81 290.72 428.71 290.89 416.61 290.80 C 409.08 243.70 419.31 194.12 445.34 153.99 Z" />
<path fill="#ffffff" d=" M 42.73 235.92 C 50.34 204.12 68.36 174.35 94.54 154.52 C 93.90 161.29 93.88 168.12 92.85 174.85 C 91.10 177.08 89.00 178.98 86.91 180.88 C 75.96 193.34 66.93 207.58 61.21 223.13 C 60.08 228.35 57.67 233.18 56.42 238.36 C 56.07 243.28 54.26 248.01 54.34 252.98 C 54.15 262.99 54.20 273.01 54.31 283.02 C 54.18 288.29 55.96 293.33 56.54 298.53 C 58.66 305.89 61.17 313.13 63.74 320.33 C 65.80 324.22 67.76 328.17 69.61 332.17 C 69.64 340.52 69.62 348.88 69.62 357.23 C 58.95 343.90 51.20 328.33 45.93 312.11 C 42.36 303.12 41.41 293.43 40.03 283.93 C 37.97 267.92 39.54 251.67 42.73 235.92 Z" />
<path fill="#9e9a9c" d=" M 676.63 156.22 C 680.48 158.76 684.30 161.39 687.82 164.38 C 673.81 168.96 660.37 175.68 648.70 184.72 C 642.13 191.16 634.71 196.72 628.75 203.77 C 611.11 222.76 599.32 246.91 594.53 272.36 C 593.73 275.60 593.23 278.91 593.32 282.26 C 589.26 282.33 585.20 282.38 581.14 282.24 C 580.97 271.20 584.50 260.61 587.43 250.10 C 596.42 223.22 612.82 198.79 634.81 180.85 C 647.18 170.29 661.60 162.35 676.63 156.22 Z" />
<path fill="#ffffff" d=" M 699.22 160.98 C 705.79 159.75 712.37 158.29 719.08 158.19 C 739.73 180.57 754.08 209.21 757.85 239.46 C 759.00 242.85 757.94 246.67 759.32 249.99 C 759.42 256.69 759.48 263.40 759.30 270.11 C 757.99 273.30 758.94 276.94 757.97 280.22 C 757.02 284.94 756.96 289.85 755.39 294.43 C 754.20 292.73 752.61 291.39 751.09 290.02 C 750.74 288.49 750.54 286.64 751.24 285.21 C 752.62 284.44 754.36 284.70 755.73 283.82 C 756.79 275.91 751.11 267.84 743.32 266.01 C 743.22 261.01 743.29 256.01 743.28 251.01 C 741.38 216.67 724.77 183.82 699.22 160.98 Z" />
<path fill="#dd0368" d=" M 719.08 158.19 C 741.19 156.42 763.68 159.84 784.26 168.12 C 792.51 182.38 797.89 198.24 801.91 214.19 C 813.17 261.15 806.65 312.20 783.14 354.55 C 779.28 353.66 775.59 352.10 771.74 351.36 C 771.40 357.73 771.79 364.13 771.51 370.50 L 771.04 371.02 C 765.69 368.67 759.73 368.03 754.46 365.59 C 754.31 345.70 754.43 325.80 754.41 305.90 C 754.35 301.98 758.68 298.04 755.39 294.43 C 756.96 289.85 757.02 284.94 757.97 280.22 C 758.94 276.94 757.99 273.30 759.30 270.11 C 759.48 263.40 759.42 256.69 759.32 249.99 C 757.94 246.67 759.00 242.85 757.85 239.46 C 754.08 209.21 739.73 180.57 719.08 158.19 Z" />
<path fill="#d6d3d3" d=" M 306.60 180.11 C 313.45 173.28 320.87 167.11 328.75 161.51 C 331.33 165.50 334.60 169.00 336.91 173.18 C 339.71 178.37 343.53 183.02 345.54 188.63 C 346.65 191.65 348.81 194.12 349.97 197.11 C 352.27 203.44 354.51 209.80 356.99 216.06 C 358.46 222.95 360.89 229.62 361.65 236.65 C 364.13 247.60 363.30 258.87 363.44 270.00 C 363.31 276.93 363.74 283.88 363.04 290.79 C 351.41 290.84 339.79 290.77 328.16 290.74 C 330.92 271.12 330.13 250.95 325.36 231.71 C 322.60 223.61 320.10 215.40 316.42 207.66 C 315.89 206.38 314.93 205.37 313.87 204.51 C 317.05 195.95 314.26 185.33 306.60 180.11 Z" />
<path fill="#ffffff" d=" M 648.70 184.72 C 660.37 175.68 673.81 168.96 687.82 164.38 C 695.42 170.32 701.97 177.50 708.01 184.98 C 709.81 188.43 713.06 190.90 714.43 194.63 C 721.99 205.72 726.62 218.42 729.97 231.37 C 729.27 233.35 729.32 236.04 727.27 237.20 C 723.11 239.69 722.08 245.50 724.39 249.57 C 726.50 252.94 725.70 257.15 725.47 260.90 C 723.68 266.53 716.57 266.06 713.26 270.22 C 709.54 273.69 707.71 279.02 708.52 284.03 C 709.82 284.67 711.30 284.62 712.68 285.04 C 712.96 286.66 712.86 288.32 712.80 289.96 C 710.74 291.54 708.40 293.24 707.95 295.98 C 706.86 299.43 709.64 302.59 709.39 306.02 C 709.24 319.37 709.49 332.68 709.83 346.00 C 708.90 354.46 709.66 363.04 709.29 371.54 C 708.67 372.37 707.98 373.11 707.22 373.79 C 704.14 369.07 702.32 363.75 699.61 358.86 C 703.18 355.93 706.39 352.54 709.50 349.12 C 709.75 347.09 710.19 344.85 709.38 342.92 C 708.91 339.59 709.24 336.21 709.18 332.86 C 705.53 336.77 702.43 341.22 698.63 344.96 C 698.45 348.98 698.45 353.02 698.73 357.04 C 697.61 346.83 699.93 336.26 696.81 326.29 C 695.05 311.97 691.02 298.10 689.25 283.78 C 689.09 283.60 688.78 283.23 688.62 283.05 C 684.66 299.63 682.89 316.61 679.07 333.22 C 678.11 337.74 678.66 342.38 678.50 346.96 C 677.94 351.93 678.29 356.94 678.18 361.93 C 674.21 363.94 670.94 367.19 666.61 368.53 C 660.28 372.63 652.91 374.47 645.97 377.20 C 642.27 377.96 638.70 379.42 634.91 379.66 C 633.30 380.20 632.30 378.78 631.30 377.87 C 631.75 378.39 632.67 379.44 633.12 379.97 C 630.75 380.63 628.25 380.67 625.93 381.49 C 623.32 381.14 620.89 379.93 618.28 379.51 C 617.15 376.57 615.11 374.16 613.38 371.59 C 607.95 362.86 603.53 353.55 599.91 343.94 C 599.12 342.15 599.08 339.98 597.71 338.51 C 597.53 327.66 597.69 316.81 597.62 305.96 C 597.34 303.38 599.82 301.37 599.61 298.86 C 598.18 298.97 596.79 298.88 595.44 298.59 C 595.26 295.24 595.26 291.83 595.43 288.48 C 598.71 286.80 602.61 285.73 605.01 282.73 C 601.50 281.49 597.13 282.62 593.32 282.26 C 593.23 278.91 593.73 275.60 594.53 272.36 C 599.32 246.91 611.11 222.76 628.75 203.77 C 634.71 196.72 642.13 191.16 648.70 184.72 Z" />
<path fill="#ffffff" d=" M 784.26 168.12 C 796.50 173.16 808.20 179.77 818.39 188.26 C 815.87 188.01 811.85 188.41 812.48 191.97 C 812.42 196.08 817.47 195.74 820.17 196.96 C 820.54 198.34 821.04 199.88 820.51 201.30 C 815.17 201.25 812.23 206.23 807.57 207.95 C 810.68 213.44 804.80 219.35 807.46 225.03 C 811.11 227.17 815.40 227.59 819.27 228.97 L 819.26 229.83 C 815.84 233.69 810.21 233.92 806.26 237.06 C 807.78 238.09 809.04 239.44 810.33 240.75 C 810.60 243.07 808.91 244.99 807.83 246.88 C 808.69 248.70 810.41 250.72 809.43 252.84 C 808.55 254.82 807.21 257.31 808.76 259.33 C 811.75 261.66 816.62 260.52 818.74 264.25 C 819.37 280.30 819.05 296.38 819.20 312.47 C 818.10 313.16 816.51 313.13 815.44 312.45 C 813.93 311.00 813.58 308.10 811.13 307.88 C 809.06 307.75 807.00 307.59 804.94 307.70 C 803.38 313.28 803.97 319.31 802.80 325.01 C 802.17 336.27 800.13 347.40 799.42 358.66 C 797.95 359.11 796.36 358.27 794.88 358.11 C 791.09 356.50 787.03 355.78 783.14 354.55 C 806.65 312.20 813.17 261.15 801.91 214.19 C 797.89 198.24 792.51 182.38 784.26 168.12 Z" />
<path fill="#9e9a9c" d=" M 86.91 180.88 C 89.00 178.98 91.10 177.08 92.85 174.85 C 93.25 178.77 92.48 182.65 92.25 186.55 C 90.03 189.89 86.61 192.24 84.76 195.84 C 83.22 198.86 80.80 201.28 79.04 204.16 C 77.37 208.65 73.48 212.04 72.50 216.84 C 70.21 222.34 67.12 227.54 66.22 233.53 C 60.52 248.34 61.53 264.40 61.58 279.99 C 61.39 283.05 62.86 285.88 62.60 288.96 C 63.59 296.68 66.59 303.94 68.49 311.47 C 68.78 311.72 69.37 312.23 69.66 312.49 C 69.76 319.04 69.77 325.61 69.61 332.17 C 67.76 328.17 65.80 324.22 63.74 320.33 C 61.17 313.13 58.66 305.89 56.54 298.53 C 55.96 293.33 54.18 288.29 54.31 283.02 C 54.20 273.01 54.15 262.99 54.34 252.98 C 54.26 248.01 56.07 243.28 56.42 238.36 C 57.67 233.18 60.08 228.35 61.21 223.13 C 66.93 207.58 75.96 193.34 86.91 180.88 Z" />
<path fill="#9e9a9c" d=" M 165.44 180.16 C 174.50 178.03 183.86 179.37 193.07 179.00 C 203.43 180.47 214.09 182.55 223.13 188.06 C 223.45 187.06 223.78 186.07 224.13 185.08 C 222.77 189.72 222.98 194.52 224.09 199.18 C 223.68 197.53 223.29 195.86 222.58 194.31 C 217.51 192.02 212.43 189.70 207.03 188.29 C 196.50 184.14 185.07 184.86 173.97 184.90 C 159.30 186.86 144.88 192.02 132.88 200.84 C 129.44 202.64 127.15 205.89 123.99 208.07 C 121.52 209.57 120.50 212.46 118.30 214.26 C 115.88 216.29 114.91 219.45 112.49 221.44 C 109.88 225.31 107.62 229.40 105.52 233.57 C 104.27 235.81 104.84 238.50 104.71 240.96 C 104.09 239.04 104.46 236.98 104.41 235.01 C 104.77 230.46 103.84 225.76 105.32 221.35 C 111.19 211.18 119.65 202.83 129.01 195.90 C 139.84 188.14 152.24 182.33 165.44 180.16 Z" />
<path fill="#ffffff" d=" M 483.53 183.38 C 487.53 187.46 490.72 192.20 494.00 196.85 C 483.76 216.18 477.65 237.99 478.35 259.96 C 477.61 282.23 483.69 304.45 494.27 323.95 C 491.62 328.39 488.48 332.52 485.11 336.44 C 482.30 331.80 478.69 327.69 475.93 323.00 C 470.35 310.21 465.88 296.84 463.94 283.00 C 458.47 248.86 465.44 212.88 483.53 183.38 Z" />
<path fill="#9e9a9c" d=" M 830.05 184.13 C 832.33 184.13 834.20 186.41 835.15 188.30 C 833.38 188.33 831.62 188.34 829.87 188.30 C 829.72 186.90 829.78 185.51 830.05 184.13 Z" />
<path fill="#ffffff" d=" M 132.88 200.84 C 144.88 192.02 159.30 186.86 173.97 184.90 C 185.07 184.86 196.50 184.14 207.03 188.29 C 212.43 189.70 217.51 192.02 222.58 194.31 C 223.29 195.86 223.68 197.53 224.09 199.18 C 224.87 203.74 224.26 208.41 224.46 213.01 C 224.76 216.45 222.60 219.54 222.88 222.97 C 222.88 230.97 222.89 238.98 222.87 246.98 C 222.86 249.08 221.54 250.90 221.46 252.98 C 221.22 259.03 221.57 265.09 221.28 271.14 C 220.18 274.49 220.55 278.07 220.40 281.54 C 218.58 283.68 216.07 285.86 216.30 288.95 C 216.51 303.97 216.39 318.99 216.43 334.00 C 216.49 337.04 214.61 339.63 213.34 342.26 C 209.63 343.82 205.69 344.88 201.79 345.72 C 201.61 340.90 201.84 336.06 201.68 331.23 C 200.21 331.09 198.73 331.21 197.27 331.30 C 197.12 332.58 197.08 333.87 197.14 335.17 C 192.98 336.65 194.66 331.07 194.42 328.85 C 194.10 326.77 197.23 326.17 196.78 324.02 C 196.72 309.68 196.83 295.33 196.68 280.99 C 195.67 279.04 194.22 277.23 194.36 274.89 C 193.68 273.27 194.95 271.08 193.58 269.81 C 192.72 273.15 193.55 278.74 189.44 279.82 C 187.78 275.04 189.06 269.91 188.61 264.99 C 188.28 263.24 190.00 262.17 190.95 260.99 C 188.18 257.91 188.49 253.50 188.49 249.64 C 187.67 250.19 187.22 250.99 187.13 252.04 L 186.17 251.75 C 184.48 247.29 185.52 242.50 185.18 237.87 C 184.10 236.95 182.20 236.80 181.83 235.22 C 180.73 228.23 180.44 221.14 179.74 214.10 C 179.28 210.46 179.97 206.57 178.28 203.19 C 177.19 205.93 177.66 209.03 177.37 211.93 C 176.46 219.09 176.01 226.31 175.35 233.50 C 175.10 235.95 172.87 236.83 171.32 238.25 C 170.95 243.01 172.12 248.00 170.29 252.55 C 169.71 251.86 168.55 250.48 167.97 249.78 C 167.59 253.59 168.88 258.09 165.55 260.89 C 166.00 261.41 166.91 262.46 167.36 262.98 C 167.43 268.54 167.49 274.10 167.26 279.66 L 166.10 279.75 C 163.16 276.92 163.89 272.62 163.25 268.98 C 162.31 271.20 162.48 273.70 162.17 276.06 C 162.33 278.09 160.33 279.18 159.77 280.96 C 159.62 295.66 159.85 310.36 159.75 325.07 C 162.68 327.65 162.35 331.55 162.12 335.13 C 161.48 335.17 160.20 335.27 159.57 335.32 C 159.45 334.01 159.41 332.70 159.44 331.39 C 157.88 330.87 156.06 331.23 154.43 331.32 C 154.28 337.78 154.51 344.25 154.41 350.72 C 151.39 349.71 148.59 348.06 145.46 347.42 C 145.25 344.73 145.51 342.02 145.35 339.34 C 140.86 339.33 136.37 339.28 131.89 339.27 L 131.16 338.51 C 127.87 335.14 124.07 332.33 120.71 329.05 C 120.74 310.44 120.54 291.83 120.84 273.23 C 119.62 273.32 118.49 273.14 117.45 272.70 C 117.17 267.18 117.79 261.64 117.49 256.11 C 117.81 251.08 114.54 246.20 110.20 243.84 C 108.25 243.14 106.01 242.76 104.71 240.96 C 104.84 238.50 104.27 235.81 105.52 233.57 C 107.62 229.40 109.88 225.31 112.49 221.44 C 114.91 219.45 115.88 216.29 118.30 214.26 C 120.50 212.46 121.52 209.57 123.99 208.07 C 127.15 205.89 129.44 202.64 132.88 200.84 Z" />
<path fill="#ffffff" d=" M 84.76 195.84 C 86.61 192.24 90.03 189.89 92.25 186.55 C 91.57 194.67 91.16 202.84 90.48 210.95 C 90.28 213.83 86.81 214.27 85.56 216.50 C 83.92 219.10 85.42 222.16 85.61 224.94 C 85.57 230.42 85.80 235.91 85.49 241.37 C 83.97 242.85 81.79 243.13 79.88 243.82 C 76.41 245.76 73.81 249.20 72.93 253.08 C 72.24 259.73 73.04 266.47 72.52 273.10 C 71.71 273.12 70.10 273.16 69.29 273.17 C 69.92 286.26 69.37 299.38 69.66 312.49 C 69.37 312.23 68.78 311.72 68.49 311.47 C 66.59 303.94 63.59 296.68 62.60 288.96 C 62.86 285.88 61.39 283.05 61.58 279.99 C 61.53 264.40 60.52 248.34 66.22 233.53 C 67.12 227.54 70.21 222.34 72.50 216.84 C 73.48 212.04 77.37 208.65 79.04 204.16 C 80.80 201.28 83.22 198.86 84.76 195.84 Z" />
<path fill="#9e9a9c" d=" M 838.40 191.09 C 852.74 204.66 863.32 221.77 871.25 239.75 C 872.23 243.62 874.00 247.22 875.28 251.00 C 881.48 271.22 884.24 292.68 881.60 313.76 C 878.80 338.91 869.70 363.39 855.09 384.07 C 850.49 391.00 844.82 397.05 839.38 403.30 C 837.71 403.25 836.06 403.20 834.41 403.28 C 834.24 399.54 834.34 395.79 834.35 392.05 C 835.32 389.95 837.35 388.51 838.68 386.61 C 863.21 357.77 874.10 318.64 870.76 281.19 C 868.08 257.14 858.85 233.95 844.71 214.37 C 844.35 214.27 843.62 214.09 843.26 214.00 C 842.52 213.14 842.09 212.19 841.97 211.15 C 842.54 210.14 843.13 209.12 843.69 208.09 C 841.37 207.20 838.78 206.71 836.94 204.93 C 835.70 203.86 834.86 202.13 833.02 202.12 C 832.67 200.77 831.59 199.08 829.98 199.85 C 829.88 198.60 829.90 197.35 830.04 196.11 C 832.86 194.57 838.00 195.53 838.40 191.09 Z" />
<path fill="#9e9a9c" d=" M 499.30 206.64 C 501.32 203.13 502.52 199.14 505.16 196.00 C 507.37 199.23 508.66 202.94 510.46 206.38 C 513.58 211.20 514.45 216.98 516.86 222.12 C 519.97 231.10 521.32 240.58 522.22 250.02 C 522.08 260.76 522.77 271.55 521.26 282.22 C 517.66 282.32 514.05 282.26 510.45 282.24 C 512.59 272.62 511.52 262.73 511.78 252.97 C 512.21 244.44 509.42 236.27 508.09 227.94 C 506.67 222.87 504.34 218.10 502.69 213.11 C 502.05 210.73 500.54 208.73 499.30 206.64 Z" />
<path fill="#d6d3d3" d=" M 829.98 199.85 C 831.59 199.08 832.67 200.77 833.02 202.12 C 832.33 202.00 830.95 201.76 830.26 201.64 C 830.19 201.19 830.05 200.30 829.98 199.85 Z" />
<path fill="#ffffff" d=" M 313.87 204.51 C 314.93 205.37 315.89 206.38 316.42 207.66 C 320.10 215.40 322.60 223.61 325.36 231.71 C 330.13 250.95 330.92 271.12 328.16 290.74 C 326.07 290.44 323.53 291.40 321.72 290.25 C 320.36 286.38 317.26 283.24 316.85 279.04 C 316.70 271.36 316.92 263.69 316.82 256.02 C 316.75 253.90 315.29 252.17 315.11 250.08 C 315.09 241.03 315.11 231.98 315.10 222.94 C 315.12 220.15 313.19 217.76 313.46 214.96 C 313.58 211.48 313.08 207.92 313.87 204.51 Z" />
<path fill="#ffffff" d=" M 499.30 206.64 C 500.54 208.73 502.05 210.73 502.69 213.11 C 504.34 218.10 506.67 222.87 508.09 227.94 C 509.42 236.27 512.21 244.44 511.78 252.97 C 511.52 262.73 512.59 272.62 510.45 282.24 C 509.22 281.99 508.11 282.13 507.11 282.66 C 507.68 283.31 508.82 284.63 509.39 285.29 C 509.38 288.79 508.28 292.26 507.53 295.68 C 504.85 301.68 503.33 308.18 500.05 313.89 C 496.33 308.47 495.45 301.76 492.52 295.95 C 491.89 291.91 490.24 288.11 490.03 283.99 C 487.32 274.22 488.32 264.03 488.14 254.03 C 487.67 243.41 490.19 232.99 492.73 222.77 C 495.35 217.58 496.11 211.52 499.30 206.64 Z" />
<path fill="#9e9a9c" d=" M 268.34 236.07 C 269.26 230.83 270.52 225.52 272.73 220.69 C 273.12 229.81 272.79 238.97 272.92 248.10 C 273.12 250.87 271.59 253.32 271.16 255.98 C 270.96 264.65 271.57 273.39 270.81 282.02 C 268.74 283.23 267.49 280.72 266.04 279.71 C 265.92 277.99 265.91 276.27 265.95 274.56 C 266.10 274.15 266.40 273.33 266.55 272.92 C 266.39 265.41 266.60 257.90 266.42 250.40 C 265.90 248.13 264.54 246.12 264.55 243.71 C 263.57 244.92 264.03 246.63 263.83 248.07 C 263.00 241.00 263.97 233.79 263.67 226.66 C 265.49 229.66 266.77 232.93 268.34 236.07 Z" />
<path fill="#ffffff" d=" M 263.83 248.07 C 264.03 246.63 263.57 244.92 264.55 243.71 C 264.54 246.12 265.90 248.13 266.42 250.40 C 266.60 257.90 266.39 265.41 266.55 272.92 C 266.40 273.33 266.10 274.15 265.95 274.56 C 263.23 265.93 266.02 256.77 263.83 248.07 Z" />
<path fill="#9e9a9c" d=" M 509.39 285.29 C 511.42 286.83 513.94 287.22 516.37 287.77 C 516.78 290.47 516.39 293.25 516.54 295.98 C 516.27 297.17 517.08 298.93 515.97 299.80 C 513.65 299.98 511.33 299.83 509.02 300.00 C 509.87 302.01 511.41 303.68 511.86 305.87 C 512.03 320.04 511.89 334.20 511.76 348.37 L 511.49 348.43 L 511.68 347.83 C 511.68 342.58 511.98 337.26 511.28 332.06 C 511.38 326.53 511.61 320.99 511.24 315.46 C 508.81 318.04 508.45 322.01 506.15 324.79 C 503.61 321.43 501.85 317.66 500.05 313.89 C 503.33 308.18 504.85 301.68 507.53 295.68 C 508.28 292.26 509.38 288.79 509.39 285.29 Z" />
<path fill="#d6d3d3" d=" M 614.97 300.28 C 617.30 299.26 615.57 303.49 614.63 301.10 L 614.97 300.28 Z" />
<path fill="#d6d3d3" d=" M 616.04 312.30 C 619.31 312.10 614.69 315.53 616.04 312.30 Z" />
<path fill="#ffffff" d=" M 506.15 324.79 C 508.45 322.01 508.81 318.04 511.24 315.46 C 511.61 320.99 511.38 326.53 511.28 332.06 C 508.82 330.24 507.92 327.17 506.15 324.79 Z" />
<path fill="#9e9a9c" d=" M 494.27 323.95 C 496.26 327.43 498.29 330.89 500.54 334.22 C 497.26 337.68 495.05 342.02 491.39 345.15 C 489.27 342.27 487.24 339.31 485.11 336.44 C 488.48 332.52 491.62 328.39 494.27 323.95 Z" />
<path fill="#9e9a9c" d=" M 120.87 339.17 C 120.15 336.05 120.91 332.38 120.71 329.05 C 124.07 332.33 127.87 335.14 131.16 338.51 C 128.37 340.25 124.88 338.94 121.78 339.44 L 121.99 338.45 L 121.17 338.22 L 120.87 339.17 Z" />
<path fill="#fbb610" d=" M 709.18 332.86 C 709.24 336.21 708.91 339.59 709.38 342.92 C 710.19 344.85 709.75 347.09 709.50 349.12 C 706.39 352.54 703.18 355.93 699.61 358.86 C 699.39 358.40 698.95 357.49 698.73 357.04 C 698.45 353.02 698.45 348.98 698.63 344.96 C 702.43 341.22 705.53 336.77 709.18 332.86 Z" />
<path fill="#ffffff" d=" M 491.39 345.15 C 495.05 342.02 497.26 337.68 500.54 334.22 C 503.98 338.92 507.21 344.26 511.68 347.83 L 511.49 348.43 L 511.76 348.37 C 512.18 356.98 512.53 365.62 512.66 374.22 C 512.34 375.16 512.48 376.02 513.08 376.81 L 511.05 376.26 C 513.43 374.86 512.11 372.01 511.55 369.94 C 506.10 366.75 502.63 360.67 497.58 357.00 C 497.69 352.18 493.91 348.82 491.39 345.15 Z" />
<path fill="#ffffff" d=" M 121.17 338.22 L 121.99 338.45 L 121.78 339.44 L 120.87 339.17 L 121.17 338.22 Z" />
<path fill="#9e9a9c" d=" M 597.71 338.51 C 599.08 339.98 599.12 342.15 599.91 343.94 C 603.53 353.55 607.95 362.86 613.38 371.59 C 615.11 374.16 617.15 376.57 618.28 379.51 C 612.16 378.51 606.26 376.37 600.33 374.57 C 599.95 372.95 599.61 370.35 597.63 370.07 C 597.55 359.56 597.29 349.01 597.71 338.51 Z" />
<path fill="#9e9a9c" d=" M 145.46 347.42 C 148.59 348.06 151.39 349.71 154.41 350.72 C 154.42 351.22 154.44 352.22 154.45 352.72 C 151.46 352.83 148.48 352.61 145.50 352.82 C 145.52 351.02 145.51 349.21 145.46 347.42 Z" />
<path fill="#d6d3d3" d=" M 627.07 348.19 L 627.76 348.19 L 627.76 348.89 L 627.07 348.89 L 627.07 348.19 Z" />
<path fill="#d6d3d3" d=" M 617.06 355.17 C 619.53 354.67 617.33 358.51 616.68 355.89 L 617.06 355.17 Z" />
<path fill="#d6d3d3" d=" M 631.18 356.13 C 633.59 355.40 631.41 359.45 630.80 356.94 L 631.18 356.13 Z" />
<path fill="#dd0368" d=" M 497.58 357.00 C 502.63 360.67 506.10 366.75 511.55 369.94 C 512.11 372.01 513.43 374.86 511.05 376.26 C 508.41 379.55 504.74 381.77 501.89 384.86 C 500.83 385.55 499.89 387.06 498.48 386.79 C 498.49 376.84 497.21 366.94 497.58 357.00 Z" />
<path fill="#d6d3d3" d=" M 620.00 360.07 C 622.04 362.65 624.66 365.57 625.04 369.03 C 622.38 366.86 620.46 363.48 620.00 360.07 Z" />
<path fill="#fbb610" d=" M 666.61 368.53 C 670.94 367.19 674.21 363.94 678.18 361.93 C 678.18 365.15 678.25 368.37 678.17 371.59 C 675.72 372.47 672.75 370.98 670.39 372.45 C 669.73 374.55 670.08 376.92 669.88 379.12 C 665.38 381.43 660.67 383.23 656.03 385.26 C 653.42 385.36 651.21 386.73 648.86 387.70 C 646.60 387.60 644.59 386.28 642.36 386.27 C 636.89 384.75 631.26 383.50 625.93 381.49 C 628.25 380.67 630.75 380.63 633.12 379.97 C 632.67 379.44 631.75 378.39 631.30 377.87 C 632.30 378.78 633.30 380.20 634.91 379.66 C 638.70 379.42 642.27 377.96 645.97 377.20 C 652.91 374.47 660.28 372.63 666.61 368.53 Z" />
<path fill="#d6d3d3" d=" M 638.16 366.17 C 641.36 366.44 636.52 369.26 638.16 366.17 Z" />
<path fill="#ffffff" d=" M 597.63 370.07 C 599.61 370.35 599.95 372.95 600.33 374.57 C 597.76 374.33 597.27 372.30 597.63 370.07 Z" />
<path fill="#d6d3d3" d=" M 627.12 371.25 C 629.59 370.69 627.35 374.74 626.75 372.03 L 627.12 371.25 Z" />
<path fill="#d6d3d3" d=" M 628.46 374.07 C 629.84 372.89 632.47 376.73 630.38 377.00 C 629.54 376.26 628.36 375.26 628.46 374.07 Z" />
<path fill="#ffffff" d=" M 656.03 385.26 C 660.67 383.23 665.38 381.43 669.88 379.12 C 670.13 384.86 670.17 390.60 670.16 396.36 C 668.52 397.01 666.87 397.61 665.24 398.28 C 663.45 395.95 661.94 393.30 659.67 391.39 C 656.21 389.95 652.41 389.25 648.93 387.97 C 646.68 387.81 644.25 387.50 642.36 386.27 C 644.59 386.28 646.60 387.60 648.86 387.70 C 651.21 386.73 653.42 385.36 656.03 385.26 Z" />
<path fill="#ffffff" d=" M 545.40 385.75 C 550.52 385.75 555.65 385.74 560.78 385.76 C 560.77 390.12 560.82 394.48 560.75 398.85 C 555.75 399.06 550.54 398.83 545.46 399.05 C 545.30 394.62 545.40 390.18 545.40 385.75 Z" />
<path fill="#dd0368" d=" M 665.24 398.28 C 666.87 397.61 668.52 397.01 670.16 396.36 C 670.05 398.81 670.36 401.32 669.94 403.75 C 667.43 403.71 666.67 400.05 665.24 398.28 Z" />
<path fill="#0e1211" d=" M 185.50 414.66 C 185.72 411.85 190.26 411.79 190.53 414.61 C 191.03 419.60 190.65 424.69 190.73 429.72 C 188.92 429.79 187.11 429.80 185.32 429.71 C 185.41 424.70 185.06 419.64 185.50 414.66 Z" />
<path fill="#0e1211" d=" M 348.20 414.81 C 348.36 411.94 352.87 411.69 353.29 414.59 C 353.77 419.59 353.39 424.68 353.49 429.72 C 351.71 429.86 349.92 429.72 348.14 429.73 C 348.10 424.77 348.02 419.78 348.20 414.81 Z" />
<path fill="#0e1211" d=" M 520.10 415.86 C 520.01 414.27 520.94 411.86 523.00 412.56 C 524.75 412.37 525.46 414.53 525.49 415.94 C 525.51 420.52 525.52 425.11 525.49 429.70 C 523.71 429.87 521.91 429.71 520.13 429.73 C 520.04 425.11 520.14 420.48 520.10 415.86 Z" />
<path fill="#0e1211" d=" M 791.79 415.96 C 791.70 414.25 792.96 411.83 795.06 412.56 C 796.66 412.75 797.28 414.67 797.25 416.06 C 797.26 420.63 797.28 425.20 797.24 429.77 C 795.42 429.75 793.60 429.75 791.80 429.75 C 791.77 425.15 791.78 420.56 791.79 415.96 Z" />
<path fill="#0e1211" d=" M 84.20 415.38 C 85.61 413.89 88.82 414.99 88.60 417.18 C 88.80 435.07 88.62 452.97 88.69 470.87 C 87.15 471.69 84.95 470.96 83.16 471.18 C 83.15 453.77 83.16 436.36 83.16 418.94 C 83.29 417.77 82.97 416.05 84.20 415.38 Z" />
<path fill="#0e1211" d=" M 103.63 418.06 C 103.06 415.29 106.64 413.65 108.59 415.44 C 109.50 418.53 108.89 421.83 109.07 425.02 C 108.91 440.41 109.36 455.84 108.84 471.19 C 107.10 471.20 105.37 471.19 103.64 471.19 C 103.60 453.48 103.62 435.77 103.63 418.06 Z" />
<path fill="#0e1211" d=" M 226.11 417.90 C 225.77 415.82 228.02 413.98 229.94 414.95 C 231.71 415.48 231.43 417.61 231.51 419.05 C 231.49 436.43 231.53 453.81 231.49 471.19 C 229.70 471.21 227.91 471.19 226.12 471.20 C 226.09 453.43 226.11 435.66 226.11 417.90 Z" />
<path fill="#0e1211" d=" M 307.32 418.03 C 307.06 416.04 308.96 414.01 311.00 414.89 C 312.91 415.29 312.66 417.40 312.76 418.88 C 312.75 436.21 312.74 453.55 312.76 470.88 C 311.33 471.74 309.31 470.85 307.67 471.25 L 307.30 470.79 C 307.34 453.20 307.29 435.61 307.32 418.03 Z" />
<path fill="#0e1211" d=" M 388.89 416.97 C 389.15 414.14 394.07 413.82 394.20 416.91 C 394.33 435.00 394.24 453.09 394.25 471.18 C 392.43 471.20 390.61 471.20 388.80 471.18 C 388.83 453.11 388.66 435.03 388.89 416.97 Z" />
<path fill="#0e1211" d=" M 647.67 417.07 C 647.42 414.86 650.49 414.05 651.95 415.24 C 653.32 415.88 652.65 417.75 653.08 418.94 C 652.94 436.36 653.33 453.83 652.84 471.19 C 651.07 471.20 649.31 471.19 647.57 471.20 C 647.62 453.15 647.41 435.10 647.67 417.07 Z" />
<path fill="#0e1211" d=" M 750.79 417.95 C 750.49 415.63 752.93 414.00 755.02 414.95 C 756.69 415.63 756.43 417.62 756.51 419.10 C 756.49 436.46 756.52 453.83 756.49 471.19 C 754.59 471.19 752.69 471.21 750.80 471.18 C 750.77 453.44 750.78 435.69 750.79 417.95 Z" />
<path fill="#0e1211" d=" M 688.38 435.92 C 689.93 441.47 689.92 447.31 691.18 452.93 C 692.13 459.03 693.31 465.11 694.30 471.20 C 692.39 471.20 690.49 471.15 688.60 471.24 C 687.97 459.63 688.40 447.65 688.38 435.92 Z" />
<path fill="#0e1211" d=" M 147.23 470.36 C 148.53 469.42 148.87 467.42 150.49 467.01 C 150.34 468.39 150.51 469.81 150.28 471.20 C 149.39 470.82 146.54 472.13 147.23 470.36 Z" />
<path fill="#0e1211" d=" M 611.56 467.22 C 611.74 467.21 612.10 467.20 612.28 467.19 C 612.19 468.51 612.11 469.84 612.17 471.18 C 611.20 471.16 610.24 471.21 609.29 471.32 C 608.71 469.68 611.32 468.87 611.56 467.22 Z" />
</svg>
